%TF.GenerationSoftware,KiCad,Pcbnew,(6.0.8)*%
%TF.CreationDate,2023-01-06T11:49:21+01:00*%
%TF.ProjectId,Projet commun SEC SIC-PAS TOUT,50726f6a-6574-4206-936f-6d6d756e2053,rev?*%
%TF.SameCoordinates,Original*%
%TF.FileFunction,Copper,L1,Top*%
%TF.FilePolarity,Positive*%
%FSLAX46Y46*%
G04 Gerber Fmt 4.6, Leading zero omitted, Abs format (unit mm)*
G04 Created by KiCad (PCBNEW (6.0.8)) date 2023-01-06 11:49:21*
%MOMM*%
%LPD*%
G01*
G04 APERTURE LIST*
G04 Aperture macros list*
%AMRoundRect*
0 Rectangle with rounded corners*
0 $1 Rounding radius*
0 $2 $3 $4 $5 $6 $7 $8 $9 X,Y pos of 4 corners*
0 Add a 4 corners polygon primitive as box body*
4,1,4,$2,$3,$4,$5,$6,$7,$8,$9,$2,$3,0*
0 Add four circle primitives for the rounded corners*
1,1,$1+$1,$2,$3*
1,1,$1+$1,$4,$5*
1,1,$1+$1,$6,$7*
1,1,$1+$1,$8,$9*
0 Add four rect primitives between the rounded corners*
20,1,$1+$1,$2,$3,$4,$5,0*
20,1,$1+$1,$4,$5,$6,$7,0*
20,1,$1+$1,$6,$7,$8,$9,0*
20,1,$1+$1,$8,$9,$2,$3,0*%
G04 Aperture macros list end*
%TA.AperFunction,SMDPad,CuDef*%
%ADD10R,1.000001X2.700000*%
%TD*%
%TA.AperFunction,SMDPad,CuDef*%
%ADD11R,3.300001X2.700000*%
%TD*%
%TA.AperFunction,SMDPad,CuDef*%
%ADD12RoundRect,0.250000X-0.325000X-0.650000X0.325000X-0.650000X0.325000X0.650000X-0.325000X0.650000X0*%
%TD*%
%TA.AperFunction,ComponentPad*%
%ADD13C,1.500000*%
%TD*%
%TA.AperFunction,ComponentPad*%
%ADD14R,1.700000X1.700000*%
%TD*%
%TA.AperFunction,ComponentPad*%
%ADD15O,1.700000X1.700000*%
%TD*%
%TA.AperFunction,SMDPad,CuDef*%
%ADD16RoundRect,0.250000X-0.650000X0.325000X-0.650000X-0.325000X0.650000X-0.325000X0.650000X0.325000X0*%
%TD*%
%TA.AperFunction,ComponentPad*%
%ADD17R,1.600000X1.600000*%
%TD*%
%TA.AperFunction,ComponentPad*%
%ADD18O,1.600000X1.600000*%
%TD*%
%TA.AperFunction,ViaPad*%
%ADD19C,0.800000*%
%TD*%
%TA.AperFunction,Conductor*%
%ADD20C,0.750000*%
%TD*%
%TA.AperFunction,Conductor*%
%ADD21C,0.250000*%
%TD*%
G04 APERTURE END LIST*
D10*
%TO.P,U2,1,GND*%
%TO.N,GND*%
X114961000Y-77387999D03*
%TO.P,U2,2,VO*%
%TO.N,VCC*%
X117260999Y-77387999D03*
%TO.P,U2,3,VI*%
%TO.N,+6V*%
X119561000Y-77387999D03*
D11*
%TO.P,U2,4*%
%TO.N,N/C*%
X117260999Y-71487998D03*
%TD*%
D12*
%TO.P,C1,1*%
%TO.N,GND*%
X112050000Y-94500000D03*
%TO.P,C1,2*%
%TO.N,Net-(C1-Pad2)*%
X115000000Y-94500000D03*
%TD*%
%TO.P,C3,1*%
%TO.N,+6V*%
X121761000Y-81438000D03*
%TO.P,C3,2*%
%TO.N,GND*%
X124711000Y-81438000D03*
%TD*%
%TO.P,C2,1*%
%TO.N,GND*%
X112140000Y-99500000D03*
%TO.P,C2,2*%
%TO.N,Net-(C2-Pad2)*%
X115090000Y-99500000D03*
%TD*%
D13*
%TO.P,Y1,1,1*%
%TO.N,Net-(C2-Pad2)*%
X121694000Y-99339000D03*
%TO.P,Y1,2,2*%
%TO.N,Net-(C1-Pad2)*%
X121694000Y-94339000D03*
%TD*%
D14*
%TO.P,J1,1,Pin_1*%
%TO.N,unconnected-(J1-Pad1)*%
X158753000Y-108762000D03*
D15*
%TO.P,J1,2,Pin_2*%
%TO.N,unconnected-(J1-Pad2)*%
X158753000Y-106222000D03*
%TO.P,J1,3,Pin_3*%
%TO.N,VCC*%
X158753000Y-103682000D03*
%TO.P,J1,4,Pin_4*%
%TO.N,Net-(J1-Pad4)*%
X158753000Y-101142000D03*
%TO.P,J1,5,Pin_5*%
%TO.N,Net-(U1-Pad17)*%
X158753000Y-98602000D03*
%TO.P,J1,6,Pin_6*%
%TO.N,Net-(U1-Pad19)*%
X158753000Y-96062000D03*
%TO.P,J1,7,Pin_7*%
%TO.N,Net-(U1-Pad18)*%
X158753000Y-93522000D03*
%TO.P,J1,8,Pin_8*%
%TO.N,GND*%
X158753000Y-90982000D03*
%TD*%
D16*
%TO.P,C4,1*%
%TO.N,VCC*%
X117122000Y-83438000D03*
%TO.P,C4,2*%
%TO.N,GND*%
X117122000Y-86388000D03*
%TD*%
D17*
%TO.P,U1,1,~{RESET}/PC6*%
%TO.N,unconnected-(U1-Pad1)*%
X132880000Y-75640000D03*
D18*
%TO.P,U1,2,PD0*%
%TO.N,Net-(J3-Pad6)*%
X132880000Y-78180000D03*
%TO.P,U1,3,PD1*%
%TO.N,Net-(J3-Pad5)*%
X132880000Y-80720000D03*
%TO.P,U1,4,PD2*%
%TO.N,unconnected-(U1-Pad4)*%
X132880000Y-83260000D03*
%TO.P,U1,5,PD3*%
%TO.N,unconnected-(U1-Pad5)*%
X132880000Y-85800000D03*
%TO.P,U1,6,PD4*%
%TO.N,Net-(J1-Pad4)*%
X132880000Y-88340000D03*
%TO.P,U1,7,VCC*%
%TO.N,VCC*%
X132880000Y-90880000D03*
%TO.P,U1,8,GND*%
%TO.N,GND*%
X132880000Y-93420000D03*
%TO.P,U1,9,XTAL1/PB6*%
%TO.N,Net-(C1-Pad2)*%
X132880000Y-95960000D03*
%TO.P,U1,10,XTAL2/PB7*%
%TO.N,Net-(C2-Pad2)*%
X132880000Y-98500000D03*
%TO.P,U1,11,PD5*%
%TO.N,unconnected-(U1-Pad11)*%
X132880000Y-101040000D03*
%TO.P,U1,12,PD6*%
%TO.N,unconnected-(U1-Pad12)*%
X132880000Y-103580000D03*
%TO.P,U1,13,PD7*%
%TO.N,unconnected-(U1-Pad13)*%
X132880000Y-106120000D03*
%TO.P,U1,14,PB0*%
%TO.N,unconnected-(U1-Pad14)*%
X132880000Y-108660000D03*
%TO.P,U1,15,PB1*%
%TO.N,unconnected-(U1-Pad15)*%
X140500000Y-108660000D03*
%TO.P,U1,16,PB2*%
%TO.N,unconnected-(U1-Pad16)*%
X140500000Y-106120000D03*
%TO.P,U1,17,PB3*%
%TO.N,Net-(U1-Pad17)*%
X140500000Y-103580000D03*
%TO.P,U1,18,PB4*%
%TO.N,Net-(U1-Pad18)*%
X140500000Y-101040000D03*
%TO.P,U1,19,PB5*%
%TO.N,Net-(U1-Pad19)*%
X140500000Y-98500000D03*
%TO.P,U1,20,AVCC*%
%TO.N,unconnected-(U1-Pad20)*%
X140500000Y-95960000D03*
%TO.P,U1,21,AREF*%
%TO.N,unconnected-(U1-Pad21)*%
X140500000Y-93420000D03*
%TO.P,U1,22,GND*%
%TO.N,GND*%
X140500000Y-90880000D03*
%TO.P,U1,23,PC0*%
%TO.N,unconnected-(U1-Pad23)*%
X140500000Y-88340000D03*
%TO.P,U1,24,PC1*%
%TO.N,unconnected-(U1-Pad24)*%
X140500000Y-85800000D03*
%TO.P,U1,25,PC2*%
%TO.N,unconnected-(U1-Pad25)*%
X140500000Y-83260000D03*
%TO.P,U1,26,PC3*%
%TO.N,unconnected-(U1-Pad26)*%
X140500000Y-80720000D03*
%TO.P,U1,27,PC4*%
%TO.N,Net-(J2-Pad3)*%
X140500000Y-78180000D03*
%TO.P,U1,28,PC5*%
%TO.N,Net-(J2-Pad2)*%
X140500000Y-75640000D03*
%TD*%
D14*
%TO.P,J3,1,Pin_1*%
%TO.N,unconnected-(J3-Pad1)*%
X164645000Y-65099000D03*
D15*
%TO.P,J3,2,Pin_2*%
%TO.N,unconnected-(J3-Pad2)*%
X164645000Y-67639000D03*
%TO.P,J3,3,Pin_3*%
%TO.N,unconnected-(J3-Pad3)*%
X164645000Y-70179000D03*
%TO.P,J3,4,Pin_4*%
%TO.N,unconnected-(J3-Pad4)*%
X164645000Y-72719000D03*
%TO.P,J3,5,Pin_5*%
%TO.N,Net-(J3-Pad5)*%
X164645000Y-75259000D03*
%TO.P,J3,6,Pin_6*%
%TO.N,Net-(J3-Pad6)*%
X164645000Y-77799000D03*
%TO.P,J3,7,Pin_7*%
%TO.N,GND*%
X164645000Y-80339000D03*
%TO.P,J3,8,Pin_8*%
%TO.N,VCC*%
X164645000Y-82879000D03*
%TO.P,J3,9,Pin_9*%
%TO.N,unconnected-(J3-Pad9)*%
X164645000Y-85419000D03*
%TD*%
D14*
%TO.P,J2,1,Pin_1*%
%TO.N,unconnected-(J2-Pad1)*%
X157229000Y-62447000D03*
D15*
%TO.P,J2,2,Pin_2*%
%TO.N,Net-(J2-Pad2)*%
X154689000Y-62447000D03*
%TO.P,J2,3,Pin_3*%
%TO.N,Net-(J2-Pad3)*%
X152149000Y-62447000D03*
%TO.P,J2,4,Pin_4*%
%TO.N,GND*%
X149609000Y-62447000D03*
%TO.P,J2,5,Pin_5*%
%TO.N,unconnected-(J2-Pad5)*%
X147069000Y-62447000D03*
%TO.P,J2,6,Pin_6*%
%TO.N,VCC*%
X144529000Y-62447000D03*
%TD*%
D19*
%TO.N,GND*%
X158500000Y-80000000D03*
X156000000Y-91000000D03*
X127500000Y-84000000D03*
%TO.N,Net-(J2-Pad2)*%
X154500000Y-67000000D03*
X154500000Y-74500000D03*
%TO.N,Net-(J2-Pad3)*%
X147500000Y-78000000D03*
X152000000Y-67000000D03*
%TO.N,VCC*%
X107500000Y-85000000D03*
%TO.N,GND*%
X108500000Y-94500000D03*
%TO.N,VCC*%
X128000000Y-91000000D03*
%TO.N,GND*%
X113261000Y-80438000D03*
%TD*%
D20*
%TO.N,Net-(C2-Pad2)*%
X121533000Y-99500000D02*
X121694000Y-99339000D01*
X115090000Y-99500000D02*
X121533000Y-99500000D01*
%TO.N,Net-(C1-Pad2)*%
X121533000Y-94500000D02*
X121694000Y-94339000D01*
X115000000Y-94500000D02*
X121533000Y-94500000D01*
%TO.N,GND*%
X156000000Y-82500000D02*
X158500000Y-80000000D01*
X156000000Y-91000000D02*
X156000000Y-82500000D01*
X124938000Y-81438000D02*
X127500000Y-84000000D01*
%TO.N,Net-(J2-Pad2)*%
X154500000Y-74500000D02*
X154500000Y-67000000D01*
%TO.N,Net-(J2-Pad3)*%
X148500000Y-78000000D02*
X147500000Y-78000000D01*
X152000000Y-74500000D02*
X148500000Y-78000000D01*
X152000000Y-72500000D02*
X152000000Y-74500000D01*
X152000000Y-67000000D02*
X152000000Y-72500000D01*
%TO.N,+6V*%
X125000000Y-67000000D02*
X92000000Y-67000000D01*
X125500000Y-67500000D02*
X125000000Y-67000000D01*
X125500000Y-73500000D02*
X125500000Y-67500000D01*
X121612001Y-77387999D02*
X125500000Y-73500000D01*
X119561000Y-77387999D02*
X121612001Y-77387999D01*
%TO.N,VCC*%
X111000000Y-85000000D02*
X107500000Y-85000000D01*
X111500000Y-84500000D02*
X111000000Y-85000000D01*
X112562000Y-83438000D02*
X111500000Y-84500000D01*
X117122000Y-83438000D02*
X112562000Y-83438000D01*
%TO.N,GND*%
X114961000Y-78738000D02*
X113261000Y-80438000D01*
X114961000Y-77387999D02*
X114961000Y-78738000D01*
%TO.N,VCC*%
X117260999Y-83299001D02*
X117122000Y-83438000D01*
X117260999Y-77387999D02*
X117260999Y-83299001D01*
%TO.N,+6V*%
X119561000Y-79238000D02*
X121761000Y-81438000D01*
X119561000Y-77387999D02*
X119561000Y-79238000D01*
%TO.N,GND*%
X108500000Y-99500000D02*
X108500000Y-94500000D01*
X112140000Y-99500000D02*
X108500000Y-99500000D01*
X112050000Y-94500000D02*
X108500000Y-94500000D01*
X108500000Y-92000000D02*
X108500000Y-94500000D01*
X114112000Y-86388000D02*
X108500000Y-92000000D01*
X117122000Y-86388000D02*
X114112000Y-86388000D01*
%TO.N,VCC*%
X120438000Y-83438000D02*
X117122000Y-83438000D01*
X128000000Y-91000000D02*
X120438000Y-83438000D01*
D21*
%TO.N,GND*%
X124711000Y-81438000D02*
X124938000Y-81438000D01*
X124711000Y-81438000D02*
X124761000Y-81438000D01*
%TD*%
M02*
