%TF.GenerationSoftware,KiCad,Pcbnew,(6.0.8)*%
%TF.CreationDate,2023-01-06T11:49:21+01:00*%
%TF.ProjectId,Projet commun SEC SIC-PAS TOUT,50726f6a-6574-4206-936f-6d6d756e2053,rev?*%
%TF.SameCoordinates,Original*%
%TF.FileFunction,Copper,L2,Bot*%
%TF.FilePolarity,Positive*%
%FSLAX46Y46*%
G04 Gerber Fmt 4.6, Leading zero omitted, Abs format (unit mm)*
G04 Created by KiCad (PCBNEW (6.0.8)) date 2023-01-06 11:49:21*
%MOMM*%
%LPD*%
G01*
G04 APERTURE LIST*
%TA.AperFunction,ComponentPad*%
%ADD10C,1.500000*%
%TD*%
%TA.AperFunction,ComponentPad*%
%ADD11R,1.700000X1.700000*%
%TD*%
%TA.AperFunction,ComponentPad*%
%ADD12O,1.700000X1.700000*%
%TD*%
%TA.AperFunction,ComponentPad*%
%ADD13R,1.600000X1.600000*%
%TD*%
%TA.AperFunction,ComponentPad*%
%ADD14O,1.600000X1.600000*%
%TD*%
%TA.AperFunction,ViaPad*%
%ADD15C,0.800000*%
%TD*%
%TA.AperFunction,Conductor*%
%ADD16C,0.750000*%
%TD*%
G04 APERTURE END LIST*
D10*
%TO.P,Y1,1,1*%
%TO.N,Net-(C2-Pad2)*%
X121694000Y-99339000D03*
%TO.P,Y1,2,2*%
%TO.N,Net-(C1-Pad2)*%
X121694000Y-94339000D03*
%TD*%
D11*
%TO.P,J1,1,Pin_1*%
%TO.N,unconnected-(J1-Pad1)*%
X158753000Y-108762000D03*
D12*
%TO.P,J1,2,Pin_2*%
%TO.N,unconnected-(J1-Pad2)*%
X158753000Y-106222000D03*
%TO.P,J1,3,Pin_3*%
%TO.N,VCC*%
X158753000Y-103682000D03*
%TO.P,J1,4,Pin_4*%
%TO.N,Net-(J1-Pad4)*%
X158753000Y-101142000D03*
%TO.P,J1,5,Pin_5*%
%TO.N,Net-(U1-Pad17)*%
X158753000Y-98602000D03*
%TO.P,J1,6,Pin_6*%
%TO.N,Net-(U1-Pad19)*%
X158753000Y-96062000D03*
%TO.P,J1,7,Pin_7*%
%TO.N,Net-(U1-Pad18)*%
X158753000Y-93522000D03*
%TO.P,J1,8,Pin_8*%
%TO.N,GND*%
X158753000Y-90982000D03*
%TD*%
D13*
%TO.P,U1,1,~{RESET}/PC6*%
%TO.N,unconnected-(U1-Pad1)*%
X132880000Y-75640000D03*
D14*
%TO.P,U1,2,PD0*%
%TO.N,Net-(J3-Pad6)*%
X132880000Y-78180000D03*
%TO.P,U1,3,PD1*%
%TO.N,Net-(J3-Pad5)*%
X132880000Y-80720000D03*
%TO.P,U1,4,PD2*%
%TO.N,unconnected-(U1-Pad4)*%
X132880000Y-83260000D03*
%TO.P,U1,5,PD3*%
%TO.N,unconnected-(U1-Pad5)*%
X132880000Y-85800000D03*
%TO.P,U1,6,PD4*%
%TO.N,Net-(J1-Pad4)*%
X132880000Y-88340000D03*
%TO.P,U1,7,VCC*%
%TO.N,VCC*%
X132880000Y-90880000D03*
%TO.P,U1,8,GND*%
%TO.N,GND*%
X132880000Y-93420000D03*
%TO.P,U1,9,XTAL1/PB6*%
%TO.N,Net-(C1-Pad2)*%
X132880000Y-95960000D03*
%TO.P,U1,10,XTAL2/PB7*%
%TO.N,Net-(C2-Pad2)*%
X132880000Y-98500000D03*
%TO.P,U1,11,PD5*%
%TO.N,unconnected-(U1-Pad11)*%
X132880000Y-101040000D03*
%TO.P,U1,12,PD6*%
%TO.N,unconnected-(U1-Pad12)*%
X132880000Y-103580000D03*
%TO.P,U1,13,PD7*%
%TO.N,unconnected-(U1-Pad13)*%
X132880000Y-106120000D03*
%TO.P,U1,14,PB0*%
%TO.N,unconnected-(U1-Pad14)*%
X132880000Y-108660000D03*
%TO.P,U1,15,PB1*%
%TO.N,unconnected-(U1-Pad15)*%
X140500000Y-108660000D03*
%TO.P,U1,16,PB2*%
%TO.N,unconnected-(U1-Pad16)*%
X140500000Y-106120000D03*
%TO.P,U1,17,PB3*%
%TO.N,Net-(U1-Pad17)*%
X140500000Y-103580000D03*
%TO.P,U1,18,PB4*%
%TO.N,Net-(U1-Pad18)*%
X140500000Y-101040000D03*
%TO.P,U1,19,PB5*%
%TO.N,Net-(U1-Pad19)*%
X140500000Y-98500000D03*
%TO.P,U1,20,AVCC*%
%TO.N,unconnected-(U1-Pad20)*%
X140500000Y-95960000D03*
%TO.P,U1,21,AREF*%
%TO.N,unconnected-(U1-Pad21)*%
X140500000Y-93420000D03*
%TO.P,U1,22,GND*%
%TO.N,GND*%
X140500000Y-90880000D03*
%TO.P,U1,23,PC0*%
%TO.N,unconnected-(U1-Pad23)*%
X140500000Y-88340000D03*
%TO.P,U1,24,PC1*%
%TO.N,unconnected-(U1-Pad24)*%
X140500000Y-85800000D03*
%TO.P,U1,25,PC2*%
%TO.N,unconnected-(U1-Pad25)*%
X140500000Y-83260000D03*
%TO.P,U1,26,PC3*%
%TO.N,unconnected-(U1-Pad26)*%
X140500000Y-80720000D03*
%TO.P,U1,27,PC4*%
%TO.N,Net-(J2-Pad3)*%
X140500000Y-78180000D03*
%TO.P,U1,28,PC5*%
%TO.N,Net-(J2-Pad2)*%
X140500000Y-75640000D03*
%TD*%
D11*
%TO.P,J3,1,Pin_1*%
%TO.N,unconnected-(J3-Pad1)*%
X164645000Y-65099000D03*
D12*
%TO.P,J3,2,Pin_2*%
%TO.N,unconnected-(J3-Pad2)*%
X164645000Y-67639000D03*
%TO.P,J3,3,Pin_3*%
%TO.N,unconnected-(J3-Pad3)*%
X164645000Y-70179000D03*
%TO.P,J3,4,Pin_4*%
%TO.N,unconnected-(J3-Pad4)*%
X164645000Y-72719000D03*
%TO.P,J3,5,Pin_5*%
%TO.N,Net-(J3-Pad5)*%
X164645000Y-75259000D03*
%TO.P,J3,6,Pin_6*%
%TO.N,Net-(J3-Pad6)*%
X164645000Y-77799000D03*
%TO.P,J3,7,Pin_7*%
%TO.N,GND*%
X164645000Y-80339000D03*
%TO.P,J3,8,Pin_8*%
%TO.N,VCC*%
X164645000Y-82879000D03*
%TO.P,J3,9,Pin_9*%
%TO.N,unconnected-(J3-Pad9)*%
X164645000Y-85419000D03*
%TD*%
D11*
%TO.P,J2,1,Pin_1*%
%TO.N,unconnected-(J2-Pad1)*%
X157229000Y-62447000D03*
D12*
%TO.P,J2,2,Pin_2*%
%TO.N,Net-(J2-Pad2)*%
X154689000Y-62447000D03*
%TO.P,J2,3,Pin_3*%
%TO.N,Net-(J2-Pad3)*%
X152149000Y-62447000D03*
%TO.P,J2,4,Pin_4*%
%TO.N,GND*%
X149609000Y-62447000D03*
%TO.P,J2,5,Pin_5*%
%TO.N,unconnected-(J2-Pad5)*%
X147069000Y-62447000D03*
%TO.P,J2,6,Pin_6*%
%TO.N,VCC*%
X144529000Y-62447000D03*
%TD*%
D15*
%TO.N,GND*%
X158500000Y-80000000D03*
X156000000Y-91000000D03*
X127500000Y-84000000D03*
%TO.N,Net-(J2-Pad2)*%
X154500000Y-67000000D03*
X154500000Y-74500000D03*
%TO.N,Net-(J2-Pad3)*%
X147500000Y-78000000D03*
X152000000Y-67000000D03*
%TO.N,VCC*%
X107500000Y-85000000D03*
%TO.N,GND*%
X108500000Y-94500000D03*
%TO.N,VCC*%
X128000000Y-91000000D03*
%TO.N,GND*%
X113261000Y-80438000D03*
%TD*%
D16*
%TO.N,GND*%
X164306000Y-80000000D02*
X164645000Y-80339000D01*
X158500000Y-80000000D02*
X164306000Y-80000000D01*
X156018000Y-90982000D02*
X156000000Y-91000000D01*
X158753000Y-90982000D02*
X156018000Y-90982000D01*
%TO.N,Net-(J3-Pad6)*%
X158500000Y-77598000D02*
X158701000Y-77799000D01*
X158500000Y-71000000D02*
X158500000Y-77598000D01*
X164645000Y-77799000D02*
X158701000Y-77799000D01*
X132000000Y-71000000D02*
X158500000Y-71000000D01*
X129500000Y-73500000D02*
X132000000Y-71000000D01*
X129500000Y-77000000D02*
X129500000Y-73500000D01*
X130680000Y-78180000D02*
X129500000Y-77000000D01*
X132880000Y-78180000D02*
X130680000Y-78180000D01*
%TO.N,Net-(U1-Pad19)*%
X142000000Y-98500000D02*
X140500000Y-98500000D01*
X160500000Y-87000000D02*
X153500000Y-87000000D01*
X165500000Y-96000000D02*
X165500000Y-92000000D01*
X165500000Y-92000000D02*
X160500000Y-87000000D01*
X165438000Y-96062000D02*
X165500000Y-96000000D01*
X158753000Y-96062000D02*
X165438000Y-96062000D01*
X153500000Y-87000000D02*
X142000000Y-98500000D01*
%TO.N,Net-(J3-Pad5)*%
X130500000Y-69000000D02*
X126500000Y-73000000D01*
X161000000Y-69500000D02*
X160500000Y-69000000D01*
X160500000Y-69000000D02*
X130500000Y-69000000D01*
X161259000Y-75259000D02*
X161000000Y-75000000D01*
X161000000Y-75000000D02*
X161000000Y-69500000D01*
X164645000Y-75259000D02*
X161259000Y-75259000D01*
X126500000Y-77500000D02*
X126500000Y-73000000D01*
X129720000Y-80720000D02*
X126500000Y-77500000D01*
X132880000Y-80720000D02*
X129720000Y-80720000D01*
%TO.N,Net-(J2-Pad2)*%
X154500000Y-67000000D02*
X154500000Y-62636000D01*
X154500000Y-62636000D02*
X154689000Y-62447000D01*
X153360000Y-75640000D02*
X154500000Y-74500000D01*
X140500000Y-75640000D02*
X153360000Y-75640000D01*
%TO.N,Net-(J2-Pad3)*%
X140680000Y-78000000D02*
X140500000Y-78180000D01*
X152149000Y-66851000D02*
X152000000Y-67000000D01*
X147500000Y-78000000D02*
X140680000Y-78000000D01*
X152149000Y-62447000D02*
X152149000Y-66851000D01*
%TO.N,VCC*%
X172000000Y-59500000D02*
X172000000Y-82500000D01*
X172000000Y-82500000D02*
X171500000Y-83000000D01*
X144500000Y-59500000D02*
X172000000Y-59500000D01*
X144529000Y-59529000D02*
X144500000Y-59500000D01*
X144529000Y-62447000D02*
X144529000Y-59529000D01*
X107553000Y-62447000D02*
X144529000Y-62447000D01*
X107500000Y-62500000D02*
X107553000Y-62447000D01*
X107500000Y-85000000D02*
X107500000Y-62500000D01*
X128120000Y-90880000D02*
X128000000Y-91000000D01*
X132880000Y-90880000D02*
X128120000Y-90880000D01*
%TO.N,Net-(U1-Pad18)*%
X149978000Y-93522000D02*
X158753000Y-93522000D01*
X142460000Y-101040000D02*
X149978000Y-93522000D01*
X140500000Y-101040000D02*
X142460000Y-101040000D01*
%TO.N,Net-(U1-Pad17)*%
X143420000Y-103580000D02*
X148398000Y-98602000D01*
X148398000Y-98602000D02*
X158753000Y-98602000D01*
X140500000Y-103580000D02*
X143420000Y-103580000D01*
%TO.N,VCC*%
X171379000Y-82879000D02*
X164645000Y-82879000D01*
X171500000Y-83000000D02*
X171379000Y-82879000D01*
X171500000Y-103500000D02*
X171500000Y-83000000D01*
X171318000Y-103682000D02*
X171500000Y-103500000D01*
X158753000Y-103682000D02*
X171318000Y-103682000D01*
%TO.N,Net-(J1-Pad4)*%
X153358000Y-101142000D02*
X158753000Y-101142000D01*
X151500000Y-110500000D02*
X151500000Y-103000000D01*
X151000000Y-111000000D02*
X151500000Y-110500000D01*
X117000000Y-111000000D02*
X151000000Y-111000000D01*
X151500000Y-103000000D02*
X153358000Y-101142000D01*
X117000000Y-89000000D02*
X117000000Y-111000000D01*
X117660000Y-88340000D02*
X117000000Y-89000000D01*
X132880000Y-88340000D02*
X117660000Y-88340000D01*
%TO.N,Net-(C1-Pad2)*%
X123315000Y-95960000D02*
X132880000Y-95960000D01*
X121694000Y-94339000D02*
X123315000Y-95960000D01*
%TO.N,Net-(C2-Pad2)*%
X122533000Y-98500000D02*
X132880000Y-98500000D01*
X121694000Y-99339000D02*
X122533000Y-98500000D01*
%TD*%
%TA.AperFunction,Conductor*%
%TO.N,GND*%
G36*
X176852621Y-55813502D02*
G01*
X176899114Y-55867158D01*
X176910500Y-55919500D01*
X176910500Y-114157500D01*
X176890498Y-114225621D01*
X176836842Y-114272114D01*
X176784500Y-114283500D01*
X84962500Y-114283500D01*
X84894379Y-114263498D01*
X84847886Y-114209842D01*
X84836500Y-114157500D01*
X84836500Y-85000000D01*
X106586496Y-85000000D01*
X106587186Y-85006565D01*
X106604228Y-85168707D01*
X106606458Y-85189928D01*
X106665473Y-85371556D01*
X106668776Y-85377278D01*
X106668777Y-85377279D01*
X106673636Y-85385695D01*
X106760960Y-85536944D01*
X106765378Y-85541851D01*
X106765379Y-85541852D01*
X106825583Y-85608715D01*
X106888747Y-85678866D01*
X107043248Y-85791118D01*
X107049276Y-85793802D01*
X107049278Y-85793803D01*
X107133779Y-85831425D01*
X107217712Y-85868794D01*
X107311113Y-85888647D01*
X107398056Y-85907128D01*
X107398061Y-85907128D01*
X107404513Y-85908500D01*
X107595487Y-85908500D01*
X107601939Y-85907128D01*
X107601944Y-85907128D01*
X107688887Y-85888647D01*
X107782288Y-85868794D01*
X107866221Y-85831425D01*
X107950722Y-85793803D01*
X107950724Y-85793802D01*
X107956752Y-85791118D01*
X108111253Y-85678866D01*
X108174417Y-85608715D01*
X108234621Y-85541852D01*
X108234622Y-85541851D01*
X108239040Y-85536944D01*
X108326364Y-85385695D01*
X108331223Y-85377279D01*
X108331224Y-85377278D01*
X108334527Y-85371556D01*
X108393542Y-85189928D01*
X108395773Y-85168707D01*
X108412814Y-85006565D01*
X108413504Y-85000000D01*
X108393542Y-84810072D01*
X108389667Y-84798146D01*
X108383500Y-84759210D01*
X108383500Y-63456500D01*
X108403502Y-63388379D01*
X108457158Y-63341886D01*
X108509500Y-63330500D01*
X143439357Y-63330500D01*
X143507478Y-63350502D01*
X143534589Y-63373998D01*
X143575250Y-63420938D01*
X143747126Y-63563632D01*
X143940000Y-63676338D01*
X143944825Y-63678180D01*
X143944826Y-63678181D01*
X144017612Y-63705975D01*
X144148692Y-63756030D01*
X144153760Y-63757061D01*
X144153763Y-63757062D01*
X144248862Y-63776410D01*
X144367597Y-63800567D01*
X144372772Y-63800757D01*
X144372774Y-63800757D01*
X144585673Y-63808564D01*
X144585677Y-63808564D01*
X144590837Y-63808753D01*
X144595957Y-63808097D01*
X144595959Y-63808097D01*
X144807288Y-63781025D01*
X144807289Y-63781025D01*
X144812416Y-63780368D01*
X144817366Y-63778883D01*
X145021429Y-63717661D01*
X145021434Y-63717659D01*
X145026384Y-63716174D01*
X145226994Y-63617896D01*
X145408860Y-63488173D01*
X145455722Y-63441475D01*
X145509003Y-63388379D01*
X145567096Y-63330489D01*
X145697453Y-63149077D01*
X145698776Y-63150028D01*
X145745645Y-63106857D01*
X145815580Y-63094625D01*
X145881026Y-63122144D01*
X145908875Y-63153994D01*
X145968987Y-63252088D01*
X146115250Y-63420938D01*
X146287126Y-63563632D01*
X146480000Y-63676338D01*
X146484825Y-63678180D01*
X146484826Y-63678181D01*
X146557612Y-63705975D01*
X146688692Y-63756030D01*
X146693760Y-63757061D01*
X146693763Y-63757062D01*
X146788862Y-63776410D01*
X146907597Y-63800567D01*
X146912772Y-63800757D01*
X146912774Y-63800757D01*
X147125673Y-63808564D01*
X147125677Y-63808564D01*
X147130837Y-63808753D01*
X147135957Y-63808097D01*
X147135959Y-63808097D01*
X147347288Y-63781025D01*
X147347289Y-63781025D01*
X147352416Y-63780368D01*
X147357366Y-63778883D01*
X147561429Y-63717661D01*
X147561434Y-63717659D01*
X147566384Y-63716174D01*
X147766994Y-63617896D01*
X147948860Y-63488173D01*
X147995722Y-63441475D01*
X148049003Y-63388379D01*
X148107096Y-63330489D01*
X148237453Y-63149077D01*
X148238640Y-63149930D01*
X148285960Y-63106362D01*
X148355897Y-63094145D01*
X148421338Y-63121678D01*
X148449166Y-63153511D01*
X148506694Y-63247388D01*
X148512777Y-63255699D01*
X148652213Y-63416667D01*
X148659580Y-63423883D01*
X148823434Y-63559916D01*
X148831881Y-63565831D01*
X149015756Y-63673279D01*
X149025042Y-63677729D01*
X149224001Y-63753703D01*
X149233899Y-63756579D01*
X149337250Y-63777606D01*
X149351299Y-63776410D01*
X149355000Y-63766065D01*
X149355000Y-61130102D01*
X149351082Y-61116758D01*
X149336806Y-61114771D01*
X149298324Y-61120660D01*
X149288288Y-61123051D01*
X149085868Y-61189212D01*
X149076359Y-61193209D01*
X148887463Y-61291542D01*
X148878738Y-61297036D01*
X148708433Y-61424905D01*
X148700726Y-61431748D01*
X148553590Y-61585717D01*
X148547109Y-61593722D01*
X148442498Y-61747074D01*
X148387587Y-61792076D01*
X148317062Y-61800247D01*
X148253315Y-61768993D01*
X148232618Y-61744509D01*
X148151822Y-61619617D01*
X148151820Y-61619614D01*
X148149014Y-61615277D01*
X147998670Y-61450051D01*
X147994619Y-61446852D01*
X147994615Y-61446848D01*
X147827414Y-61314800D01*
X147827410Y-61314798D01*
X147823359Y-61311598D01*
X147787028Y-61291542D01*
X147771136Y-61282769D01*
X147627789Y-61203638D01*
X147622920Y-61201914D01*
X147622916Y-61201912D01*
X147422087Y-61130795D01*
X147422083Y-61130794D01*
X147417212Y-61129069D01*
X147412119Y-61128162D01*
X147412116Y-61128161D01*
X147202373Y-61090800D01*
X147202367Y-61090799D01*
X147197284Y-61089894D01*
X147123452Y-61088992D01*
X146979081Y-61087228D01*
X146979079Y-61087228D01*
X146973911Y-61087165D01*
X146753091Y-61120955D01*
X146540756Y-61190357D01*
X146342607Y-61293507D01*
X146338474Y-61296610D01*
X146338471Y-61296612D01*
X146168100Y-61424530D01*
X146163965Y-61427635D01*
X146138541Y-61454240D01*
X146022560Y-61575607D01*
X146009629Y-61589138D01*
X145902201Y-61746621D01*
X145847293Y-61791621D01*
X145776768Y-61799792D01*
X145713021Y-61768538D01*
X145692324Y-61744054D01*
X145611822Y-61619617D01*
X145611820Y-61619614D01*
X145609014Y-61615277D01*
X145458670Y-61450051D01*
X145454612Y-61446846D01*
X145452572Y-61444944D01*
X145416391Y-61383859D01*
X145412500Y-61352790D01*
X145412500Y-60509500D01*
X145432502Y-60441379D01*
X145486158Y-60394886D01*
X145538500Y-60383500D01*
X170990500Y-60383500D01*
X171058621Y-60403502D01*
X171105114Y-60457158D01*
X171116500Y-60509500D01*
X171116500Y-81869500D01*
X171096498Y-81937621D01*
X171042842Y-81984114D01*
X170990500Y-81995500D01*
X165733605Y-81995500D01*
X165665484Y-81975498D01*
X165640412Y-81954300D01*
X165578148Y-81885873D01*
X165578146Y-81885872D01*
X165574670Y-81882051D01*
X165570619Y-81878852D01*
X165570615Y-81878848D01*
X165403414Y-81746800D01*
X165403410Y-81746798D01*
X165399359Y-81743598D01*
X165357569Y-81720529D01*
X165307598Y-81670097D01*
X165292826Y-81600654D01*
X165317942Y-81534248D01*
X165345294Y-81507641D01*
X165520328Y-81382792D01*
X165528200Y-81376139D01*
X165679052Y-81225812D01*
X165685730Y-81217965D01*
X165810003Y-81045020D01*
X165815313Y-81036183D01*
X165909670Y-80845267D01*
X165913469Y-80835672D01*
X165975377Y-80631910D01*
X165977555Y-80621837D01*
X165978986Y-80610962D01*
X165976775Y-80596778D01*
X165963617Y-80593000D01*
X163328225Y-80593000D01*
X163314694Y-80596973D01*
X163313257Y-80606966D01*
X163343565Y-80741446D01*
X163346645Y-80751275D01*
X163426770Y-80948603D01*
X163431413Y-80957794D01*
X163542694Y-81139388D01*
X163548777Y-81147699D01*
X163688213Y-81308667D01*
X163695580Y-81315883D01*
X163859434Y-81451916D01*
X163867881Y-81457831D01*
X163936969Y-81498203D01*
X163985693Y-81549842D01*
X163998764Y-81619625D01*
X163972033Y-81685396D01*
X163931584Y-81718752D01*
X163918607Y-81725507D01*
X163914474Y-81728610D01*
X163914471Y-81728612D01*
X163744100Y-81856530D01*
X163739965Y-81859635D01*
X163736393Y-81863373D01*
X163614431Y-81990999D01*
X163585629Y-82021138D01*
X163459743Y-82205680D01*
X163365688Y-82408305D01*
X163305989Y-82623570D01*
X163282251Y-82845695D01*
X163282548Y-82850848D01*
X163282548Y-82850851D01*
X163292097Y-83016454D01*
X163295110Y-83068715D01*
X163296247Y-83073761D01*
X163296248Y-83073767D01*
X163314617Y-83155274D01*
X163344222Y-83286639D01*
X163428266Y-83493616D01*
X163544987Y-83684088D01*
X163691250Y-83852938D01*
X163863126Y-83995632D01*
X163933595Y-84036811D01*
X163936445Y-84038476D01*
X163985169Y-84090114D01*
X163998240Y-84159897D01*
X163971509Y-84225669D01*
X163931055Y-84259027D01*
X163924766Y-84262301D01*
X163918607Y-84265507D01*
X163914474Y-84268610D01*
X163914471Y-84268612D01*
X163744100Y-84396530D01*
X163739965Y-84399635D01*
X163736393Y-84403373D01*
X163614431Y-84530999D01*
X163585629Y-84561138D01*
X163459743Y-84745680D01*
X163365688Y-84948305D01*
X163305989Y-85163570D01*
X163282251Y-85385695D01*
X163282548Y-85390848D01*
X163282548Y-85390851D01*
X163288011Y-85485590D01*
X163295110Y-85608715D01*
X163296247Y-85613761D01*
X163296248Y-85613767D01*
X163316119Y-85701939D01*
X163344222Y-85826639D01*
X163428266Y-86033616D01*
X163477032Y-86113195D01*
X163511186Y-86168929D01*
X163544987Y-86224088D01*
X163691250Y-86392938D01*
X163863126Y-86535632D01*
X164056000Y-86648338D01*
X164264692Y-86728030D01*
X164269760Y-86729061D01*
X164269763Y-86729062D01*
X164377017Y-86750883D01*
X164483597Y-86772567D01*
X164488772Y-86772757D01*
X164488774Y-86772757D01*
X164701673Y-86780564D01*
X164701677Y-86780564D01*
X164706837Y-86780753D01*
X164711957Y-86780097D01*
X164711959Y-86780097D01*
X164923288Y-86753025D01*
X164923289Y-86753025D01*
X164928416Y-86752368D01*
X164933366Y-86750883D01*
X165137429Y-86689661D01*
X165137434Y-86689659D01*
X165142384Y-86688174D01*
X165342994Y-86589896D01*
X165524860Y-86460173D01*
X165533301Y-86451762D01*
X165645011Y-86340441D01*
X165683096Y-86302489D01*
X165738920Y-86224802D01*
X165810435Y-86125277D01*
X165813453Y-86121077D01*
X165856785Y-86033402D01*
X165910136Y-85925453D01*
X165910137Y-85925451D01*
X165912430Y-85920811D01*
X165977370Y-85707069D01*
X166006529Y-85485590D01*
X166008156Y-85419000D01*
X165989852Y-85196361D01*
X165935431Y-84979702D01*
X165846354Y-84774840D01*
X165806906Y-84713862D01*
X165727822Y-84591617D01*
X165727820Y-84591614D01*
X165725014Y-84587277D01*
X165574670Y-84422051D01*
X165570619Y-84418852D01*
X165570615Y-84418848D01*
X165403414Y-84286800D01*
X165403410Y-84286798D01*
X165399359Y-84283598D01*
X165358053Y-84260796D01*
X165308084Y-84210364D01*
X165293312Y-84140921D01*
X165318428Y-84074516D01*
X165345780Y-84047909D01*
X165389603Y-84016650D01*
X165524860Y-83920173D01*
X165646208Y-83799249D01*
X165708579Y-83765333D01*
X165735147Y-83762500D01*
X170490500Y-83762500D01*
X170558621Y-83782502D01*
X170605114Y-83836158D01*
X170616500Y-83888500D01*
X170616500Y-102672500D01*
X170596498Y-102740621D01*
X170542842Y-102787114D01*
X170490500Y-102798500D01*
X159841605Y-102798500D01*
X159773484Y-102778498D01*
X159748412Y-102757300D01*
X159686148Y-102688873D01*
X159686146Y-102688872D01*
X159682670Y-102685051D01*
X159678619Y-102681852D01*
X159678615Y-102681848D01*
X159511414Y-102549800D01*
X159511410Y-102549798D01*
X159507359Y-102546598D01*
X159466053Y-102523796D01*
X159416084Y-102473364D01*
X159401312Y-102403921D01*
X159426428Y-102337516D01*
X159453780Y-102310909D01*
X159505126Y-102274284D01*
X159632860Y-102183173D01*
X159791096Y-102025489D01*
X159921453Y-101844077D01*
X159934984Y-101816700D01*
X160018136Y-101648453D01*
X160018137Y-101648451D01*
X160020430Y-101643811D01*
X160085370Y-101430069D01*
X160114529Y-101208590D01*
X160116156Y-101142000D01*
X160097852Y-100919361D01*
X160043431Y-100702702D01*
X159954354Y-100497840D01*
X159848193Y-100333740D01*
X159835822Y-100314617D01*
X159835820Y-100314614D01*
X159833014Y-100310277D01*
X159682670Y-100145051D01*
X159678619Y-100141852D01*
X159678615Y-100141848D01*
X159511414Y-100009800D01*
X159511410Y-100009798D01*
X159507359Y-100006598D01*
X159466053Y-99983796D01*
X159416084Y-99933364D01*
X159401312Y-99863921D01*
X159426428Y-99797516D01*
X159453780Y-99770909D01*
X159505126Y-99734284D01*
X159632860Y-99643173D01*
X159791096Y-99485489D01*
X159921453Y-99304077D01*
X159934984Y-99276700D01*
X160018136Y-99108453D01*
X160018137Y-99108451D01*
X160020430Y-99103811D01*
X160069005Y-98943933D01*
X160083865Y-98895023D01*
X160083865Y-98895021D01*
X160085370Y-98890069D01*
X160114529Y-98668590D01*
X160116156Y-98602000D01*
X160097852Y-98379361D01*
X160043431Y-98162702D01*
X159954354Y-97957840D01*
X159889087Y-97856953D01*
X159835822Y-97774617D01*
X159835820Y-97774614D01*
X159833014Y-97770277D01*
X159682670Y-97605051D01*
X159678619Y-97601852D01*
X159678615Y-97601848D01*
X159511414Y-97469800D01*
X159511410Y-97469798D01*
X159507359Y-97466598D01*
X159466053Y-97443796D01*
X159416084Y-97393364D01*
X159401312Y-97323921D01*
X159426428Y-97257516D01*
X159453780Y-97230909D01*
X159505126Y-97194284D01*
X159632860Y-97103173D01*
X159754208Y-96982249D01*
X159816579Y-96948333D01*
X159843147Y-96945500D01*
X165358543Y-96945500D01*
X165378255Y-96947051D01*
X165391507Y-96949150D01*
X165398094Y-96948805D01*
X165398098Y-96948805D01*
X165457850Y-96945673D01*
X165464445Y-96945500D01*
X165484306Y-96945500D01*
X165504069Y-96943423D01*
X165510628Y-96942907D01*
X165526427Y-96942079D01*
X165570377Y-96939776D01*
X165570381Y-96939775D01*
X165576971Y-96939430D01*
X165589929Y-96935958D01*
X165609372Y-96932355D01*
X165609795Y-96932311D01*
X165622702Y-96930954D01*
X165685894Y-96910422D01*
X165692196Y-96908556D01*
X165749985Y-96893071D01*
X165756363Y-96891362D01*
X165762242Y-96888366D01*
X165762251Y-96888363D01*
X165768317Y-96885272D01*
X165786579Y-96877708D01*
X165793043Y-96875608D01*
X165793051Y-96875605D01*
X165799331Y-96873564D01*
X165805050Y-96870262D01*
X165805055Y-96870260D01*
X165856867Y-96840346D01*
X165862637Y-96837213D01*
X165921839Y-96807047D01*
X165932259Y-96798609D01*
X165948552Y-96787411D01*
X165950367Y-96786363D01*
X165960169Y-96780704D01*
X165965075Y-96776287D01*
X165965080Y-96776283D01*
X166009538Y-96736253D01*
X166014554Y-96731969D01*
X166027409Y-96721559D01*
X166027412Y-96721556D01*
X166029986Y-96719472D01*
X166044022Y-96705436D01*
X166048806Y-96700895D01*
X166090872Y-96663019D01*
X166090873Y-96663017D01*
X166092285Y-96661746D01*
X166094434Y-96660185D01*
X166096211Y-96658211D01*
X166098185Y-96656434D01*
X166099746Y-96654285D01*
X166138895Y-96610806D01*
X166143436Y-96606022D01*
X166157472Y-96591986D01*
X166159559Y-96589409D01*
X166169969Y-96576554D01*
X166174253Y-96571538D01*
X166214283Y-96527080D01*
X166214287Y-96527075D01*
X166218704Y-96522169D01*
X166225411Y-96510552D01*
X166236609Y-96494259D01*
X166240891Y-96488971D01*
X166245047Y-96483839D01*
X166275213Y-96424637D01*
X166278346Y-96418867D01*
X166308260Y-96367055D01*
X166308262Y-96367050D01*
X166311564Y-96361331D01*
X166313605Y-96355051D01*
X166313608Y-96355043D01*
X166315708Y-96348579D01*
X166323272Y-96330317D01*
X166326363Y-96324251D01*
X166326366Y-96324242D01*
X166329362Y-96318363D01*
X166346556Y-96254196D01*
X166348422Y-96247894D01*
X166368954Y-96184702D01*
X166370355Y-96171372D01*
X166373958Y-96151929D01*
X166377430Y-96138971D01*
X166380906Y-96072646D01*
X166381423Y-96066071D01*
X166383156Y-96049579D01*
X166383500Y-96046306D01*
X166383500Y-96026432D01*
X166383673Y-96019838D01*
X166386804Y-95960099D01*
X166386804Y-95960095D01*
X166387149Y-95953507D01*
X166385051Y-95940260D01*
X166383500Y-95920550D01*
X166383500Y-92079457D01*
X166385051Y-92059745D01*
X166386118Y-92053008D01*
X166387150Y-92046493D01*
X166386605Y-92036081D01*
X166383673Y-91980150D01*
X166383500Y-91973555D01*
X166383500Y-91953694D01*
X166381423Y-91933931D01*
X166380907Y-91927367D01*
X166377776Y-91867623D01*
X166377775Y-91867619D01*
X166377430Y-91861029D01*
X166373958Y-91848071D01*
X166370355Y-91828628D01*
X166369644Y-91821866D01*
X166368954Y-91815298D01*
X166348422Y-91752106D01*
X166346556Y-91745804D01*
X166331071Y-91688015D01*
X166329362Y-91681637D01*
X166326366Y-91675758D01*
X166326363Y-91675749D01*
X166323272Y-91669683D01*
X166315708Y-91651421D01*
X166313608Y-91644957D01*
X166313605Y-91644949D01*
X166311564Y-91638669D01*
X166308262Y-91632950D01*
X166308260Y-91632945D01*
X166278346Y-91581133D01*
X166275213Y-91575363D01*
X166245047Y-91516161D01*
X166236610Y-91505742D01*
X166225410Y-91489446D01*
X166222004Y-91483546D01*
X166222002Y-91483543D01*
X166218704Y-91477831D01*
X166214288Y-91472926D01*
X166214284Y-91472921D01*
X166174246Y-91428453D01*
X166169966Y-91423443D01*
X166159546Y-91410576D01*
X166159545Y-91410575D01*
X166157472Y-91408015D01*
X166143436Y-91393979D01*
X166138895Y-91389194D01*
X166098856Y-91344726D01*
X166098855Y-91344725D01*
X166094434Y-91339815D01*
X166089094Y-91335935D01*
X166089086Y-91335928D01*
X166083578Y-91331927D01*
X166068543Y-91319086D01*
X161180912Y-86431454D01*
X161168075Y-86416426D01*
X161160185Y-86405566D01*
X161149828Y-86396240D01*
X161110816Y-86361114D01*
X161106031Y-86356573D01*
X161091986Y-86342528D01*
X161089409Y-86340441D01*
X161076554Y-86330031D01*
X161071538Y-86325747D01*
X161027080Y-86285717D01*
X161027075Y-86285713D01*
X161022169Y-86281296D01*
X161010552Y-86274589D01*
X160994259Y-86263391D01*
X160988971Y-86259109D01*
X160983839Y-86254953D01*
X160924637Y-86224787D01*
X160918867Y-86221654D01*
X160867055Y-86191740D01*
X160867050Y-86191738D01*
X160861331Y-86188436D01*
X160855051Y-86186395D01*
X160855043Y-86186392D01*
X160848579Y-86184292D01*
X160830317Y-86176728D01*
X160824251Y-86173637D01*
X160824242Y-86173634D01*
X160818363Y-86170638D01*
X160807672Y-86167773D01*
X160754196Y-86153444D01*
X160747894Y-86151578D01*
X160684702Y-86131046D01*
X160671372Y-86129645D01*
X160651929Y-86126042D01*
X160638971Y-86122570D01*
X160632381Y-86122225D01*
X160632377Y-86122224D01*
X160588427Y-86119921D01*
X160572628Y-86119093D01*
X160566069Y-86118577D01*
X160546306Y-86116500D01*
X160526445Y-86116500D01*
X160519850Y-86116327D01*
X160460098Y-86113195D01*
X160460094Y-86113195D01*
X160453507Y-86112850D01*
X160440253Y-86114949D01*
X160420544Y-86116500D01*
X153579457Y-86116500D01*
X153559745Y-86114949D01*
X153553008Y-86113882D01*
X153553009Y-86113882D01*
X153546493Y-86112850D01*
X153539906Y-86113195D01*
X153539902Y-86113195D01*
X153480150Y-86116327D01*
X153473555Y-86116500D01*
X153453694Y-86116500D01*
X153433931Y-86118577D01*
X153427372Y-86119093D01*
X153411573Y-86119921D01*
X153367623Y-86122224D01*
X153367619Y-86122225D01*
X153361029Y-86122570D01*
X153348071Y-86126042D01*
X153328628Y-86129645D01*
X153315298Y-86131046D01*
X153252106Y-86151578D01*
X153245804Y-86153444D01*
X153192328Y-86167773D01*
X153181637Y-86170638D01*
X153175758Y-86173634D01*
X153175749Y-86173637D01*
X153169683Y-86176728D01*
X153151421Y-86184292D01*
X153144957Y-86186392D01*
X153144949Y-86186395D01*
X153138669Y-86188436D01*
X153132950Y-86191738D01*
X153132945Y-86191740D01*
X153081133Y-86221654D01*
X153075363Y-86224787D01*
X153016161Y-86254953D01*
X153011029Y-86259109D01*
X153005741Y-86263391D01*
X152989448Y-86274589D01*
X152977831Y-86281296D01*
X152972925Y-86285713D01*
X152972920Y-86285717D01*
X152928462Y-86325747D01*
X152923446Y-86330031D01*
X152910591Y-86340441D01*
X152908014Y-86342528D01*
X152893969Y-86356573D01*
X152889184Y-86361114D01*
X152850173Y-86396240D01*
X152839815Y-86405566D01*
X152831925Y-86416426D01*
X152819088Y-86431454D01*
X141670947Y-97579595D01*
X141608635Y-97613621D01*
X141581852Y-97616500D01*
X141519188Y-97616500D01*
X141451067Y-97596498D01*
X141430093Y-97579595D01*
X141344300Y-97493802D01*
X141339792Y-97490645D01*
X141339789Y-97490643D01*
X141200860Y-97393364D01*
X141156749Y-97362477D01*
X141151767Y-97360154D01*
X141151762Y-97360151D01*
X141117543Y-97344195D01*
X141064258Y-97297278D01*
X141044797Y-97229001D01*
X141065339Y-97161041D01*
X141117543Y-97115805D01*
X141151762Y-97099849D01*
X141151767Y-97099846D01*
X141156749Y-97097523D01*
X141321377Y-96982249D01*
X141339789Y-96969357D01*
X141339792Y-96969355D01*
X141344300Y-96966198D01*
X141506198Y-96804300D01*
X141520410Y-96784004D01*
X141573598Y-96708043D01*
X141637523Y-96616749D01*
X141639846Y-96611767D01*
X141639849Y-96611762D01*
X141731961Y-96414225D01*
X141731961Y-96414224D01*
X141734284Y-96409243D01*
X141758636Y-96318363D01*
X141792119Y-96193402D01*
X141792119Y-96193400D01*
X141793543Y-96188087D01*
X141813498Y-95960000D01*
X141793543Y-95731913D01*
X141758815Y-95602307D01*
X141735707Y-95516067D01*
X141735706Y-95516065D01*
X141734284Y-95510757D01*
X141696580Y-95429899D01*
X141639849Y-95308238D01*
X141639846Y-95308233D01*
X141637523Y-95303251D01*
X141530942Y-95151038D01*
X141509357Y-95120211D01*
X141509355Y-95120208D01*
X141506198Y-95115700D01*
X141344300Y-94953802D01*
X141339792Y-94950645D01*
X141339789Y-94950643D01*
X141200860Y-94853364D01*
X141156749Y-94822477D01*
X141151767Y-94820154D01*
X141151762Y-94820151D01*
X141117543Y-94804195D01*
X141064258Y-94757278D01*
X141044797Y-94689001D01*
X141065339Y-94621041D01*
X141117543Y-94575805D01*
X141151762Y-94559849D01*
X141151767Y-94559846D01*
X141156749Y-94557523D01*
X141261611Y-94484098D01*
X141339789Y-94429357D01*
X141339792Y-94429355D01*
X141344300Y-94426198D01*
X141506198Y-94264300D01*
X141637523Y-94076749D01*
X141639846Y-94071767D01*
X141639849Y-94071762D01*
X141731961Y-93874225D01*
X141731961Y-93874224D01*
X141734284Y-93869243D01*
X141751515Y-93804939D01*
X141792119Y-93653402D01*
X141792119Y-93653400D01*
X141793543Y-93648087D01*
X141813498Y-93420000D01*
X141793543Y-93191913D01*
X141767416Y-93094406D01*
X141735707Y-92976067D01*
X141735706Y-92976065D01*
X141734284Y-92970757D01*
X141712082Y-92923144D01*
X141639849Y-92768238D01*
X141639846Y-92768233D01*
X141637523Y-92763251D01*
X141556852Y-92648041D01*
X141509357Y-92580211D01*
X141509355Y-92580208D01*
X141506198Y-92575700D01*
X141344300Y-92413802D01*
X141339792Y-92410645D01*
X141339789Y-92410643D01*
X141222328Y-92328396D01*
X141156749Y-92282477D01*
X141151767Y-92280154D01*
X141151762Y-92280151D01*
X141116951Y-92263919D01*
X141063666Y-92217002D01*
X141044205Y-92148725D01*
X141064747Y-92080765D01*
X141116951Y-92035529D01*
X141151511Y-92019414D01*
X141161007Y-92013931D01*
X141339467Y-91888972D01*
X141347875Y-91881916D01*
X141501916Y-91727875D01*
X141508972Y-91719467D01*
X141633931Y-91541007D01*
X141639414Y-91531511D01*
X141731490Y-91334053D01*
X141735236Y-91323761D01*
X141781394Y-91151497D01*
X141781058Y-91137401D01*
X141773116Y-91134000D01*
X139232033Y-91134000D01*
X139218502Y-91137973D01*
X139217273Y-91146522D01*
X139264764Y-91323761D01*
X139268510Y-91334053D01*
X139360586Y-91531511D01*
X139366069Y-91541007D01*
X139491028Y-91719467D01*
X139498084Y-91727875D01*
X139652125Y-91881916D01*
X139660533Y-91888972D01*
X139838993Y-92013931D01*
X139848489Y-92019414D01*
X139883049Y-92035529D01*
X139936334Y-92082446D01*
X139955795Y-92150723D01*
X139935253Y-92218683D01*
X139883049Y-92263919D01*
X139848238Y-92280151D01*
X139848233Y-92280154D01*
X139843251Y-92282477D01*
X139777672Y-92328396D01*
X139660211Y-92410643D01*
X139660208Y-92410645D01*
X139655700Y-92413802D01*
X139493802Y-92575700D01*
X139490645Y-92580208D01*
X139490643Y-92580211D01*
X139443148Y-92648041D01*
X139362477Y-92763251D01*
X139360154Y-92768233D01*
X139360151Y-92768238D01*
X139287918Y-92923144D01*
X139265716Y-92970757D01*
X139264294Y-92976065D01*
X139264293Y-92976067D01*
X139232584Y-93094406D01*
X139206457Y-93191913D01*
X139186502Y-93420000D01*
X139206457Y-93648087D01*
X139207881Y-93653400D01*
X139207881Y-93653402D01*
X139248486Y-93804939D01*
X139265716Y-93869243D01*
X139268039Y-93874224D01*
X139268039Y-93874225D01*
X139360151Y-94071762D01*
X139360154Y-94071767D01*
X139362477Y-94076749D01*
X139493802Y-94264300D01*
X139655700Y-94426198D01*
X139660208Y-94429355D01*
X139660211Y-94429357D01*
X139738389Y-94484098D01*
X139843251Y-94557523D01*
X139848233Y-94559846D01*
X139848238Y-94559849D01*
X139882457Y-94575805D01*
X139935742Y-94622722D01*
X139955203Y-94690999D01*
X139934661Y-94758959D01*
X139882457Y-94804195D01*
X139848238Y-94820151D01*
X139848233Y-94820154D01*
X139843251Y-94822477D01*
X139799140Y-94853364D01*
X139660211Y-94950643D01*
X139660208Y-94950645D01*
X139655700Y-94953802D01*
X139493802Y-95115700D01*
X139490645Y-95120208D01*
X139490643Y-95120211D01*
X139469058Y-95151038D01*
X139362477Y-95303251D01*
X139360154Y-95308233D01*
X139360151Y-95308238D01*
X139303420Y-95429899D01*
X139265716Y-95510757D01*
X139264294Y-95516065D01*
X139264293Y-95516067D01*
X139241185Y-95602307D01*
X139206457Y-95731913D01*
X139186502Y-95960000D01*
X139206457Y-96188087D01*
X139207881Y-96193400D01*
X139207881Y-96193402D01*
X139241365Y-96318363D01*
X139265716Y-96409243D01*
X139268039Y-96414224D01*
X139268039Y-96414225D01*
X139360151Y-96611762D01*
X139360154Y-96611767D01*
X139362477Y-96616749D01*
X139426402Y-96708043D01*
X139479591Y-96784004D01*
X139493802Y-96804300D01*
X139655700Y-96966198D01*
X139660208Y-96969355D01*
X139660211Y-96969357D01*
X139678623Y-96982249D01*
X139843251Y-97097523D01*
X139848233Y-97099846D01*
X139848238Y-97099849D01*
X139882457Y-97115805D01*
X139935742Y-97162722D01*
X139955203Y-97230999D01*
X139934661Y-97298959D01*
X139882457Y-97344195D01*
X139848238Y-97360151D01*
X139848233Y-97360154D01*
X139843251Y-97362477D01*
X139799140Y-97393364D01*
X139660211Y-97490643D01*
X139660208Y-97490645D01*
X139655700Y-97493802D01*
X139493802Y-97655700D01*
X139490645Y-97660208D01*
X139490643Y-97660211D01*
X139452293Y-97714981D01*
X139362477Y-97843251D01*
X139360154Y-97848233D01*
X139360151Y-97848238D01*
X139273784Y-98033454D01*
X139265716Y-98050757D01*
X139264294Y-98056065D01*
X139264293Y-98056067D01*
X139213683Y-98244944D01*
X139206457Y-98271913D01*
X139186502Y-98500000D01*
X139206457Y-98728087D01*
X139207881Y-98733400D01*
X139207881Y-98733402D01*
X139255800Y-98912235D01*
X139265716Y-98949243D01*
X139268039Y-98954224D01*
X139268039Y-98954225D01*
X139360151Y-99151762D01*
X139360154Y-99151767D01*
X139362477Y-99156749D01*
X139408169Y-99222004D01*
X139473782Y-99315708D01*
X139493802Y-99344300D01*
X139655700Y-99506198D01*
X139660208Y-99509355D01*
X139660211Y-99509357D01*
X139737794Y-99563681D01*
X139843251Y-99637523D01*
X139848233Y-99639846D01*
X139848238Y-99639849D01*
X139882457Y-99655805D01*
X139935742Y-99702722D01*
X139955203Y-99770999D01*
X139934661Y-99838959D01*
X139882457Y-99884195D01*
X139848238Y-99900151D01*
X139848233Y-99900154D01*
X139843251Y-99902477D01*
X139799140Y-99933364D01*
X139660211Y-100030643D01*
X139660208Y-100030645D01*
X139655700Y-100033802D01*
X139493802Y-100195700D01*
X139490645Y-100200208D01*
X139490643Y-100200211D01*
X139452293Y-100254981D01*
X139362477Y-100383251D01*
X139360154Y-100388233D01*
X139360151Y-100388238D01*
X139295193Y-100527543D01*
X139265716Y-100590757D01*
X139264294Y-100596065D01*
X139264293Y-100596067D01*
X139207881Y-100806598D01*
X139206457Y-100811913D01*
X139186502Y-101040000D01*
X139206457Y-101268087D01*
X139207881Y-101273400D01*
X139207881Y-101273402D01*
X139248486Y-101424939D01*
X139265716Y-101489243D01*
X139268039Y-101494224D01*
X139268039Y-101494225D01*
X139360151Y-101691762D01*
X139360154Y-101691767D01*
X139362477Y-101696749D01*
X139408169Y-101762004D01*
X139473782Y-101855708D01*
X139493802Y-101884300D01*
X139655700Y-102046198D01*
X139660208Y-102049355D01*
X139660211Y-102049357D01*
X139738389Y-102104098D01*
X139843251Y-102177523D01*
X139848233Y-102179846D01*
X139848238Y-102179849D01*
X139882457Y-102195805D01*
X139935742Y-102242722D01*
X139955203Y-102310999D01*
X139934661Y-102378959D01*
X139882457Y-102424195D01*
X139848238Y-102440151D01*
X139848233Y-102440154D01*
X139843251Y-102442477D01*
X139784596Y-102483548D01*
X139660211Y-102570643D01*
X139660208Y-102570645D01*
X139655700Y-102573802D01*
X139493802Y-102735700D01*
X139490645Y-102740208D01*
X139490643Y-102740211D01*
X139482300Y-102752126D01*
X139362477Y-102923251D01*
X139360154Y-102928233D01*
X139360151Y-102928238D01*
X139289638Y-103079456D01*
X139265716Y-103130757D01*
X139206457Y-103351913D01*
X139186502Y-103580000D01*
X139206457Y-103808087D01*
X139207881Y-103813400D01*
X139207881Y-103813402D01*
X139263821Y-104022169D01*
X139265716Y-104029243D01*
X139268039Y-104034224D01*
X139268039Y-104034225D01*
X139360151Y-104231762D01*
X139360154Y-104231767D01*
X139362477Y-104236749D01*
X139407480Y-104301020D01*
X139479591Y-104404004D01*
X139493802Y-104424300D01*
X139655700Y-104586198D01*
X139660208Y-104589355D01*
X139660211Y-104589357D01*
X139678623Y-104602249D01*
X139843251Y-104717523D01*
X139848233Y-104719846D01*
X139848238Y-104719849D01*
X139882457Y-104735805D01*
X139935742Y-104782722D01*
X139955203Y-104850999D01*
X139934661Y-104918959D01*
X139882457Y-104964195D01*
X139848238Y-104980151D01*
X139848233Y-104980154D01*
X139843251Y-104982477D01*
X139799140Y-105013364D01*
X139660211Y-105110643D01*
X139660208Y-105110645D01*
X139655700Y-105113802D01*
X139493802Y-105275700D01*
X139362477Y-105463251D01*
X139360154Y-105468233D01*
X139360151Y-105468238D01*
X139268039Y-105665775D01*
X139265716Y-105670757D01*
X139264294Y-105676065D01*
X139264293Y-105676067D01*
X139207881Y-105886598D01*
X139206457Y-105891913D01*
X139186502Y-106120000D01*
X139206457Y-106348087D01*
X139207881Y-106353400D01*
X139207881Y-106353402D01*
X139248486Y-106504939D01*
X139265716Y-106569243D01*
X139268039Y-106574224D01*
X139268039Y-106574225D01*
X139360151Y-106771762D01*
X139360154Y-106771767D01*
X139362477Y-106776749D01*
X139493802Y-106964300D01*
X139655700Y-107126198D01*
X139660208Y-107129355D01*
X139660211Y-107129357D01*
X139738389Y-107184098D01*
X139843251Y-107257523D01*
X139848233Y-107259846D01*
X139848238Y-107259849D01*
X139882457Y-107275805D01*
X139935742Y-107322722D01*
X139955203Y-107390999D01*
X139934661Y-107458959D01*
X139882457Y-107504195D01*
X139848238Y-107520151D01*
X139848233Y-107520154D01*
X139843251Y-107522477D01*
X139795491Y-107555919D01*
X139660211Y-107650643D01*
X139660208Y-107650645D01*
X139655700Y-107653802D01*
X139493802Y-107815700D01*
X139362477Y-108003251D01*
X139360154Y-108008233D01*
X139360151Y-108008238D01*
X139268039Y-108205775D01*
X139265716Y-108210757D01*
X139206457Y-108431913D01*
X139186502Y-108660000D01*
X139206457Y-108888087D01*
X139265716Y-109109243D01*
X139268039Y-109114224D01*
X139268039Y-109114225D01*
X139360151Y-109311762D01*
X139360154Y-109311767D01*
X139362477Y-109316749D01*
X139493802Y-109504300D01*
X139655700Y-109666198D01*
X139660208Y-109669355D01*
X139660211Y-109669357D01*
X139724625Y-109714460D01*
X139843251Y-109797523D01*
X139989868Y-109865891D01*
X140012201Y-109876305D01*
X140065486Y-109923222D01*
X140084947Y-109991499D01*
X140064405Y-110059459D01*
X140010383Y-110105525D01*
X139958951Y-110116500D01*
X133421049Y-110116500D01*
X133352928Y-110096498D01*
X133306435Y-110042842D01*
X133296331Y-109972568D01*
X133325825Y-109907988D01*
X133367799Y-109876305D01*
X133390132Y-109865891D01*
X133536749Y-109797523D01*
X133655375Y-109714460D01*
X133719789Y-109669357D01*
X133719792Y-109669355D01*
X133724300Y-109666198D01*
X133886198Y-109504300D01*
X134017523Y-109316749D01*
X134019846Y-109311767D01*
X134019849Y-109311762D01*
X134111961Y-109114225D01*
X134111961Y-109114224D01*
X134114284Y-109109243D01*
X134173543Y-108888087D01*
X134193498Y-108660000D01*
X134173543Y-108431913D01*
X134114284Y-108210757D01*
X134111961Y-108205775D01*
X134019849Y-108008238D01*
X134019846Y-108008233D01*
X134017523Y-108003251D01*
X133886198Y-107815700D01*
X133724300Y-107653802D01*
X133719792Y-107650645D01*
X133719789Y-107650643D01*
X133584509Y-107555919D01*
X133536749Y-107522477D01*
X133531767Y-107520154D01*
X133531762Y-107520151D01*
X133497543Y-107504195D01*
X133444258Y-107457278D01*
X133424797Y-107389001D01*
X133445339Y-107321041D01*
X133497543Y-107275805D01*
X133531762Y-107259849D01*
X133531767Y-107259846D01*
X133536749Y-107257523D01*
X133641611Y-107184098D01*
X133719789Y-107129357D01*
X133719792Y-107129355D01*
X133724300Y-107126198D01*
X133886198Y-106964300D01*
X134017523Y-106776749D01*
X134019846Y-106771767D01*
X134019849Y-106771762D01*
X134111961Y-106574225D01*
X134111961Y-106574224D01*
X134114284Y-106569243D01*
X134131515Y-106504939D01*
X134172119Y-106353402D01*
X134172119Y-106353400D01*
X134173543Y-106348087D01*
X134193498Y-106120000D01*
X134173543Y-105891913D01*
X134172119Y-105886598D01*
X134115707Y-105676067D01*
X134115706Y-105676065D01*
X134114284Y-105670757D01*
X134111961Y-105665775D01*
X134019849Y-105468238D01*
X134019846Y-105468233D01*
X134017523Y-105463251D01*
X133886198Y-105275700D01*
X133724300Y-105113802D01*
X133719792Y-105110645D01*
X133719789Y-105110643D01*
X133580860Y-105013364D01*
X133536749Y-104982477D01*
X133531767Y-104980154D01*
X133531762Y-104980151D01*
X133497543Y-104964195D01*
X133444258Y-104917278D01*
X133424797Y-104849001D01*
X133445339Y-104781041D01*
X133497543Y-104735805D01*
X133531762Y-104719849D01*
X133531767Y-104719846D01*
X133536749Y-104717523D01*
X133701377Y-104602249D01*
X133719789Y-104589357D01*
X133719792Y-104589355D01*
X133724300Y-104586198D01*
X133886198Y-104424300D01*
X133900410Y-104404004D01*
X133972520Y-104301020D01*
X134017523Y-104236749D01*
X134019846Y-104231767D01*
X134019849Y-104231762D01*
X134111961Y-104034225D01*
X134111961Y-104034224D01*
X134114284Y-104029243D01*
X134116180Y-104022169D01*
X134172119Y-103813402D01*
X134172119Y-103813400D01*
X134173543Y-103808087D01*
X134193498Y-103580000D01*
X134173543Y-103351913D01*
X134114284Y-103130757D01*
X134090362Y-103079456D01*
X134019849Y-102928238D01*
X134019846Y-102928233D01*
X134017523Y-102923251D01*
X133897700Y-102752126D01*
X133889357Y-102740211D01*
X133889355Y-102740208D01*
X133886198Y-102735700D01*
X133724300Y-102573802D01*
X133719792Y-102570645D01*
X133719789Y-102570643D01*
X133595404Y-102483548D01*
X133536749Y-102442477D01*
X133531767Y-102440154D01*
X133531762Y-102440151D01*
X133497543Y-102424195D01*
X133444258Y-102377278D01*
X133424797Y-102309001D01*
X133445339Y-102241041D01*
X133497543Y-102195805D01*
X133531762Y-102179849D01*
X133531767Y-102179846D01*
X133536749Y-102177523D01*
X133641611Y-102104098D01*
X133719789Y-102049357D01*
X133719792Y-102049355D01*
X133724300Y-102046198D01*
X133886198Y-101884300D01*
X133906219Y-101855708D01*
X133971831Y-101762004D01*
X134017523Y-101696749D01*
X134019846Y-101691767D01*
X134019849Y-101691762D01*
X134111961Y-101494225D01*
X134111961Y-101494224D01*
X134114284Y-101489243D01*
X134131515Y-101424939D01*
X134172119Y-101273402D01*
X134172119Y-101273400D01*
X134173543Y-101268087D01*
X134193498Y-101040000D01*
X134173543Y-100811913D01*
X134172119Y-100806598D01*
X134115707Y-100596067D01*
X134115706Y-100596065D01*
X134114284Y-100590757D01*
X134084807Y-100527543D01*
X134019849Y-100388238D01*
X134019846Y-100388233D01*
X134017523Y-100383251D01*
X133927707Y-100254981D01*
X133889357Y-100200211D01*
X133889355Y-100200208D01*
X133886198Y-100195700D01*
X133724300Y-100033802D01*
X133719792Y-100030645D01*
X133719789Y-100030643D01*
X133580860Y-99933364D01*
X133536749Y-99902477D01*
X133531767Y-99900154D01*
X133531762Y-99900151D01*
X133497543Y-99884195D01*
X133444258Y-99837278D01*
X133424797Y-99769001D01*
X133445339Y-99701041D01*
X133497543Y-99655805D01*
X133531762Y-99639849D01*
X133531767Y-99639846D01*
X133536749Y-99637523D01*
X133642206Y-99563681D01*
X133719789Y-99509357D01*
X133719792Y-99509355D01*
X133724300Y-99506198D01*
X133886198Y-99344300D01*
X133906219Y-99315708D01*
X133971831Y-99222004D01*
X134017523Y-99156749D01*
X134019846Y-99151767D01*
X134019849Y-99151762D01*
X134111961Y-98954225D01*
X134111961Y-98954224D01*
X134114284Y-98949243D01*
X134124201Y-98912235D01*
X134172119Y-98733402D01*
X134172119Y-98733400D01*
X134173543Y-98728087D01*
X134193498Y-98500000D01*
X134173543Y-98271913D01*
X134166317Y-98244944D01*
X134115707Y-98056067D01*
X134115706Y-98056065D01*
X134114284Y-98050757D01*
X134106216Y-98033454D01*
X134019849Y-97848238D01*
X134019846Y-97848233D01*
X134017523Y-97843251D01*
X133927707Y-97714981D01*
X133889357Y-97660211D01*
X133889355Y-97660208D01*
X133886198Y-97655700D01*
X133724300Y-97493802D01*
X133719792Y-97490645D01*
X133719789Y-97490643D01*
X133580860Y-97393364D01*
X133536749Y-97362477D01*
X133531767Y-97360154D01*
X133531762Y-97360151D01*
X133497543Y-97344195D01*
X133444258Y-97297278D01*
X133424797Y-97229001D01*
X133445339Y-97161041D01*
X133497543Y-97115805D01*
X133531762Y-97099849D01*
X133531767Y-97099846D01*
X133536749Y-97097523D01*
X133701377Y-96982249D01*
X133719789Y-96969357D01*
X133719792Y-96969355D01*
X133724300Y-96966198D01*
X133886198Y-96804300D01*
X133900410Y-96784004D01*
X133953598Y-96708043D01*
X134017523Y-96616749D01*
X134019846Y-96611767D01*
X134019849Y-96611762D01*
X134111961Y-96414225D01*
X134111961Y-96414224D01*
X134114284Y-96409243D01*
X134138636Y-96318363D01*
X134172119Y-96193402D01*
X134172119Y-96193400D01*
X134173543Y-96188087D01*
X134193498Y-95960000D01*
X134173543Y-95731913D01*
X134138815Y-95602307D01*
X134115707Y-95516067D01*
X134115706Y-95516065D01*
X134114284Y-95510757D01*
X134076580Y-95429899D01*
X134019849Y-95308238D01*
X134019846Y-95308233D01*
X134017523Y-95303251D01*
X133910942Y-95151038D01*
X133889357Y-95120211D01*
X133889355Y-95120208D01*
X133886198Y-95115700D01*
X133724300Y-94953802D01*
X133719792Y-94950645D01*
X133719789Y-94950643D01*
X133580860Y-94853364D01*
X133536749Y-94822477D01*
X133531767Y-94820154D01*
X133531762Y-94820151D01*
X133496951Y-94803919D01*
X133443666Y-94757002D01*
X133424205Y-94688725D01*
X133444747Y-94620765D01*
X133496951Y-94575529D01*
X133531511Y-94559414D01*
X133541007Y-94553931D01*
X133719467Y-94428972D01*
X133727875Y-94421916D01*
X133881916Y-94267875D01*
X133888972Y-94259467D01*
X134013931Y-94081007D01*
X134019414Y-94071511D01*
X134111490Y-93874053D01*
X134115236Y-93863761D01*
X134161394Y-93691497D01*
X134161058Y-93677401D01*
X134153116Y-93674000D01*
X131612033Y-93674000D01*
X131598502Y-93677973D01*
X131597273Y-93686522D01*
X131644764Y-93863761D01*
X131648510Y-93874053D01*
X131740586Y-94071511D01*
X131746069Y-94081007D01*
X131871028Y-94259467D01*
X131878084Y-94267875D01*
X132032125Y-94421916D01*
X132040533Y-94428972D01*
X132218993Y-94553931D01*
X132228489Y-94559414D01*
X132263049Y-94575529D01*
X132316334Y-94622446D01*
X132335795Y-94690723D01*
X132315253Y-94758683D01*
X132263049Y-94803919D01*
X132228238Y-94820151D01*
X132228233Y-94820154D01*
X132223251Y-94822477D01*
X132179140Y-94853364D01*
X132040211Y-94950643D01*
X132040208Y-94950645D01*
X132035700Y-94953802D01*
X131949907Y-95039595D01*
X131887595Y-95073621D01*
X131860812Y-95076500D01*
X123733148Y-95076500D01*
X123665027Y-95056498D01*
X123644053Y-95039595D01*
X122991064Y-94386606D01*
X122957038Y-94324294D01*
X122954638Y-94308492D01*
X122938594Y-94125106D01*
X122938115Y-94119629D01*
X122881120Y-93906924D01*
X122833564Y-93804939D01*
X122790382Y-93712334D01*
X122790379Y-93712329D01*
X122788056Y-93707347D01*
X122764706Y-93674000D01*
X122664908Y-93531473D01*
X122664906Y-93531470D01*
X122661749Y-93526962D01*
X122506038Y-93371251D01*
X122325654Y-93244944D01*
X122126076Y-93151880D01*
X121913371Y-93094885D01*
X121694000Y-93075693D01*
X121474629Y-93094885D01*
X121261924Y-93151880D01*
X121187471Y-93186598D01*
X121067334Y-93242618D01*
X121067329Y-93242621D01*
X121062347Y-93244944D01*
X121057840Y-93248100D01*
X121057838Y-93248101D01*
X120886473Y-93368092D01*
X120886470Y-93368094D01*
X120881962Y-93371251D01*
X120726251Y-93526962D01*
X120723094Y-93531470D01*
X120723092Y-93531473D01*
X120623294Y-93674000D01*
X120599944Y-93707347D01*
X120597621Y-93712329D01*
X120597618Y-93712334D01*
X120554436Y-93804939D01*
X120506880Y-93906924D01*
X120449885Y-94119629D01*
X120430693Y-94339000D01*
X120449885Y-94558371D01*
X120506880Y-94771076D01*
X120529764Y-94820151D01*
X120597618Y-94965666D01*
X120597621Y-94965671D01*
X120599944Y-94970653D01*
X120603100Y-94975160D01*
X120603101Y-94975162D01*
X120716632Y-95137300D01*
X120726251Y-95151038D01*
X120881962Y-95306749D01*
X121062346Y-95433056D01*
X121261924Y-95526120D01*
X121474629Y-95583115D01*
X121625304Y-95596297D01*
X121663492Y-95599638D01*
X121729611Y-95625501D01*
X121741606Y-95636064D01*
X122634088Y-96528546D01*
X122646925Y-96543574D01*
X122654815Y-96554434D01*
X122659725Y-96558855D01*
X122659726Y-96558856D01*
X122704184Y-96598886D01*
X122708969Y-96603427D01*
X122723014Y-96617472D01*
X122725588Y-96619556D01*
X122725591Y-96619559D01*
X122738446Y-96629969D01*
X122743462Y-96634253D01*
X122787920Y-96674283D01*
X122787925Y-96674287D01*
X122792831Y-96678704D01*
X122804097Y-96685209D01*
X122804448Y-96685411D01*
X122820741Y-96696609D01*
X122831161Y-96705047D01*
X122890363Y-96735213D01*
X122896133Y-96738346D01*
X122947945Y-96768260D01*
X122947950Y-96768262D01*
X122953669Y-96771564D01*
X122959949Y-96773605D01*
X122959957Y-96773608D01*
X122966421Y-96775708D01*
X122984683Y-96783272D01*
X122990749Y-96786363D01*
X122990758Y-96786366D01*
X122996637Y-96789362D01*
X123003015Y-96791071D01*
X123060804Y-96806556D01*
X123067106Y-96808422D01*
X123130298Y-96828954D01*
X123143205Y-96830311D01*
X123143628Y-96830355D01*
X123163071Y-96833958D01*
X123176029Y-96837430D01*
X123182620Y-96837775D01*
X123182624Y-96837776D01*
X123242354Y-96840906D01*
X123248929Y-96841423D01*
X123264126Y-96843020D01*
X123268694Y-96843500D01*
X123288568Y-96843500D01*
X123295162Y-96843673D01*
X123354901Y-96846804D01*
X123354905Y-96846804D01*
X123361493Y-96847149D01*
X123368008Y-96846117D01*
X123368011Y-96846117D01*
X123374740Y-96845051D01*
X123394450Y-96843500D01*
X131860812Y-96843500D01*
X131928933Y-96863502D01*
X131949907Y-96880405D01*
X132035700Y-96966198D01*
X132040208Y-96969355D01*
X132040211Y-96969357D01*
X132058623Y-96982249D01*
X132223251Y-97097523D01*
X132228233Y-97099846D01*
X132228238Y-97099849D01*
X132262457Y-97115805D01*
X132315742Y-97162722D01*
X132335203Y-97230999D01*
X132314661Y-97298959D01*
X132262457Y-97344195D01*
X132228238Y-97360151D01*
X132228233Y-97360154D01*
X132223251Y-97362477D01*
X132179140Y-97393364D01*
X132040211Y-97490643D01*
X132040208Y-97490645D01*
X132035700Y-97493802D01*
X131949907Y-97579595D01*
X131887595Y-97613621D01*
X131860812Y-97616500D01*
X122612450Y-97616500D01*
X122592739Y-97614949D01*
X122586009Y-97613883D01*
X122579493Y-97612851D01*
X122572905Y-97613196D01*
X122572901Y-97613196D01*
X122513162Y-97616327D01*
X122506568Y-97616500D01*
X122486694Y-97616500D01*
X122483421Y-97616844D01*
X122466929Y-97618577D01*
X122460354Y-97619094D01*
X122400624Y-97622224D01*
X122400620Y-97622225D01*
X122394029Y-97622570D01*
X122381071Y-97626042D01*
X122361628Y-97629645D01*
X122348298Y-97631046D01*
X122285106Y-97651578D01*
X122278804Y-97653444D01*
X122270385Y-97655700D01*
X122214637Y-97670638D01*
X122208758Y-97673634D01*
X122208749Y-97673637D01*
X122202683Y-97676728D01*
X122184421Y-97684292D01*
X122177957Y-97686392D01*
X122177949Y-97686395D01*
X122171669Y-97688436D01*
X122165950Y-97691738D01*
X122165945Y-97691740D01*
X122114133Y-97721654D01*
X122108363Y-97724787D01*
X122049161Y-97754953D01*
X122044029Y-97759109D01*
X122038741Y-97763391D01*
X122022448Y-97774589D01*
X122010831Y-97781296D01*
X122005925Y-97785713D01*
X122005920Y-97785717D01*
X121961462Y-97825747D01*
X121956446Y-97830031D01*
X121945688Y-97838743D01*
X121941014Y-97842528D01*
X121926969Y-97856573D01*
X121922184Y-97861114D01*
X121872815Y-97905566D01*
X121864925Y-97916426D01*
X121852088Y-97931454D01*
X121741606Y-98041936D01*
X121679294Y-98075962D01*
X121663491Y-98078362D01*
X121474629Y-98094885D01*
X121261924Y-98151880D01*
X121168562Y-98195415D01*
X121067334Y-98242618D01*
X121067329Y-98242621D01*
X121062347Y-98244944D01*
X121057840Y-98248100D01*
X121057838Y-98248101D01*
X120886473Y-98368092D01*
X120886470Y-98368094D01*
X120881962Y-98371251D01*
X120726251Y-98526962D01*
X120723094Y-98531470D01*
X120723092Y-98531473D01*
X120603101Y-98702838D01*
X120599944Y-98707347D01*
X120597621Y-98712329D01*
X120597618Y-98712334D01*
X120587794Y-98733402D01*
X120506880Y-98906924D01*
X120449885Y-99119629D01*
X120430693Y-99339000D01*
X120449885Y-99558371D01*
X120506880Y-99771076D01*
X120538534Y-99838959D01*
X120597618Y-99965666D01*
X120597621Y-99965671D01*
X120599944Y-99970653D01*
X120603100Y-99975160D01*
X120603101Y-99975162D01*
X120722059Y-100145051D01*
X120726251Y-100151038D01*
X120881962Y-100306749D01*
X120886471Y-100309906D01*
X120886473Y-100309908D01*
X120905496Y-100323228D01*
X121062346Y-100433056D01*
X121261924Y-100526120D01*
X121474629Y-100583115D01*
X121694000Y-100602307D01*
X121913371Y-100583115D01*
X122126076Y-100526120D01*
X122325654Y-100433056D01*
X122482504Y-100323228D01*
X122501527Y-100309908D01*
X122501529Y-100309906D01*
X122506038Y-100306749D01*
X122661749Y-100151038D01*
X122665942Y-100145051D01*
X122784899Y-99975162D01*
X122784900Y-99975160D01*
X122788056Y-99970653D01*
X122790379Y-99965671D01*
X122790382Y-99965666D01*
X122849466Y-99838959D01*
X122881120Y-99771076D01*
X122938115Y-99558371D01*
X122943351Y-99498518D01*
X122969214Y-99432401D01*
X123026717Y-99390761D01*
X123068872Y-99383500D01*
X131860812Y-99383500D01*
X131928933Y-99403502D01*
X131949907Y-99420405D01*
X132035700Y-99506198D01*
X132040208Y-99509355D01*
X132040211Y-99509357D01*
X132117794Y-99563681D01*
X132223251Y-99637523D01*
X132228233Y-99639846D01*
X132228238Y-99639849D01*
X132262457Y-99655805D01*
X132315742Y-99702722D01*
X132335203Y-99770999D01*
X132314661Y-99838959D01*
X132262457Y-99884195D01*
X132228238Y-99900151D01*
X132228233Y-99900154D01*
X132223251Y-99902477D01*
X132179140Y-99933364D01*
X132040211Y-100030643D01*
X132040208Y-100030645D01*
X132035700Y-100033802D01*
X131873802Y-100195700D01*
X131870645Y-100200208D01*
X131870643Y-100200211D01*
X131832293Y-100254981D01*
X131742477Y-100383251D01*
X131740154Y-100388233D01*
X131740151Y-100388238D01*
X131675193Y-100527543D01*
X131645716Y-100590757D01*
X131644294Y-100596065D01*
X131644293Y-100596067D01*
X131587881Y-100806598D01*
X131586457Y-100811913D01*
X131566502Y-101040000D01*
X131586457Y-101268087D01*
X131587881Y-101273400D01*
X131587881Y-101273402D01*
X131628486Y-101424939D01*
X131645716Y-101489243D01*
X131648039Y-101494224D01*
X131648039Y-101494225D01*
X131740151Y-101691762D01*
X131740154Y-101691767D01*
X131742477Y-101696749D01*
X131788169Y-101762004D01*
X131853782Y-101855708D01*
X131873802Y-101884300D01*
X132035700Y-102046198D01*
X132040208Y-102049355D01*
X132040211Y-102049357D01*
X132118389Y-102104098D01*
X132223251Y-102177523D01*
X132228233Y-102179846D01*
X132228238Y-102179849D01*
X132262457Y-102195805D01*
X132315742Y-102242722D01*
X132335203Y-102310999D01*
X132314661Y-102378959D01*
X132262457Y-102424195D01*
X132228238Y-102440151D01*
X132228233Y-102440154D01*
X132223251Y-102442477D01*
X132164596Y-102483548D01*
X132040211Y-102570643D01*
X132040208Y-102570645D01*
X132035700Y-102573802D01*
X131873802Y-102735700D01*
X131870645Y-102740208D01*
X131870643Y-102740211D01*
X131862300Y-102752126D01*
X131742477Y-102923251D01*
X131740154Y-102928233D01*
X131740151Y-102928238D01*
X131669638Y-103079456D01*
X131645716Y-103130757D01*
X131586457Y-103351913D01*
X131566502Y-103580000D01*
X131586457Y-103808087D01*
X131587881Y-103813400D01*
X131587881Y-103813402D01*
X131643821Y-104022169D01*
X131645716Y-104029243D01*
X131648039Y-104034224D01*
X131648039Y-104034225D01*
X131740151Y-104231762D01*
X131740154Y-104231767D01*
X131742477Y-104236749D01*
X131787480Y-104301020D01*
X131859591Y-104404004D01*
X131873802Y-104424300D01*
X132035700Y-104586198D01*
X132040208Y-104589355D01*
X132040211Y-104589357D01*
X132058623Y-104602249D01*
X132223251Y-104717523D01*
X132228233Y-104719846D01*
X132228238Y-104719849D01*
X132262457Y-104735805D01*
X132315742Y-104782722D01*
X132335203Y-104850999D01*
X132314661Y-104918959D01*
X132262457Y-104964195D01*
X132228238Y-104980151D01*
X132228233Y-104980154D01*
X132223251Y-104982477D01*
X132179140Y-105013364D01*
X132040211Y-105110643D01*
X132040208Y-105110645D01*
X132035700Y-105113802D01*
X131873802Y-105275700D01*
X131742477Y-105463251D01*
X131740154Y-105468233D01*
X131740151Y-105468238D01*
X131648039Y-105665775D01*
X131645716Y-105670757D01*
X131644294Y-105676065D01*
X131644293Y-105676067D01*
X131587881Y-105886598D01*
X131586457Y-105891913D01*
X131566502Y-106120000D01*
X131586457Y-106348087D01*
X131587881Y-106353400D01*
X131587881Y-106353402D01*
X131628486Y-106504939D01*
X131645716Y-106569243D01*
X131648039Y-106574224D01*
X131648039Y-106574225D01*
X131740151Y-106771762D01*
X131740154Y-106771767D01*
X131742477Y-106776749D01*
X131873802Y-106964300D01*
X132035700Y-107126198D01*
X132040208Y-107129355D01*
X132040211Y-107129357D01*
X132118389Y-107184098D01*
X132223251Y-107257523D01*
X132228233Y-107259846D01*
X132228238Y-107259849D01*
X132262457Y-107275805D01*
X132315742Y-107322722D01*
X132335203Y-107390999D01*
X132314661Y-107458959D01*
X132262457Y-107504195D01*
X132228238Y-107520151D01*
X132228233Y-107520154D01*
X132223251Y-107522477D01*
X132175491Y-107555919D01*
X132040211Y-107650643D01*
X132040208Y-107650645D01*
X132035700Y-107653802D01*
X131873802Y-107815700D01*
X131742477Y-108003251D01*
X131740154Y-108008233D01*
X131740151Y-108008238D01*
X131648039Y-108205775D01*
X131645716Y-108210757D01*
X131586457Y-108431913D01*
X131566502Y-108660000D01*
X131586457Y-108888087D01*
X131645716Y-109109243D01*
X131648039Y-109114224D01*
X131648039Y-109114225D01*
X131740151Y-109311762D01*
X131740154Y-109311767D01*
X131742477Y-109316749D01*
X131873802Y-109504300D01*
X132035700Y-109666198D01*
X132040208Y-109669355D01*
X132040211Y-109669357D01*
X132104625Y-109714460D01*
X132223251Y-109797523D01*
X132369868Y-109865891D01*
X132392201Y-109876305D01*
X132445486Y-109923222D01*
X132464947Y-109991499D01*
X132444405Y-110059459D01*
X132390383Y-110105525D01*
X132338951Y-110116500D01*
X118009500Y-110116500D01*
X117941379Y-110096498D01*
X117894886Y-110042842D01*
X117883500Y-109990500D01*
X117883500Y-89418148D01*
X117903502Y-89350027D01*
X117920405Y-89329053D01*
X117989053Y-89260405D01*
X118051365Y-89226379D01*
X118078148Y-89223500D01*
X131860812Y-89223500D01*
X131928933Y-89243502D01*
X131949907Y-89260405D01*
X132035700Y-89346198D01*
X132040208Y-89349355D01*
X132040211Y-89349357D01*
X132041168Y-89350027D01*
X132223251Y-89477523D01*
X132228233Y-89479846D01*
X132228238Y-89479849D01*
X132262457Y-89495805D01*
X132315742Y-89542722D01*
X132335203Y-89610999D01*
X132314661Y-89678959D01*
X132262457Y-89724195D01*
X132228238Y-89740151D01*
X132228233Y-89740154D01*
X132223251Y-89742477D01*
X132118389Y-89815902D01*
X132040211Y-89870643D01*
X132040208Y-89870645D01*
X132035700Y-89873802D01*
X131949907Y-89959595D01*
X131887595Y-89993621D01*
X131860812Y-89996500D01*
X128199457Y-89996500D01*
X128179745Y-89994949D01*
X128173008Y-89993882D01*
X128173009Y-89993882D01*
X128166493Y-89992850D01*
X128159906Y-89993195D01*
X128159902Y-89993195D01*
X128100150Y-89996327D01*
X128093555Y-89996500D01*
X128073694Y-89996500D01*
X128053931Y-89998577D01*
X128047372Y-89999093D01*
X128031573Y-89999921D01*
X127987623Y-90002224D01*
X127987619Y-90002225D01*
X127981029Y-90002570D01*
X127968071Y-90006042D01*
X127948628Y-90009645D01*
X127935298Y-90011046D01*
X127872106Y-90031578D01*
X127865804Y-90033444D01*
X127812328Y-90047773D01*
X127801637Y-90050638D01*
X127795758Y-90053634D01*
X127795749Y-90053637D01*
X127789683Y-90056728D01*
X127771421Y-90064292D01*
X127764958Y-90066392D01*
X127764953Y-90066394D01*
X127758669Y-90068436D01*
X127701119Y-90101663D01*
X127695366Y-90104786D01*
X127636161Y-90134952D01*
X127631027Y-90139109D01*
X127631026Y-90139110D01*
X127625737Y-90143393D01*
X127609449Y-90154588D01*
X127597831Y-90161296D01*
X127555447Y-90199459D01*
X127542981Y-90208514D01*
X127543248Y-90208882D01*
X127388747Y-90321134D01*
X127260960Y-90463056D01*
X127257659Y-90468774D01*
X127168848Y-90622599D01*
X127165473Y-90628444D01*
X127106458Y-90810072D01*
X127086496Y-91000000D01*
X127106458Y-91189928D01*
X127165473Y-91371556D01*
X127260960Y-91536944D01*
X127265378Y-91541851D01*
X127265379Y-91541852D01*
X127384325Y-91673955D01*
X127388747Y-91678866D01*
X127451281Y-91724300D01*
X127532766Y-91783502D01*
X127543248Y-91791118D01*
X127549276Y-91793802D01*
X127549278Y-91793803D01*
X127700271Y-91861029D01*
X127717712Y-91868794D01*
X127799591Y-91886198D01*
X127898056Y-91907128D01*
X127898061Y-91907128D01*
X127904513Y-91908500D01*
X128095487Y-91908500D01*
X128101939Y-91907128D01*
X128101944Y-91907128D01*
X128200409Y-91886198D01*
X128282288Y-91868794D01*
X128299729Y-91861029D01*
X128450722Y-91793803D01*
X128450724Y-91793802D01*
X128456752Y-91791118D01*
X128462093Y-91787237D01*
X128467811Y-91783936D01*
X128468600Y-91785302D01*
X128535705Y-91763500D01*
X131860812Y-91763500D01*
X131928933Y-91783502D01*
X131949907Y-91800405D01*
X132035700Y-91886198D01*
X132040208Y-91889355D01*
X132040211Y-91889357D01*
X132065591Y-91907128D01*
X132223251Y-92017523D01*
X132228233Y-92019846D01*
X132228238Y-92019849D01*
X132263049Y-92036081D01*
X132316334Y-92082998D01*
X132335795Y-92151275D01*
X132315253Y-92219235D01*
X132263049Y-92264471D01*
X132228489Y-92280586D01*
X132218993Y-92286069D01*
X132040533Y-92411028D01*
X132032125Y-92418084D01*
X131878084Y-92572125D01*
X131871028Y-92580533D01*
X131746069Y-92758993D01*
X131740586Y-92768489D01*
X131648510Y-92965947D01*
X131644764Y-92976239D01*
X131598606Y-93148503D01*
X131598942Y-93162599D01*
X131606884Y-93166000D01*
X134147967Y-93166000D01*
X134161498Y-93162027D01*
X134162727Y-93153478D01*
X134115236Y-92976239D01*
X134111490Y-92965947D01*
X134019414Y-92768489D01*
X134013931Y-92758993D01*
X133888972Y-92580533D01*
X133881916Y-92572125D01*
X133727875Y-92418084D01*
X133719467Y-92411028D01*
X133541007Y-92286069D01*
X133531511Y-92280586D01*
X133496951Y-92264471D01*
X133443666Y-92217554D01*
X133424205Y-92149277D01*
X133444747Y-92081317D01*
X133496951Y-92036081D01*
X133531762Y-92019849D01*
X133531767Y-92019846D01*
X133536749Y-92017523D01*
X133694409Y-91907128D01*
X133719789Y-91889357D01*
X133719792Y-91889355D01*
X133724300Y-91886198D01*
X133886198Y-91724300D01*
X133915293Y-91682749D01*
X133972678Y-91600794D01*
X134017523Y-91536749D01*
X134019846Y-91531767D01*
X134019849Y-91531762D01*
X134111961Y-91334225D01*
X134111961Y-91334224D01*
X134114284Y-91329243D01*
X134135527Y-91249966D01*
X134172119Y-91113402D01*
X134172119Y-91113400D01*
X134173543Y-91108087D01*
X134193498Y-90880000D01*
X134173543Y-90651913D01*
X134168939Y-90634729D01*
X134115707Y-90436067D01*
X134115706Y-90436065D01*
X134114284Y-90430757D01*
X134069044Y-90333739D01*
X134019849Y-90228238D01*
X134019846Y-90228233D01*
X134017523Y-90223251D01*
X133907689Y-90066392D01*
X133889357Y-90040211D01*
X133889355Y-90040208D01*
X133886198Y-90035700D01*
X133724300Y-89873802D01*
X133719792Y-89870645D01*
X133719789Y-89870643D01*
X133641611Y-89815902D01*
X133536749Y-89742477D01*
X133531767Y-89740154D01*
X133531762Y-89740151D01*
X133497543Y-89724195D01*
X133444258Y-89677278D01*
X133424797Y-89609001D01*
X133445339Y-89541041D01*
X133497543Y-89495805D01*
X133531762Y-89479849D01*
X133531767Y-89479846D01*
X133536749Y-89477523D01*
X133718832Y-89350027D01*
X133719789Y-89349357D01*
X133719792Y-89349355D01*
X133724300Y-89346198D01*
X133886198Y-89184300D01*
X134017523Y-88996749D01*
X134019846Y-88991767D01*
X134019849Y-88991762D01*
X134111961Y-88794225D01*
X134111961Y-88794224D01*
X134114284Y-88789243D01*
X134125071Y-88748988D01*
X134172119Y-88573402D01*
X134172119Y-88573400D01*
X134173543Y-88568087D01*
X134193498Y-88340000D01*
X139186502Y-88340000D01*
X139206457Y-88568087D01*
X139207881Y-88573400D01*
X139207881Y-88573402D01*
X139254930Y-88748988D01*
X139265716Y-88789243D01*
X139268039Y-88794224D01*
X139268039Y-88794225D01*
X139360151Y-88991762D01*
X139360154Y-88991767D01*
X139362477Y-88996749D01*
X139493802Y-89184300D01*
X139655700Y-89346198D01*
X139660208Y-89349355D01*
X139660211Y-89349357D01*
X139661168Y-89350027D01*
X139843251Y-89477523D01*
X139848233Y-89479846D01*
X139848238Y-89479849D01*
X139883049Y-89496081D01*
X139936334Y-89542998D01*
X139955795Y-89611275D01*
X139935253Y-89679235D01*
X139883049Y-89724471D01*
X139848489Y-89740586D01*
X139838993Y-89746069D01*
X139660533Y-89871028D01*
X139652125Y-89878084D01*
X139498084Y-90032125D01*
X139491028Y-90040533D01*
X139366069Y-90218993D01*
X139360586Y-90228489D01*
X139268510Y-90425947D01*
X139264764Y-90436239D01*
X139218606Y-90608503D01*
X139218942Y-90622599D01*
X139226884Y-90626000D01*
X141767967Y-90626000D01*
X141781498Y-90622027D01*
X141782727Y-90613478D01*
X141735236Y-90436239D01*
X141731490Y-90425947D01*
X141639414Y-90228489D01*
X141633931Y-90218993D01*
X141508972Y-90040533D01*
X141501916Y-90032125D01*
X141347875Y-89878084D01*
X141339467Y-89871028D01*
X141161007Y-89746069D01*
X141151511Y-89740586D01*
X141116951Y-89724471D01*
X141063666Y-89677554D01*
X141044205Y-89609277D01*
X141064747Y-89541317D01*
X141116951Y-89496081D01*
X141151762Y-89479849D01*
X141151767Y-89479846D01*
X141156749Y-89477523D01*
X141338832Y-89350027D01*
X141339789Y-89349357D01*
X141339792Y-89349355D01*
X141344300Y-89346198D01*
X141506198Y-89184300D01*
X141637523Y-88996749D01*
X141639846Y-88991767D01*
X141639849Y-88991762D01*
X141731961Y-88794225D01*
X141731961Y-88794224D01*
X141734284Y-88789243D01*
X141745071Y-88748988D01*
X141792119Y-88573402D01*
X141792119Y-88573400D01*
X141793543Y-88568087D01*
X141813498Y-88340000D01*
X141793543Y-88111913D01*
X141734284Y-87890757D01*
X141730900Y-87883500D01*
X141639849Y-87688238D01*
X141639846Y-87688233D01*
X141637523Y-87683251D01*
X141527689Y-87526392D01*
X141509357Y-87500211D01*
X141509355Y-87500208D01*
X141506198Y-87495700D01*
X141344300Y-87333802D01*
X141339792Y-87330645D01*
X141339789Y-87330643D01*
X141261611Y-87275902D01*
X141156749Y-87202477D01*
X141151767Y-87200154D01*
X141151762Y-87200151D01*
X141117543Y-87184195D01*
X141064258Y-87137278D01*
X141044797Y-87069001D01*
X141065339Y-87001041D01*
X141117543Y-86955805D01*
X141151762Y-86939849D01*
X141151767Y-86939846D01*
X141156749Y-86937523D01*
X141261611Y-86864098D01*
X141339789Y-86809357D01*
X141339792Y-86809355D01*
X141344300Y-86806198D01*
X141506198Y-86644300D01*
X141637523Y-86456749D01*
X141639846Y-86451767D01*
X141639849Y-86451762D01*
X141731961Y-86254225D01*
X141731961Y-86254224D01*
X141734284Y-86249243D01*
X141741236Y-86223300D01*
X141792119Y-86033402D01*
X141792119Y-86033400D01*
X141793543Y-86028087D01*
X141813498Y-85800000D01*
X141793543Y-85571913D01*
X141769515Y-85482240D01*
X141735707Y-85356067D01*
X141735706Y-85356065D01*
X141734284Y-85350757D01*
X141664695Y-85201522D01*
X141639849Y-85148238D01*
X141639846Y-85148233D01*
X141637523Y-85143251D01*
X141537217Y-85000000D01*
X141509357Y-84960211D01*
X141509355Y-84960208D01*
X141506198Y-84955700D01*
X141344300Y-84793802D01*
X141339792Y-84790645D01*
X141339789Y-84790643D01*
X141261611Y-84735902D01*
X141156749Y-84662477D01*
X141151767Y-84660154D01*
X141151762Y-84660151D01*
X141117543Y-84644195D01*
X141064258Y-84597278D01*
X141044797Y-84529001D01*
X141065339Y-84461041D01*
X141117543Y-84415805D01*
X141151762Y-84399849D01*
X141151767Y-84399846D01*
X141156749Y-84397523D01*
X141261611Y-84324098D01*
X141339789Y-84269357D01*
X141339792Y-84269355D01*
X141344300Y-84266198D01*
X141506198Y-84104300D01*
X141637523Y-83916749D01*
X141639846Y-83911767D01*
X141639849Y-83911762D01*
X141731961Y-83714225D01*
X141731961Y-83714224D01*
X141734284Y-83709243D01*
X141790882Y-83498020D01*
X141792119Y-83493402D01*
X141792119Y-83493400D01*
X141793543Y-83488087D01*
X141813498Y-83260000D01*
X141793543Y-83031913D01*
X141787820Y-83010554D01*
X141735707Y-82816067D01*
X141735706Y-82816065D01*
X141734284Y-82810757D01*
X141731961Y-82805775D01*
X141639849Y-82608238D01*
X141639846Y-82608233D01*
X141637523Y-82603251D01*
X141528110Y-82446993D01*
X141509357Y-82420211D01*
X141509355Y-82420208D01*
X141506198Y-82415700D01*
X141344300Y-82253802D01*
X141339792Y-82250645D01*
X141339789Y-82250643D01*
X141261611Y-82195902D01*
X141156749Y-82122477D01*
X141151767Y-82120154D01*
X141151762Y-82120151D01*
X141117543Y-82104195D01*
X141064258Y-82057278D01*
X141044797Y-81989001D01*
X141065339Y-81921041D01*
X141117543Y-81875805D01*
X141151762Y-81859849D01*
X141151767Y-81859846D01*
X141156749Y-81857523D01*
X141261611Y-81784098D01*
X141339789Y-81729357D01*
X141339792Y-81729355D01*
X141344300Y-81726198D01*
X141506198Y-81564300D01*
X141526219Y-81535708D01*
X141585975Y-81450367D01*
X141637523Y-81376749D01*
X141639846Y-81371767D01*
X141639849Y-81371762D01*
X141731961Y-81174225D01*
X141731961Y-81174224D01*
X141734284Y-81169243D01*
X141793543Y-80948087D01*
X141813498Y-80720000D01*
X141793543Y-80491913D01*
X141734284Y-80270757D01*
X141647665Y-80085000D01*
X141639849Y-80068238D01*
X141639846Y-80068233D01*
X141637523Y-80063251D01*
X141506198Y-79875700D01*
X141344300Y-79713802D01*
X141339792Y-79710645D01*
X141339789Y-79710643D01*
X141261611Y-79655902D01*
X141156749Y-79582477D01*
X141151767Y-79580154D01*
X141151762Y-79580151D01*
X141117543Y-79564195D01*
X141064258Y-79517278D01*
X141044797Y-79449001D01*
X141065339Y-79381041D01*
X141117543Y-79335805D01*
X141151762Y-79319849D01*
X141151767Y-79319846D01*
X141156749Y-79317523D01*
X141322418Y-79201520D01*
X141339789Y-79189357D01*
X141339792Y-79189355D01*
X141344300Y-79186198D01*
X141506198Y-79024300D01*
X141526219Y-78995708D01*
X141567166Y-78937229D01*
X141622623Y-78892901D01*
X141670379Y-78883500D01*
X147273653Y-78883500D01*
X147299850Y-78886253D01*
X147398056Y-78907128D01*
X147398061Y-78907128D01*
X147404513Y-78908500D01*
X147595487Y-78908500D01*
X147601939Y-78907128D01*
X147601944Y-78907128D01*
X147700150Y-78886253D01*
X147782288Y-78868794D01*
X147824570Y-78849969D01*
X147950722Y-78793803D01*
X147950724Y-78793802D01*
X147956752Y-78791118D01*
X147977229Y-78776241D01*
X148101702Y-78685805D01*
X148111253Y-78678866D01*
X148139560Y-78647428D01*
X148234621Y-78541852D01*
X148234622Y-78541851D01*
X148239040Y-78536944D01*
X148334527Y-78371556D01*
X148393542Y-78189928D01*
X148394586Y-78180000D01*
X148412814Y-78006565D01*
X148413504Y-78000000D01*
X148399025Y-77862240D01*
X148394232Y-77816635D01*
X148394232Y-77816633D01*
X148393542Y-77810072D01*
X148334527Y-77628444D01*
X148330317Y-77621151D01*
X148288993Y-77549577D01*
X148239040Y-77463056D01*
X148152601Y-77367055D01*
X148115675Y-77326045D01*
X148115674Y-77326044D01*
X148111253Y-77321134D01*
X147956752Y-77208882D01*
X147950724Y-77206198D01*
X147950722Y-77206197D01*
X147788319Y-77133891D01*
X147788318Y-77133891D01*
X147782288Y-77131206D01*
X147688888Y-77111353D01*
X147601944Y-77092872D01*
X147601939Y-77092872D01*
X147595487Y-77091500D01*
X147404513Y-77091500D01*
X147398061Y-77092872D01*
X147398056Y-77092872D01*
X147299850Y-77113747D01*
X147273653Y-77116500D01*
X141302192Y-77116500D01*
X141229921Y-77093713D01*
X141190427Y-77066059D01*
X141156749Y-77042477D01*
X141151767Y-77040154D01*
X141151762Y-77040151D01*
X141117543Y-77024195D01*
X141064258Y-76977278D01*
X141044797Y-76909001D01*
X141065339Y-76841041D01*
X141117543Y-76795805D01*
X141151762Y-76779849D01*
X141151767Y-76779846D01*
X141156749Y-76777523D01*
X141308955Y-76670947D01*
X141339789Y-76649357D01*
X141339792Y-76649355D01*
X141344300Y-76646198D01*
X141430093Y-76560405D01*
X141492405Y-76526379D01*
X141519188Y-76523500D01*
X153280543Y-76523500D01*
X153300255Y-76525051D01*
X153313507Y-76527150D01*
X153320094Y-76526805D01*
X153320098Y-76526805D01*
X153379850Y-76523673D01*
X153386445Y-76523500D01*
X153406306Y-76523500D01*
X153426069Y-76521423D01*
X153432628Y-76520907D01*
X153448427Y-76520079D01*
X153492377Y-76517776D01*
X153492381Y-76517775D01*
X153498971Y-76517430D01*
X153511929Y-76513958D01*
X153531372Y-76510355D01*
X153531795Y-76510311D01*
X153544702Y-76508954D01*
X153607894Y-76488422D01*
X153614196Y-76486556D01*
X153671985Y-76471071D01*
X153678363Y-76469362D01*
X153684242Y-76466366D01*
X153684251Y-76466363D01*
X153690317Y-76463272D01*
X153708579Y-76455708D01*
X153715043Y-76453608D01*
X153715051Y-76453605D01*
X153721331Y-76451564D01*
X153727050Y-76448262D01*
X153727055Y-76448260D01*
X153778867Y-76418346D01*
X153784637Y-76415213D01*
X153843839Y-76385047D01*
X153854259Y-76376609D01*
X153870552Y-76365411D01*
X153870903Y-76365209D01*
X153882169Y-76358704D01*
X153887075Y-76354287D01*
X153887080Y-76354283D01*
X153931538Y-76314253D01*
X153936554Y-76309969D01*
X153949409Y-76299559D01*
X153949412Y-76299556D01*
X153951986Y-76297472D01*
X153966031Y-76283427D01*
X153970816Y-76278886D01*
X154015274Y-76238856D01*
X154015275Y-76238855D01*
X154020185Y-76234434D01*
X154028075Y-76223574D01*
X154040912Y-76208546D01*
X154955545Y-75293913D01*
X154970579Y-75281072D01*
X154996327Y-75262365D01*
X155111253Y-75178866D01*
X155227665Y-75049577D01*
X155234621Y-75041852D01*
X155234622Y-75041851D01*
X155239040Y-75036944D01*
X155334527Y-74871556D01*
X155393542Y-74689928D01*
X155399032Y-74637699D01*
X155412814Y-74506565D01*
X155413504Y-74500000D01*
X155403839Y-74408039D01*
X155394232Y-74316635D01*
X155394232Y-74316633D01*
X155393542Y-74310072D01*
X155334527Y-74128444D01*
X155239040Y-73963056D01*
X155195335Y-73914516D01*
X155115675Y-73826045D01*
X155115674Y-73826044D01*
X155111253Y-73821134D01*
X154956752Y-73708882D01*
X154950724Y-73706198D01*
X154950722Y-73706197D01*
X154788319Y-73633891D01*
X154788318Y-73633891D01*
X154782288Y-73631206D01*
X154688888Y-73611353D01*
X154601944Y-73592872D01*
X154601939Y-73592872D01*
X154595487Y-73591500D01*
X154404513Y-73591500D01*
X154398061Y-73592872D01*
X154398056Y-73592872D01*
X154311112Y-73611353D01*
X154217712Y-73631206D01*
X154211682Y-73633891D01*
X154211681Y-73633891D01*
X154049278Y-73706197D01*
X154049276Y-73706198D01*
X154043248Y-73708882D01*
X153888747Y-73821134D01*
X153884326Y-73826044D01*
X153884325Y-73826045D01*
X153804666Y-73914516D01*
X153760960Y-73963056D01*
X153746458Y-73988174D01*
X153733018Y-74011453D01*
X153712994Y-74037548D01*
X153030947Y-74719595D01*
X152968635Y-74753621D01*
X152941852Y-74756500D01*
X141519188Y-74756500D01*
X141451067Y-74736498D01*
X141430093Y-74719595D01*
X141344300Y-74633802D01*
X141339792Y-74630645D01*
X141339789Y-74630643D01*
X141162587Y-74506565D01*
X141156749Y-74502477D01*
X141151767Y-74500154D01*
X141151762Y-74500151D01*
X140954225Y-74408039D01*
X140954224Y-74408039D01*
X140949243Y-74405716D01*
X140943935Y-74404294D01*
X140943933Y-74404293D01*
X140733402Y-74347881D01*
X140733400Y-74347881D01*
X140728087Y-74346457D01*
X140500000Y-74326502D01*
X140271913Y-74346457D01*
X140266600Y-74347881D01*
X140266598Y-74347881D01*
X140056067Y-74404293D01*
X140056065Y-74404294D01*
X140050757Y-74405716D01*
X140045776Y-74408039D01*
X140045775Y-74408039D01*
X139848238Y-74500151D01*
X139848233Y-74500154D01*
X139843251Y-74502477D01*
X139837413Y-74506565D01*
X139660211Y-74630643D01*
X139660208Y-74630645D01*
X139655700Y-74633802D01*
X139493802Y-74795700D01*
X139490645Y-74800208D01*
X139490643Y-74800211D01*
X139473482Y-74824720D01*
X139362477Y-74983251D01*
X139360154Y-74988233D01*
X139360151Y-74988238D01*
X139292939Y-75132377D01*
X139265716Y-75190757D01*
X139264294Y-75196065D01*
X139264293Y-75196067D01*
X139218477Y-75367055D01*
X139206457Y-75411913D01*
X139186502Y-75640000D01*
X139206457Y-75868087D01*
X139207881Y-75873400D01*
X139207881Y-75873402D01*
X139261259Y-76072608D01*
X139265716Y-76089243D01*
X139268039Y-76094224D01*
X139268039Y-76094225D01*
X139360151Y-76291762D01*
X139360154Y-76291767D01*
X139362477Y-76296749D01*
X139417712Y-76375632D01*
X139473782Y-76455708D01*
X139493802Y-76484300D01*
X139655700Y-76646198D01*
X139660208Y-76649355D01*
X139660211Y-76649357D01*
X139691045Y-76670947D01*
X139843251Y-76777523D01*
X139848233Y-76779846D01*
X139848238Y-76779849D01*
X139882457Y-76795805D01*
X139935742Y-76842722D01*
X139955203Y-76910999D01*
X139934661Y-76978959D01*
X139882457Y-77024195D01*
X139848238Y-77040151D01*
X139848233Y-77040154D01*
X139843251Y-77042477D01*
X139748768Y-77108635D01*
X139660211Y-77170643D01*
X139660208Y-77170645D01*
X139655700Y-77173802D01*
X139493802Y-77335700D01*
X139490645Y-77340208D01*
X139490643Y-77340211D01*
X139475855Y-77361331D01*
X139362477Y-77523251D01*
X139360154Y-77528233D01*
X139360151Y-77528238D01*
X139268039Y-77725775D01*
X139265716Y-77730757D01*
X139264294Y-77736065D01*
X139264293Y-77736067D01*
X139207886Y-77946579D01*
X139206457Y-77951913D01*
X139186502Y-78180000D01*
X139206457Y-78408087D01*
X139207881Y-78413400D01*
X139207881Y-78413402D01*
X139261259Y-78612608D01*
X139265716Y-78629243D01*
X139268039Y-78634224D01*
X139268039Y-78634225D01*
X139360151Y-78831762D01*
X139360154Y-78831767D01*
X139362477Y-78836749D01*
X139417712Y-78915632D01*
X139473782Y-78995708D01*
X139493802Y-79024300D01*
X139655700Y-79186198D01*
X139660208Y-79189355D01*
X139660211Y-79189357D01*
X139677582Y-79201520D01*
X139843251Y-79317523D01*
X139848233Y-79319846D01*
X139848238Y-79319849D01*
X139882457Y-79335805D01*
X139935742Y-79382722D01*
X139955203Y-79450999D01*
X139934661Y-79518959D01*
X139882457Y-79564195D01*
X139848238Y-79580151D01*
X139848233Y-79580154D01*
X139843251Y-79582477D01*
X139738389Y-79655902D01*
X139660211Y-79710643D01*
X139660208Y-79710645D01*
X139655700Y-79713802D01*
X139493802Y-79875700D01*
X139362477Y-80063251D01*
X139360154Y-80068233D01*
X139360151Y-80068238D01*
X139352335Y-80085000D01*
X139265716Y-80270757D01*
X139206457Y-80491913D01*
X139186502Y-80720000D01*
X139206457Y-80948087D01*
X139265716Y-81169243D01*
X139268039Y-81174224D01*
X139268039Y-81174225D01*
X139360151Y-81371762D01*
X139360154Y-81371767D01*
X139362477Y-81376749D01*
X139414025Y-81450367D01*
X139473782Y-81535708D01*
X139493802Y-81564300D01*
X139655700Y-81726198D01*
X139660208Y-81729355D01*
X139660211Y-81729357D01*
X139738389Y-81784098D01*
X139843251Y-81857523D01*
X139848233Y-81859846D01*
X139848238Y-81859849D01*
X139882457Y-81875805D01*
X139935742Y-81922722D01*
X139955203Y-81990999D01*
X139934661Y-82058959D01*
X139882457Y-82104195D01*
X139848238Y-82120151D01*
X139848233Y-82120154D01*
X139843251Y-82122477D01*
X139738389Y-82195902D01*
X139660211Y-82250643D01*
X139660208Y-82250645D01*
X139655700Y-82253802D01*
X139493802Y-82415700D01*
X139490645Y-82420208D01*
X139490643Y-82420211D01*
X139471890Y-82446993D01*
X139362477Y-82603251D01*
X139360154Y-82608233D01*
X139360151Y-82608238D01*
X139268039Y-82805775D01*
X139265716Y-82810757D01*
X139264294Y-82816065D01*
X139264293Y-82816067D01*
X139212180Y-83010554D01*
X139206457Y-83031913D01*
X139186502Y-83260000D01*
X139206457Y-83488087D01*
X139207881Y-83493400D01*
X139207881Y-83493402D01*
X139209119Y-83498020D01*
X139265716Y-83709243D01*
X139268039Y-83714224D01*
X139268039Y-83714225D01*
X139360151Y-83911762D01*
X139360154Y-83911767D01*
X139362477Y-83916749D01*
X139493802Y-84104300D01*
X139655700Y-84266198D01*
X139660208Y-84269355D01*
X139660211Y-84269357D01*
X139738389Y-84324098D01*
X139843251Y-84397523D01*
X139848233Y-84399846D01*
X139848238Y-84399849D01*
X139882457Y-84415805D01*
X139935742Y-84462722D01*
X139955203Y-84530999D01*
X139934661Y-84598959D01*
X139882457Y-84644195D01*
X139848238Y-84660151D01*
X139848233Y-84660154D01*
X139843251Y-84662477D01*
X139738389Y-84735902D01*
X139660211Y-84790643D01*
X139660208Y-84790645D01*
X139655700Y-84793802D01*
X139493802Y-84955700D01*
X139490645Y-84960208D01*
X139490643Y-84960211D01*
X139462783Y-85000000D01*
X139362477Y-85143251D01*
X139360154Y-85148233D01*
X139360151Y-85148238D01*
X139335305Y-85201522D01*
X139265716Y-85350757D01*
X139264294Y-85356065D01*
X139264293Y-85356067D01*
X139230485Y-85482240D01*
X139206457Y-85571913D01*
X139186502Y-85800000D01*
X139206457Y-86028087D01*
X139207881Y-86033400D01*
X139207881Y-86033402D01*
X139258765Y-86223300D01*
X139265716Y-86249243D01*
X139268039Y-86254224D01*
X139268039Y-86254225D01*
X139360151Y-86451762D01*
X139360154Y-86451767D01*
X139362477Y-86456749D01*
X139493802Y-86644300D01*
X139655700Y-86806198D01*
X139660208Y-86809355D01*
X139660211Y-86809357D01*
X139738389Y-86864098D01*
X139843251Y-86937523D01*
X139848233Y-86939846D01*
X139848238Y-86939849D01*
X139882457Y-86955805D01*
X139935742Y-87002722D01*
X139955203Y-87070999D01*
X139934661Y-87138959D01*
X139882457Y-87184195D01*
X139848238Y-87200151D01*
X139848233Y-87200154D01*
X139843251Y-87202477D01*
X139738389Y-87275902D01*
X139660211Y-87330643D01*
X139660208Y-87330645D01*
X139655700Y-87333802D01*
X139493802Y-87495700D01*
X139490645Y-87500208D01*
X139490643Y-87500211D01*
X139472311Y-87526392D01*
X139362477Y-87683251D01*
X139360154Y-87688233D01*
X139360151Y-87688238D01*
X139269100Y-87883500D01*
X139265716Y-87890757D01*
X139206457Y-88111913D01*
X139186502Y-88340000D01*
X134193498Y-88340000D01*
X134173543Y-88111913D01*
X134114284Y-87890757D01*
X134110900Y-87883500D01*
X134019849Y-87688238D01*
X134019846Y-87688233D01*
X134017523Y-87683251D01*
X133907689Y-87526392D01*
X133889357Y-87500211D01*
X133889355Y-87500208D01*
X133886198Y-87495700D01*
X133724300Y-87333802D01*
X133719792Y-87330645D01*
X133719789Y-87330643D01*
X133641611Y-87275902D01*
X133536749Y-87202477D01*
X133531767Y-87200154D01*
X133531762Y-87200151D01*
X133497543Y-87184195D01*
X133444258Y-87137278D01*
X133424797Y-87069001D01*
X133445339Y-87001041D01*
X133497543Y-86955805D01*
X133531762Y-86939849D01*
X133531767Y-86939846D01*
X133536749Y-86937523D01*
X133641611Y-86864098D01*
X133719789Y-86809357D01*
X133719792Y-86809355D01*
X133724300Y-86806198D01*
X133886198Y-86644300D01*
X134017523Y-86456749D01*
X134019846Y-86451767D01*
X134019849Y-86451762D01*
X134111961Y-86254225D01*
X134111961Y-86254224D01*
X134114284Y-86249243D01*
X134121236Y-86223300D01*
X134172119Y-86033402D01*
X134172119Y-86033400D01*
X134173543Y-86028087D01*
X134193498Y-85800000D01*
X134173543Y-85571913D01*
X134149515Y-85482240D01*
X134115707Y-85356067D01*
X134115706Y-85356065D01*
X134114284Y-85350757D01*
X134044695Y-85201522D01*
X134019849Y-85148238D01*
X134019846Y-85148233D01*
X134017523Y-85143251D01*
X133917217Y-85000000D01*
X133889357Y-84960211D01*
X133889355Y-84960208D01*
X133886198Y-84955700D01*
X133724300Y-84793802D01*
X133719792Y-84790645D01*
X133719789Y-84790643D01*
X133641611Y-84735902D01*
X133536749Y-84662477D01*
X133531767Y-84660154D01*
X133531762Y-84660151D01*
X133497543Y-84644195D01*
X133444258Y-84597278D01*
X133424797Y-84529001D01*
X133445339Y-84461041D01*
X133497543Y-84415805D01*
X133531762Y-84399849D01*
X133531767Y-84399846D01*
X133536749Y-84397523D01*
X133641611Y-84324098D01*
X133719789Y-84269357D01*
X133719792Y-84269355D01*
X133724300Y-84266198D01*
X133886198Y-84104300D01*
X134017523Y-83916749D01*
X134019846Y-83911767D01*
X134019849Y-83911762D01*
X134111961Y-83714225D01*
X134111961Y-83714224D01*
X134114284Y-83709243D01*
X134170882Y-83498020D01*
X134172119Y-83493402D01*
X134172119Y-83493400D01*
X134173543Y-83488087D01*
X134193498Y-83260000D01*
X134173543Y-83031913D01*
X134167820Y-83010554D01*
X134115707Y-82816067D01*
X134115706Y-82816065D01*
X134114284Y-82810757D01*
X134111961Y-82805775D01*
X134019849Y-82608238D01*
X134019846Y-82608233D01*
X134017523Y-82603251D01*
X133908110Y-82446993D01*
X133889357Y-82420211D01*
X133889355Y-82420208D01*
X133886198Y-82415700D01*
X133724300Y-82253802D01*
X133719792Y-82250645D01*
X133719789Y-82250643D01*
X133641611Y-82195902D01*
X133536749Y-82122477D01*
X133531767Y-82120154D01*
X133531762Y-82120151D01*
X133497543Y-82104195D01*
X133444258Y-82057278D01*
X133424797Y-81989001D01*
X133445339Y-81921041D01*
X133497543Y-81875805D01*
X133531762Y-81859849D01*
X133531767Y-81859846D01*
X133536749Y-81857523D01*
X133641611Y-81784098D01*
X133719789Y-81729357D01*
X133719792Y-81729355D01*
X133724300Y-81726198D01*
X133886198Y-81564300D01*
X133906219Y-81535708D01*
X133965975Y-81450367D01*
X134017523Y-81376749D01*
X134019846Y-81371767D01*
X134019849Y-81371762D01*
X134111961Y-81174225D01*
X134111961Y-81174224D01*
X134114284Y-81169243D01*
X134173543Y-80948087D01*
X134193498Y-80720000D01*
X134173543Y-80491913D01*
X134114284Y-80270757D01*
X134027665Y-80085000D01*
X134019849Y-80068238D01*
X134019846Y-80068233D01*
X134017523Y-80063251D01*
X133886198Y-79875700D01*
X133724300Y-79713802D01*
X133719792Y-79710645D01*
X133719789Y-79710643D01*
X133641611Y-79655902D01*
X133536749Y-79582477D01*
X133531767Y-79580154D01*
X133531762Y-79580151D01*
X133497543Y-79564195D01*
X133444258Y-79517278D01*
X133424797Y-79449001D01*
X133445339Y-79381041D01*
X133497543Y-79335805D01*
X133531762Y-79319849D01*
X133531767Y-79319846D01*
X133536749Y-79317523D01*
X133702418Y-79201520D01*
X133719789Y-79189357D01*
X133719792Y-79189355D01*
X133724300Y-79186198D01*
X133886198Y-79024300D01*
X133906219Y-78995708D01*
X133962288Y-78915632D01*
X134017523Y-78836749D01*
X134019846Y-78831767D01*
X134019849Y-78831762D01*
X134111961Y-78634225D01*
X134111961Y-78634224D01*
X134114284Y-78629243D01*
X134118742Y-78612608D01*
X134172119Y-78413402D01*
X134172119Y-78413400D01*
X134173543Y-78408087D01*
X134193498Y-78180000D01*
X134173543Y-77951913D01*
X134172114Y-77946579D01*
X134115707Y-77736067D01*
X134115706Y-77736065D01*
X134114284Y-77730757D01*
X134111961Y-77725775D01*
X134019849Y-77528238D01*
X134019846Y-77528233D01*
X134017523Y-77523251D01*
X133904145Y-77361331D01*
X133889357Y-77340211D01*
X133889355Y-77340208D01*
X133886198Y-77335700D01*
X133724300Y-77173802D01*
X133719789Y-77170643D01*
X133715576Y-77167108D01*
X133716527Y-77165974D01*
X133676529Y-77115929D01*
X133669224Y-77045310D01*
X133701258Y-76981951D01*
X133762462Y-76945970D01*
X133779517Y-76942918D01*
X133790316Y-76941745D01*
X133926705Y-76890615D01*
X134043261Y-76803261D01*
X134130615Y-76686705D01*
X134181745Y-76550316D01*
X134188500Y-76488134D01*
X134188500Y-74791866D01*
X134181745Y-74729684D01*
X134130615Y-74593295D01*
X134043261Y-74476739D01*
X133926705Y-74389385D01*
X133790316Y-74338255D01*
X133728134Y-74331500D01*
X132031866Y-74331500D01*
X131969684Y-74338255D01*
X131833295Y-74389385D01*
X131716739Y-74476739D01*
X131629385Y-74593295D01*
X131578255Y-74729684D01*
X131571500Y-74791866D01*
X131571500Y-76488134D01*
X131578255Y-76550316D01*
X131629385Y-76686705D01*
X131716739Y-76803261D01*
X131833295Y-76890615D01*
X131969684Y-76941745D01*
X131980474Y-76942917D01*
X131982606Y-76943803D01*
X131985222Y-76944425D01*
X131985121Y-76944848D01*
X132046035Y-76970155D01*
X132086463Y-77028517D01*
X132088922Y-77099471D01*
X132052629Y-77160490D01*
X132043969Y-77167489D01*
X132040207Y-77170646D01*
X132035700Y-77173802D01*
X131949907Y-77259595D01*
X131887595Y-77293621D01*
X131860812Y-77296500D01*
X131098148Y-77296500D01*
X131030027Y-77276498D01*
X131009053Y-77259595D01*
X130420405Y-76670947D01*
X130386379Y-76608635D01*
X130383500Y-76581852D01*
X130383500Y-73918148D01*
X130403502Y-73850027D01*
X130420405Y-73829053D01*
X132329052Y-71920405D01*
X132391364Y-71886380D01*
X132418147Y-71883500D01*
X157490500Y-71883500D01*
X157558621Y-71903502D01*
X157605114Y-71957158D01*
X157616500Y-72009500D01*
X157616500Y-77518543D01*
X157614949Y-77538255D01*
X157612850Y-77551507D01*
X157613195Y-77558094D01*
X157613195Y-77558098D01*
X157616327Y-77617850D01*
X157616500Y-77624445D01*
X157616500Y-77644306D01*
X157618576Y-77664059D01*
X157619093Y-77670628D01*
X157622570Y-77736971D01*
X157626042Y-77749929D01*
X157629645Y-77769372D01*
X157631046Y-77782702D01*
X157651578Y-77845894D01*
X157653444Y-77852196D01*
X157657033Y-77865590D01*
X157670638Y-77916363D01*
X157673634Y-77922242D01*
X157673637Y-77922251D01*
X157676728Y-77928317D01*
X157684292Y-77946579D01*
X157686392Y-77953043D01*
X157686395Y-77953051D01*
X157688436Y-77959331D01*
X157691738Y-77965050D01*
X157691740Y-77965055D01*
X157721654Y-78016867D01*
X157724787Y-78022637D01*
X157754953Y-78081839D01*
X157759109Y-78086971D01*
X157763391Y-78092259D01*
X157774589Y-78108552D01*
X157781296Y-78120169D01*
X157785713Y-78125075D01*
X157785717Y-78125080D01*
X157825747Y-78169538D01*
X157830031Y-78174554D01*
X157838875Y-78185475D01*
X157842528Y-78189986D01*
X157856573Y-78204031D01*
X157861114Y-78208816D01*
X157905566Y-78258185D01*
X157916426Y-78266075D01*
X157931454Y-78278912D01*
X158020088Y-78367546D01*
X158032925Y-78382574D01*
X158040815Y-78393434D01*
X158045725Y-78397855D01*
X158045726Y-78397856D01*
X158090184Y-78437886D01*
X158094969Y-78442427D01*
X158109014Y-78456472D01*
X158111588Y-78458556D01*
X158111591Y-78458559D01*
X158124446Y-78468969D01*
X158129462Y-78473253D01*
X158173920Y-78513283D01*
X158173925Y-78513287D01*
X158178831Y-78517704D01*
X158190097Y-78524209D01*
X158190448Y-78524411D01*
X158206741Y-78535609D01*
X158217161Y-78544047D01*
X158276363Y-78574213D01*
X158282133Y-78577346D01*
X158333945Y-78607260D01*
X158333950Y-78607262D01*
X158339669Y-78610564D01*
X158345949Y-78612605D01*
X158345957Y-78612608D01*
X158352421Y-78614708D01*
X158370683Y-78622272D01*
X158376749Y-78625363D01*
X158376758Y-78625366D01*
X158382637Y-78628362D01*
X158389015Y-78630071D01*
X158446804Y-78645556D01*
X158453106Y-78647422D01*
X158516298Y-78667954D01*
X158529205Y-78669311D01*
X158529628Y-78669355D01*
X158549071Y-78672958D01*
X158562029Y-78676430D01*
X158568619Y-78676775D01*
X158568623Y-78676776D01*
X158612573Y-78679079D01*
X158628372Y-78679907D01*
X158634931Y-78680423D01*
X158654694Y-78682500D01*
X158674555Y-78682500D01*
X158681150Y-78682673D01*
X158740902Y-78685805D01*
X158740906Y-78685805D01*
X158747493Y-78686150D01*
X158760747Y-78684051D01*
X158780456Y-78682500D01*
X163555357Y-78682500D01*
X163623478Y-78702502D01*
X163650589Y-78725998D01*
X163691250Y-78772938D01*
X163863126Y-78915632D01*
X163872126Y-78920891D01*
X163936955Y-78958774D01*
X163985679Y-79010412D01*
X163998750Y-79080195D01*
X163972019Y-79145967D01*
X163931562Y-79179327D01*
X163923457Y-79183546D01*
X163914738Y-79189036D01*
X163744433Y-79316905D01*
X163736726Y-79323748D01*
X163589590Y-79477717D01*
X163583104Y-79485727D01*
X163463098Y-79661649D01*
X163458000Y-79670623D01*
X163368338Y-79863783D01*
X163364775Y-79873470D01*
X163309389Y-80073183D01*
X163310912Y-80081607D01*
X163323292Y-80085000D01*
X165963344Y-80085000D01*
X165976875Y-80081027D01*
X165978180Y-80071947D01*
X165936214Y-79904875D01*
X165932894Y-79895124D01*
X165847972Y-79699814D01*
X165843105Y-79690739D01*
X165727426Y-79511926D01*
X165721136Y-79503757D01*
X165577806Y-79346240D01*
X165570273Y-79339215D01*
X165403139Y-79207222D01*
X165394556Y-79201520D01*
X165357602Y-79181120D01*
X165307631Y-79130687D01*
X165292859Y-79061245D01*
X165317975Y-78994839D01*
X165345327Y-78968232D01*
X165411697Y-78920891D01*
X165524860Y-78840173D01*
X165533301Y-78831762D01*
X165679435Y-78686137D01*
X165683096Y-78682489D01*
X165693541Y-78667954D01*
X165810435Y-78505277D01*
X165813453Y-78501077D01*
X165827205Y-78473253D01*
X165910136Y-78305453D01*
X165910137Y-78305451D01*
X165912430Y-78300811D01*
X165965821Y-78125080D01*
X165975865Y-78092023D01*
X165975865Y-78092021D01*
X165977370Y-78087069D01*
X166006529Y-77865590D01*
X166007839Y-77811985D01*
X166008074Y-77802365D01*
X166008074Y-77802361D01*
X166008156Y-77799000D01*
X165989852Y-77576361D01*
X165935431Y-77359702D01*
X165846354Y-77154840D01*
X165806265Y-77092872D01*
X165727822Y-76971617D01*
X165727820Y-76971614D01*
X165725014Y-76967277D01*
X165574670Y-76802051D01*
X165570619Y-76798852D01*
X165570615Y-76798848D01*
X165403414Y-76666800D01*
X165403410Y-76666798D01*
X165399359Y-76663598D01*
X165358053Y-76640796D01*
X165308084Y-76590364D01*
X165293312Y-76520921D01*
X165318428Y-76454516D01*
X165345780Y-76427909D01*
X165411697Y-76380891D01*
X165524860Y-76300173D01*
X165533301Y-76291762D01*
X165679435Y-76146137D01*
X165683096Y-76142489D01*
X165693541Y-76127954D01*
X165810435Y-75965277D01*
X165813453Y-75961077D01*
X165827205Y-75933253D01*
X165910136Y-75765453D01*
X165910137Y-75765451D01*
X165912430Y-75760811D01*
X165958002Y-75610816D01*
X165975865Y-75552023D01*
X165975865Y-75552021D01*
X165977370Y-75547069D01*
X166006529Y-75325590D01*
X166006706Y-75318363D01*
X166008074Y-75262365D01*
X166008074Y-75262361D01*
X166008156Y-75259000D01*
X165989852Y-75036361D01*
X165935431Y-74819702D01*
X165846354Y-74614840D01*
X165776308Y-74506565D01*
X165727822Y-74431617D01*
X165727820Y-74431614D01*
X165725014Y-74427277D01*
X165574670Y-74262051D01*
X165570619Y-74258852D01*
X165570615Y-74258848D01*
X165403414Y-74126800D01*
X165403410Y-74126798D01*
X165399359Y-74123598D01*
X165358053Y-74100796D01*
X165308084Y-74050364D01*
X165293312Y-73980921D01*
X165318428Y-73914516D01*
X165345780Y-73887909D01*
X165398889Y-73850027D01*
X165524860Y-73760173D01*
X165683096Y-73602489D01*
X165690007Y-73592872D01*
X165810435Y-73425277D01*
X165813453Y-73421077D01*
X165839872Y-73367623D01*
X165910136Y-73225453D01*
X165910137Y-73225451D01*
X165912430Y-73220811D01*
X165977370Y-73007069D01*
X166006529Y-72785590D01*
X166008156Y-72719000D01*
X165989852Y-72496361D01*
X165935431Y-72279702D01*
X165846354Y-72074840D01*
X165770222Y-71957158D01*
X165727822Y-71891617D01*
X165727820Y-71891614D01*
X165725014Y-71887277D01*
X165574670Y-71722051D01*
X165570619Y-71718852D01*
X165570615Y-71718848D01*
X165403414Y-71586800D01*
X165403410Y-71586798D01*
X165399359Y-71583598D01*
X165358053Y-71560796D01*
X165308084Y-71510364D01*
X165293312Y-71440921D01*
X165318428Y-71374516D01*
X165345780Y-71347909D01*
X165389603Y-71316650D01*
X165524860Y-71220173D01*
X165683096Y-71062489D01*
X165742594Y-70979689D01*
X165810435Y-70885277D01*
X165813453Y-70881077D01*
X165819886Y-70868062D01*
X165910136Y-70685453D01*
X165910137Y-70685451D01*
X165912430Y-70680811D01*
X165974100Y-70477831D01*
X165975865Y-70472023D01*
X165975865Y-70472021D01*
X165977370Y-70467069D01*
X166006529Y-70245590D01*
X166007357Y-70211716D01*
X166008074Y-70182365D01*
X166008074Y-70182361D01*
X166008156Y-70179000D01*
X165989852Y-69956361D01*
X165935431Y-69739702D01*
X165846354Y-69534840D01*
X165791742Y-69450423D01*
X165727822Y-69351617D01*
X165727820Y-69351614D01*
X165725014Y-69347277D01*
X165574670Y-69182051D01*
X165570619Y-69178852D01*
X165570615Y-69178848D01*
X165403414Y-69046800D01*
X165403410Y-69046798D01*
X165399359Y-69043598D01*
X165358053Y-69020796D01*
X165308084Y-68970364D01*
X165293312Y-68900921D01*
X165318428Y-68834516D01*
X165345780Y-68807909D01*
X165389603Y-68776650D01*
X165524860Y-68680173D01*
X165683096Y-68522489D01*
X165742594Y-68439689D01*
X165810435Y-68345277D01*
X165813453Y-68341077D01*
X165818913Y-68330031D01*
X165910136Y-68145453D01*
X165910137Y-68145451D01*
X165912430Y-68140811D01*
X165977370Y-67927069D01*
X166006529Y-67705590D01*
X166008156Y-67639000D01*
X165989852Y-67416361D01*
X165935431Y-67199702D01*
X165846354Y-66994840D01*
X165725014Y-66807277D01*
X165721532Y-66803450D01*
X165577798Y-66645488D01*
X165546746Y-66581642D01*
X165555141Y-66511143D01*
X165600317Y-66456375D01*
X165626761Y-66442706D01*
X165733297Y-66402767D01*
X165741705Y-66399615D01*
X165858261Y-66312261D01*
X165945615Y-66195705D01*
X165996745Y-66059316D01*
X166003500Y-65997134D01*
X166003500Y-64200866D01*
X165996745Y-64138684D01*
X165945615Y-64002295D01*
X165858261Y-63885739D01*
X165741705Y-63798385D01*
X165605316Y-63747255D01*
X165543134Y-63740500D01*
X163746866Y-63740500D01*
X163684684Y-63747255D01*
X163548295Y-63798385D01*
X163431739Y-63885739D01*
X163344385Y-64002295D01*
X163293255Y-64138684D01*
X163286500Y-64200866D01*
X163286500Y-65997134D01*
X163293255Y-66059316D01*
X163344385Y-66195705D01*
X163431739Y-66312261D01*
X163548295Y-66399615D01*
X163556704Y-66402767D01*
X163556705Y-66402768D01*
X163665451Y-66443535D01*
X163722216Y-66486176D01*
X163746916Y-66552738D01*
X163731709Y-66622087D01*
X163712316Y-66648568D01*
X163585629Y-66781138D01*
X163582715Y-66785410D01*
X163582714Y-66785411D01*
X163524432Y-66870850D01*
X163459743Y-66965680D01*
X163365688Y-67168305D01*
X163305989Y-67383570D01*
X163282251Y-67605695D01*
X163282548Y-67610848D01*
X163282548Y-67610851D01*
X163288011Y-67705590D01*
X163295110Y-67828715D01*
X163296247Y-67833761D01*
X163296248Y-67833767D01*
X163316119Y-67921939D01*
X163344222Y-68046639D01*
X163428266Y-68253616D01*
X163472468Y-68325747D01*
X163528033Y-68416421D01*
X163544987Y-68444088D01*
X163691250Y-68612938D01*
X163863126Y-68755632D01*
X163933595Y-68796811D01*
X163936445Y-68798476D01*
X163985169Y-68850114D01*
X163998240Y-68919897D01*
X163971509Y-68985669D01*
X163931055Y-69019027D01*
X163918607Y-69025507D01*
X163914474Y-69028610D01*
X163914471Y-69028612D01*
X163767889Y-69138669D01*
X163739965Y-69159635D01*
X163585629Y-69321138D01*
X163582715Y-69325410D01*
X163582714Y-69325411D01*
X163558417Y-69361029D01*
X163459743Y-69505680D01*
X163365688Y-69708305D01*
X163305989Y-69923570D01*
X163282251Y-70145695D01*
X163282548Y-70150848D01*
X163282548Y-70150851D01*
X163293600Y-70342528D01*
X163295110Y-70368715D01*
X163296247Y-70373761D01*
X163296248Y-70373767D01*
X163310700Y-70437892D01*
X163344222Y-70586639D01*
X163398152Y-70719453D01*
X163419090Y-70771017D01*
X163428266Y-70793616D01*
X163544987Y-70984088D01*
X163691250Y-71152938D01*
X163863126Y-71295632D01*
X163933595Y-71336811D01*
X163936445Y-71338476D01*
X163985169Y-71390114D01*
X163998240Y-71459897D01*
X163971509Y-71525669D01*
X163931055Y-71559027D01*
X163918607Y-71565507D01*
X163914474Y-71568610D01*
X163914471Y-71568612D01*
X163890247Y-71586800D01*
X163739965Y-71699635D01*
X163585629Y-71861138D01*
X163459743Y-72045680D01*
X163365688Y-72248305D01*
X163305989Y-72463570D01*
X163282251Y-72685695D01*
X163282548Y-72690848D01*
X163282548Y-72690851D01*
X163288011Y-72785590D01*
X163295110Y-72908715D01*
X163296247Y-72913761D01*
X163296248Y-72913767D01*
X163313304Y-72989448D01*
X163344222Y-73126639D01*
X163395177Y-73252126D01*
X163426241Y-73328628D01*
X163428266Y-73333616D01*
X163479019Y-73416438D01*
X163487738Y-73430665D01*
X163544987Y-73524088D01*
X163691250Y-73692938D01*
X163767846Y-73756529D01*
X163855202Y-73829053D01*
X163863126Y-73835632D01*
X163915023Y-73865958D01*
X163936445Y-73878476D01*
X163985169Y-73930114D01*
X163998240Y-73999897D01*
X163971509Y-74065669D01*
X163931055Y-74099027D01*
X163918607Y-74105507D01*
X163914474Y-74108610D01*
X163914471Y-74108612D01*
X163744100Y-74236530D01*
X163739965Y-74239635D01*
X163680519Y-74301842D01*
X163647350Y-74336551D01*
X163585826Y-74371981D01*
X163556256Y-74375500D01*
X162009500Y-74375500D01*
X161941379Y-74355498D01*
X161894886Y-74301842D01*
X161883500Y-74249500D01*
X161883500Y-69579457D01*
X161885051Y-69559745D01*
X161886118Y-69553008D01*
X161887150Y-69546493D01*
X161886789Y-69539590D01*
X161883673Y-69480150D01*
X161883500Y-69473555D01*
X161883500Y-69453694D01*
X161881423Y-69433931D01*
X161880907Y-69427367D01*
X161877776Y-69367623D01*
X161877775Y-69367619D01*
X161877430Y-69361029D01*
X161873958Y-69348071D01*
X161870355Y-69328628D01*
X161869644Y-69321866D01*
X161868954Y-69315298D01*
X161848422Y-69252106D01*
X161846556Y-69245804D01*
X161831071Y-69188015D01*
X161829362Y-69181637D01*
X161826366Y-69175758D01*
X161826363Y-69175749D01*
X161823272Y-69169683D01*
X161815708Y-69151421D01*
X161813608Y-69144957D01*
X161813605Y-69144949D01*
X161811564Y-69138669D01*
X161808262Y-69132950D01*
X161808260Y-69132945D01*
X161778346Y-69081133D01*
X161775213Y-69075363D01*
X161745047Y-69016161D01*
X161736610Y-69005742D01*
X161725410Y-68989446D01*
X161722004Y-68983546D01*
X161722002Y-68983543D01*
X161718704Y-68977831D01*
X161714288Y-68972926D01*
X161714284Y-68972921D01*
X161674246Y-68928453D01*
X161669966Y-68923443D01*
X161659546Y-68910576D01*
X161659545Y-68910575D01*
X161657472Y-68908015D01*
X161643436Y-68893979D01*
X161638895Y-68889194D01*
X161598856Y-68844726D01*
X161598855Y-68844725D01*
X161594434Y-68839815D01*
X161583581Y-68831930D01*
X161568545Y-68819088D01*
X161180908Y-68431450D01*
X161168068Y-68416416D01*
X161164068Y-68410910D01*
X161164065Y-68410907D01*
X161160185Y-68405566D01*
X161110816Y-68361114D01*
X161106031Y-68356573D01*
X161091986Y-68342528D01*
X161089409Y-68340441D01*
X161076554Y-68330031D01*
X161071538Y-68325747D01*
X161027080Y-68285717D01*
X161027075Y-68285713D01*
X161022169Y-68281296D01*
X161010552Y-68274589D01*
X160994259Y-68263391D01*
X160988971Y-68259109D01*
X160983839Y-68254953D01*
X160924637Y-68224787D01*
X160918867Y-68221654D01*
X160867055Y-68191740D01*
X160867050Y-68191738D01*
X160861331Y-68188436D01*
X160855051Y-68186395D01*
X160855043Y-68186392D01*
X160848579Y-68184292D01*
X160830317Y-68176728D01*
X160824251Y-68173637D01*
X160824242Y-68173634D01*
X160818363Y-68170638D01*
X160807672Y-68167773D01*
X160754196Y-68153444D01*
X160747894Y-68151578D01*
X160684702Y-68131046D01*
X160671372Y-68129645D01*
X160651929Y-68126042D01*
X160638971Y-68122570D01*
X160632381Y-68122225D01*
X160632377Y-68122224D01*
X160588427Y-68119921D01*
X160572628Y-68119093D01*
X160566069Y-68118577D01*
X160546306Y-68116500D01*
X160526445Y-68116500D01*
X160519850Y-68116327D01*
X160460098Y-68113195D01*
X160460094Y-68113195D01*
X160453507Y-68112850D01*
X160440253Y-68114949D01*
X160420544Y-68116500D01*
X154813228Y-68116500D01*
X154745107Y-68096498D01*
X154698614Y-68042842D01*
X154688510Y-67972568D01*
X154718004Y-67907988D01*
X154774291Y-67870667D01*
X154775832Y-67870166D01*
X154782288Y-67868794D01*
X154788319Y-67866109D01*
X154950722Y-67793803D01*
X154950724Y-67793802D01*
X154956752Y-67791118D01*
X155111253Y-67678866D01*
X155144119Y-67642365D01*
X155234621Y-67541852D01*
X155234622Y-67541851D01*
X155239040Y-67536944D01*
X155308659Y-67416361D01*
X155331223Y-67377279D01*
X155331224Y-67377278D01*
X155334527Y-67371556D01*
X155393542Y-67189928D01*
X155395704Y-67169363D01*
X155412814Y-67006565D01*
X155413504Y-67000000D01*
X155393542Y-66810072D01*
X155389667Y-66798146D01*
X155383500Y-66759210D01*
X155383500Y-63685283D01*
X155403502Y-63617162D01*
X155436332Y-63582704D01*
X155564656Y-63491172D01*
X155564659Y-63491170D01*
X155568860Y-63488173D01*
X155677091Y-63380319D01*
X155739462Y-63346404D01*
X155810268Y-63351592D01*
X155867030Y-63394238D01*
X155884012Y-63425341D01*
X155892362Y-63447615D01*
X155928385Y-63543705D01*
X156015739Y-63660261D01*
X156132295Y-63747615D01*
X156268684Y-63798745D01*
X156330866Y-63805500D01*
X158127134Y-63805500D01*
X158189316Y-63798745D01*
X158325705Y-63747615D01*
X158442261Y-63660261D01*
X158529615Y-63543705D01*
X158580745Y-63407316D01*
X158587500Y-63345134D01*
X158587500Y-61548866D01*
X158580745Y-61486684D01*
X158529615Y-61350295D01*
X158442261Y-61233739D01*
X158325705Y-61146385D01*
X158189316Y-61095255D01*
X158127134Y-61088500D01*
X156330866Y-61088500D01*
X156268684Y-61095255D01*
X156132295Y-61146385D01*
X156015739Y-61233739D01*
X155928385Y-61350295D01*
X155925233Y-61358703D01*
X155883919Y-61468907D01*
X155841277Y-61525671D01*
X155774716Y-61550371D01*
X155705367Y-61535163D01*
X155672743Y-61509476D01*
X155622151Y-61453875D01*
X155622142Y-61453866D01*
X155618670Y-61450051D01*
X155614619Y-61446852D01*
X155614615Y-61446848D01*
X155447414Y-61314800D01*
X155447410Y-61314798D01*
X155443359Y-61311598D01*
X155407028Y-61291542D01*
X155391136Y-61282769D01*
X155247789Y-61203638D01*
X155242920Y-61201914D01*
X155242916Y-61201912D01*
X155042087Y-61130795D01*
X155042083Y-61130794D01*
X155037212Y-61129069D01*
X155032119Y-61128162D01*
X155032116Y-61128161D01*
X154822373Y-61090800D01*
X154822367Y-61090799D01*
X154817284Y-61089894D01*
X154743452Y-61088992D01*
X154599081Y-61087228D01*
X154599079Y-61087228D01*
X154593911Y-61087165D01*
X154373091Y-61120955D01*
X154160756Y-61190357D01*
X153962607Y-61293507D01*
X153958474Y-61296610D01*
X153958471Y-61296612D01*
X153788100Y-61424530D01*
X153783965Y-61427635D01*
X153758541Y-61454240D01*
X153642560Y-61575607D01*
X153629629Y-61589138D01*
X153522201Y-61746621D01*
X153467293Y-61791621D01*
X153396768Y-61799792D01*
X153333021Y-61768538D01*
X153312324Y-61744054D01*
X153231822Y-61619617D01*
X153231820Y-61619614D01*
X153229014Y-61615277D01*
X153078670Y-61450051D01*
X153074619Y-61446852D01*
X153074615Y-61446848D01*
X152907414Y-61314800D01*
X152907410Y-61314798D01*
X152903359Y-61311598D01*
X152867028Y-61291542D01*
X152851136Y-61282769D01*
X152707789Y-61203638D01*
X152702920Y-61201914D01*
X152702916Y-61201912D01*
X152502087Y-61130795D01*
X152502083Y-61130794D01*
X152497212Y-61129069D01*
X152492119Y-61128162D01*
X152492116Y-61128161D01*
X152282373Y-61090800D01*
X152282367Y-61090799D01*
X152277284Y-61089894D01*
X152203452Y-61088992D01*
X152059081Y-61087228D01*
X152059079Y-61087228D01*
X152053911Y-61087165D01*
X151833091Y-61120955D01*
X151620756Y-61190357D01*
X151422607Y-61293507D01*
X151418474Y-61296610D01*
X151418471Y-61296612D01*
X151248100Y-61424530D01*
X151243965Y-61427635D01*
X151218541Y-61454240D01*
X151102560Y-61575607D01*
X151089629Y-61589138D01*
X150982204Y-61746618D01*
X150981898Y-61747066D01*
X150926987Y-61792069D01*
X150856462Y-61800240D01*
X150792715Y-61768986D01*
X150772018Y-61744502D01*
X150691426Y-61619926D01*
X150685136Y-61611757D01*
X150541806Y-61454240D01*
X150534273Y-61447215D01*
X150367139Y-61315222D01*
X150358552Y-61309517D01*
X150172117Y-61206599D01*
X150162705Y-61202369D01*
X149961959Y-61131280D01*
X149951988Y-61128646D01*
X149880837Y-61115972D01*
X149867540Y-61117432D01*
X149863000Y-61131989D01*
X149863000Y-63765517D01*
X149867064Y-63779359D01*
X149880478Y-63781393D01*
X149887184Y-63780534D01*
X149897262Y-63778392D01*
X150101255Y-63717191D01*
X150110842Y-63713433D01*
X150302095Y-63619739D01*
X150310945Y-63614464D01*
X150484328Y-63490792D01*
X150492200Y-63484139D01*
X150643052Y-63333812D01*
X150649730Y-63325965D01*
X150777022Y-63148819D01*
X150778279Y-63149722D01*
X150825373Y-63106362D01*
X150895311Y-63094145D01*
X150960751Y-63121678D01*
X150988579Y-63153511D01*
X151048987Y-63252088D01*
X151195250Y-63420938D01*
X151205369Y-63429339D01*
X151219986Y-63441475D01*
X151259621Y-63500378D01*
X151265500Y-63538418D01*
X151265500Y-66421431D01*
X151248619Y-66484431D01*
X151165473Y-66628444D01*
X151106458Y-66810072D01*
X151086496Y-67000000D01*
X151087186Y-67006565D01*
X151104297Y-67169363D01*
X151106458Y-67189928D01*
X151165473Y-67371556D01*
X151168776Y-67377278D01*
X151168777Y-67377279D01*
X151191341Y-67416361D01*
X151260960Y-67536944D01*
X151265378Y-67541851D01*
X151265379Y-67541852D01*
X151355881Y-67642365D01*
X151388747Y-67678866D01*
X151543248Y-67791118D01*
X151549276Y-67793802D01*
X151549278Y-67793803D01*
X151711681Y-67866109D01*
X151717712Y-67868794D01*
X151724168Y-67870166D01*
X151725709Y-67870667D01*
X151784315Y-67910741D01*
X151811951Y-67976138D01*
X151799844Y-68046095D01*
X151751837Y-68098401D01*
X151686772Y-68116500D01*
X130579450Y-68116500D01*
X130559739Y-68114949D01*
X130553009Y-68113883D01*
X130546493Y-68112851D01*
X130539905Y-68113196D01*
X130539901Y-68113196D01*
X130480162Y-68116327D01*
X130473568Y-68116500D01*
X130453694Y-68116500D01*
X130450421Y-68116844D01*
X130433929Y-68118577D01*
X130427354Y-68119094D01*
X130367624Y-68122224D01*
X130367620Y-68122225D01*
X130361029Y-68122570D01*
X130348071Y-68126042D01*
X130328628Y-68129645D01*
X130315298Y-68131046D01*
X130252106Y-68151578D01*
X130245804Y-68153444D01*
X130192328Y-68167773D01*
X130181637Y-68170638D01*
X130175758Y-68173634D01*
X130175749Y-68173637D01*
X130169683Y-68176728D01*
X130151421Y-68184292D01*
X130144957Y-68186392D01*
X130144949Y-68186395D01*
X130138669Y-68188436D01*
X130132950Y-68191738D01*
X130132945Y-68191740D01*
X130081133Y-68221654D01*
X130075363Y-68224787D01*
X130016161Y-68254953D01*
X130011029Y-68259109D01*
X130005741Y-68263391D01*
X129989448Y-68274589D01*
X129977831Y-68281296D01*
X129972925Y-68285713D01*
X129972920Y-68285717D01*
X129928462Y-68325747D01*
X129923446Y-68330031D01*
X129910591Y-68340441D01*
X129908014Y-68342528D01*
X129893969Y-68356573D01*
X129889184Y-68361114D01*
X129839815Y-68405566D01*
X129831925Y-68416426D01*
X129819088Y-68431454D01*
X125931454Y-72319088D01*
X125916426Y-72331925D01*
X125905566Y-72339815D01*
X125901145Y-72344725D01*
X125901144Y-72344726D01*
X125861114Y-72389184D01*
X125856573Y-72393969D01*
X125842528Y-72408014D01*
X125840444Y-72410588D01*
X125840441Y-72410591D01*
X125830031Y-72423446D01*
X125825747Y-72428462D01*
X125785717Y-72472920D01*
X125785713Y-72472925D01*
X125781296Y-72477831D01*
X125774791Y-72489097D01*
X125774589Y-72489448D01*
X125763391Y-72505741D01*
X125754953Y-72516161D01*
X125724787Y-72575363D01*
X125721654Y-72581133D01*
X125691740Y-72632945D01*
X125691738Y-72632950D01*
X125688436Y-72638669D01*
X125686395Y-72644949D01*
X125686392Y-72644957D01*
X125684292Y-72651421D01*
X125676728Y-72669683D01*
X125673637Y-72675749D01*
X125673634Y-72675758D01*
X125670638Y-72681637D01*
X125668929Y-72688015D01*
X125653444Y-72745804D01*
X125651578Y-72752106D01*
X125631046Y-72815298D01*
X125630356Y-72821866D01*
X125629645Y-72828628D01*
X125626042Y-72848071D01*
X125622570Y-72861029D01*
X125622225Y-72867619D01*
X125622224Y-72867623D01*
X125619093Y-72927367D01*
X125618577Y-72933931D01*
X125616500Y-72953694D01*
X125616500Y-72973555D01*
X125616327Y-72980150D01*
X125614440Y-73016161D01*
X125612850Y-73046493D01*
X125613882Y-73053007D01*
X125614949Y-73059744D01*
X125616500Y-73079456D01*
X125616500Y-77420543D01*
X125614949Y-77440255D01*
X125612850Y-77453507D01*
X125613195Y-77460094D01*
X125613195Y-77460098D01*
X125616327Y-77519850D01*
X125616500Y-77526445D01*
X125616500Y-77546306D01*
X125616844Y-77549577D01*
X125618576Y-77566059D01*
X125619093Y-77572633D01*
X125621809Y-77624445D01*
X125622570Y-77638971D01*
X125626042Y-77651929D01*
X125629645Y-77671372D01*
X125631046Y-77684702D01*
X125651578Y-77747894D01*
X125653444Y-77754196D01*
X125661082Y-77782702D01*
X125670638Y-77818363D01*
X125673634Y-77824242D01*
X125673637Y-77824251D01*
X125676728Y-77830317D01*
X125684292Y-77848579D01*
X125686392Y-77855043D01*
X125686395Y-77855051D01*
X125688436Y-77861331D01*
X125691738Y-77867050D01*
X125691740Y-77867055D01*
X125721654Y-77918867D01*
X125724787Y-77924637D01*
X125754953Y-77983839D01*
X125759109Y-77988971D01*
X125763391Y-77994259D01*
X125774589Y-78010552D01*
X125781296Y-78022169D01*
X125785713Y-78027075D01*
X125785717Y-78027080D01*
X125825747Y-78071538D01*
X125830031Y-78076554D01*
X125838467Y-78086971D01*
X125842528Y-78091986D01*
X125856573Y-78106031D01*
X125861114Y-78110816D01*
X125905566Y-78160185D01*
X125916426Y-78168075D01*
X125931454Y-78180912D01*
X129039085Y-81288542D01*
X129051926Y-81303577D01*
X129055927Y-81309084D01*
X129055932Y-81309090D01*
X129059815Y-81314434D01*
X129064725Y-81318855D01*
X129064726Y-81318856D01*
X129109194Y-81358895D01*
X129113979Y-81363436D01*
X129128015Y-81377472D01*
X129130579Y-81379548D01*
X129143447Y-81389969D01*
X129148462Y-81394253D01*
X129192920Y-81434283D01*
X129192925Y-81434287D01*
X129197831Y-81438704D01*
X129203547Y-81442004D01*
X129203548Y-81442005D01*
X129209449Y-81445412D01*
X129225737Y-81456607D01*
X129227249Y-81457831D01*
X129236161Y-81465048D01*
X129295366Y-81495214D01*
X129301119Y-81498337D01*
X129358669Y-81531564D01*
X129364953Y-81533606D01*
X129364958Y-81533608D01*
X129371421Y-81535708D01*
X129389683Y-81543272D01*
X129395749Y-81546363D01*
X129395758Y-81546366D01*
X129401637Y-81549362D01*
X129408015Y-81551071D01*
X129465804Y-81566556D01*
X129472106Y-81568422D01*
X129535298Y-81588954D01*
X129548205Y-81590311D01*
X129548628Y-81590355D01*
X129568071Y-81593958D01*
X129581029Y-81597430D01*
X129587619Y-81597775D01*
X129587623Y-81597776D01*
X129631573Y-81600079D01*
X129647372Y-81600907D01*
X129653931Y-81601423D01*
X129673694Y-81603500D01*
X129693555Y-81603500D01*
X129700150Y-81603673D01*
X129759902Y-81606805D01*
X129759906Y-81606805D01*
X129766493Y-81607150D01*
X129779747Y-81605051D01*
X129799456Y-81603500D01*
X131860812Y-81603500D01*
X131928933Y-81623502D01*
X131949907Y-81640405D01*
X132035700Y-81726198D01*
X132040208Y-81729355D01*
X132040211Y-81729357D01*
X132118389Y-81784098D01*
X132223251Y-81857523D01*
X132228233Y-81859846D01*
X132228238Y-81859849D01*
X132262457Y-81875805D01*
X132315742Y-81922722D01*
X132335203Y-81990999D01*
X132314661Y-82058959D01*
X132262457Y-82104195D01*
X132228238Y-82120151D01*
X132228233Y-82120154D01*
X132223251Y-82122477D01*
X132118389Y-82195902D01*
X132040211Y-82250643D01*
X132040208Y-82250645D01*
X132035700Y-82253802D01*
X131873802Y-82415700D01*
X131870645Y-82420208D01*
X131870643Y-82420211D01*
X131851890Y-82446993D01*
X131742477Y-82603251D01*
X131740154Y-82608233D01*
X131740151Y-82608238D01*
X131648039Y-82805775D01*
X131645716Y-82810757D01*
X131644294Y-82816065D01*
X131644293Y-82816067D01*
X131592180Y-83010554D01*
X131586457Y-83031913D01*
X131566502Y-83260000D01*
X131586457Y-83488087D01*
X131587881Y-83493400D01*
X131587881Y-83493402D01*
X131589119Y-83498020D01*
X131645716Y-83709243D01*
X131648039Y-83714224D01*
X131648039Y-83714225D01*
X131740151Y-83911762D01*
X131740154Y-83911767D01*
X131742477Y-83916749D01*
X131873802Y-84104300D01*
X132035700Y-84266198D01*
X132040208Y-84269355D01*
X132040211Y-84269357D01*
X132118389Y-84324098D01*
X132223251Y-84397523D01*
X132228233Y-84399846D01*
X132228238Y-84399849D01*
X132262457Y-84415805D01*
X132315742Y-84462722D01*
X132335203Y-84530999D01*
X132314661Y-84598959D01*
X132262457Y-84644195D01*
X132228238Y-84660151D01*
X132228233Y-84660154D01*
X132223251Y-84662477D01*
X132118389Y-84735902D01*
X132040211Y-84790643D01*
X132040208Y-84790645D01*
X132035700Y-84793802D01*
X131873802Y-84955700D01*
X131870645Y-84960208D01*
X131870643Y-84960211D01*
X131842783Y-85000000D01*
X131742477Y-85143251D01*
X131740154Y-85148233D01*
X131740151Y-85148238D01*
X131715305Y-85201522D01*
X131645716Y-85350757D01*
X131644294Y-85356065D01*
X131644293Y-85356067D01*
X131610485Y-85482240D01*
X131586457Y-85571913D01*
X131566502Y-85800000D01*
X131586457Y-86028087D01*
X131587881Y-86033400D01*
X131587881Y-86033402D01*
X131638765Y-86223300D01*
X131645716Y-86249243D01*
X131648039Y-86254224D01*
X131648039Y-86254225D01*
X131740151Y-86451762D01*
X131740154Y-86451767D01*
X131742477Y-86456749D01*
X131873802Y-86644300D01*
X132035700Y-86806198D01*
X132040208Y-86809355D01*
X132040211Y-86809357D01*
X132118389Y-86864098D01*
X132223251Y-86937523D01*
X132228233Y-86939846D01*
X132228238Y-86939849D01*
X132262457Y-86955805D01*
X132315742Y-87002722D01*
X132335203Y-87070999D01*
X132314661Y-87138959D01*
X132262457Y-87184195D01*
X132228238Y-87200151D01*
X132228233Y-87200154D01*
X132223251Y-87202477D01*
X132118389Y-87275902D01*
X132040211Y-87330643D01*
X132040208Y-87330645D01*
X132035700Y-87333802D01*
X131949907Y-87419595D01*
X131887595Y-87453621D01*
X131860812Y-87456500D01*
X117739457Y-87456500D01*
X117719745Y-87454949D01*
X117713008Y-87453882D01*
X117713009Y-87453882D01*
X117706493Y-87452850D01*
X117699906Y-87453195D01*
X117699902Y-87453195D01*
X117640150Y-87456327D01*
X117633555Y-87456500D01*
X117613694Y-87456500D01*
X117593931Y-87458577D01*
X117587372Y-87459093D01*
X117571573Y-87459921D01*
X117527623Y-87462224D01*
X117527619Y-87462225D01*
X117521029Y-87462570D01*
X117508071Y-87466042D01*
X117488628Y-87469645D01*
X117475298Y-87471046D01*
X117412106Y-87491578D01*
X117405804Y-87493444D01*
X117397385Y-87495700D01*
X117341637Y-87510638D01*
X117335758Y-87513634D01*
X117335749Y-87513637D01*
X117329683Y-87516728D01*
X117311421Y-87524292D01*
X117304957Y-87526392D01*
X117304949Y-87526395D01*
X117298669Y-87528436D01*
X117292950Y-87531738D01*
X117292945Y-87531740D01*
X117241133Y-87561654D01*
X117235363Y-87564787D01*
X117176161Y-87594953D01*
X117171029Y-87599109D01*
X117165741Y-87603391D01*
X117149448Y-87614589D01*
X117137831Y-87621296D01*
X117132925Y-87625713D01*
X117132920Y-87625717D01*
X117088462Y-87665747D01*
X117083446Y-87670031D01*
X117072688Y-87678743D01*
X117068014Y-87682528D01*
X117053969Y-87696573D01*
X117049184Y-87701114D01*
X116999815Y-87745566D01*
X116991925Y-87756426D01*
X116979088Y-87771454D01*
X116431454Y-88319088D01*
X116416426Y-88331925D01*
X116405566Y-88339815D01*
X116401145Y-88344725D01*
X116401144Y-88344726D01*
X116361114Y-88389184D01*
X116356573Y-88393969D01*
X116342528Y-88408014D01*
X116340444Y-88410588D01*
X116340441Y-88410591D01*
X116330031Y-88423446D01*
X116325747Y-88428462D01*
X116285717Y-88472920D01*
X116285713Y-88472925D01*
X116281296Y-88477831D01*
X116274791Y-88489097D01*
X116274589Y-88489448D01*
X116263391Y-88505741D01*
X116254953Y-88516161D01*
X116224787Y-88575363D01*
X116221654Y-88581133D01*
X116191740Y-88632945D01*
X116191738Y-88632950D01*
X116188436Y-88638669D01*
X116186395Y-88644949D01*
X116186392Y-88644957D01*
X116184292Y-88651421D01*
X116176728Y-88669683D01*
X116173637Y-88675749D01*
X116173634Y-88675758D01*
X116170638Y-88681637D01*
X116168929Y-88688015D01*
X116153444Y-88745804D01*
X116151578Y-88752106D01*
X116131046Y-88815298D01*
X116130356Y-88821866D01*
X116129645Y-88828628D01*
X116126042Y-88848071D01*
X116122570Y-88861029D01*
X116122225Y-88867619D01*
X116122224Y-88867623D01*
X116119093Y-88927367D01*
X116118577Y-88933931D01*
X116116500Y-88953694D01*
X116116500Y-88973555D01*
X116116327Y-88980150D01*
X116112850Y-89046493D01*
X116113882Y-89053007D01*
X116114949Y-89059744D01*
X116116500Y-89079456D01*
X116116500Y-111092860D01*
X116122940Y-111123160D01*
X116124806Y-111131938D01*
X116126869Y-111144963D01*
X116129911Y-111173899D01*
X116131046Y-111184702D01*
X116133085Y-111190977D01*
X116143393Y-111222701D01*
X116146807Y-111235443D01*
X116155113Y-111274521D01*
X116157796Y-111280547D01*
X116171363Y-111311019D01*
X116176089Y-111323332D01*
X116188436Y-111361331D01*
X116191739Y-111367053D01*
X116191740Y-111367054D01*
X116208416Y-111395939D01*
X116214402Y-111407686D01*
X116230652Y-111444183D01*
X116254134Y-111476503D01*
X116261316Y-111487562D01*
X116281296Y-111522169D01*
X116285714Y-111527076D01*
X116285715Y-111527077D01*
X116308029Y-111551859D01*
X116316329Y-111562108D01*
X116339815Y-111594434D01*
X116344718Y-111598848D01*
X116344719Y-111598850D01*
X116369508Y-111621171D01*
X116378829Y-111630492D01*
X116401014Y-111655130D01*
X116405566Y-111660185D01*
X116421895Y-111672049D01*
X116437893Y-111683672D01*
X116448142Y-111691972D01*
X116477831Y-111718704D01*
X116508843Y-111736609D01*
X116512432Y-111738681D01*
X116523491Y-111745863D01*
X116555816Y-111769348D01*
X116561842Y-111772031D01*
X116561849Y-111772035D01*
X116592318Y-111785600D01*
X116604060Y-111791582D01*
X116638669Y-111811564D01*
X116676680Y-111823914D01*
X116688976Y-111828635D01*
X116701329Y-111834135D01*
X116719450Y-111842203D01*
X116719453Y-111842204D01*
X116725479Y-111844887D01*
X116737345Y-111847409D01*
X116764557Y-111853193D01*
X116777296Y-111856606D01*
X116815298Y-111868954D01*
X116821857Y-111869643D01*
X116821860Y-111869644D01*
X116855037Y-111873131D01*
X116868062Y-111875194D01*
X116876840Y-111877060D01*
X116907140Y-111883500D01*
X150920543Y-111883500D01*
X150940255Y-111885051D01*
X150953507Y-111887150D01*
X150960094Y-111886805D01*
X150960098Y-111886805D01*
X151019850Y-111883673D01*
X151026445Y-111883500D01*
X151046306Y-111883500D01*
X151066069Y-111881423D01*
X151072628Y-111880907D01*
X151088427Y-111880079D01*
X151132377Y-111877776D01*
X151132381Y-111877775D01*
X151138971Y-111877430D01*
X151151929Y-111873958D01*
X151171372Y-111870355D01*
X151171795Y-111870311D01*
X151184702Y-111868954D01*
X151247894Y-111848422D01*
X151254196Y-111846556D01*
X151311985Y-111831071D01*
X151318363Y-111829362D01*
X151324242Y-111826366D01*
X151324251Y-111826363D01*
X151330317Y-111823272D01*
X151348579Y-111815708D01*
X151355043Y-111813608D01*
X151355051Y-111813605D01*
X151361331Y-111811564D01*
X151367050Y-111808262D01*
X151367055Y-111808260D01*
X151418867Y-111778346D01*
X151424637Y-111775213D01*
X151483839Y-111745047D01*
X151494259Y-111736609D01*
X151510552Y-111725411D01*
X151510903Y-111725209D01*
X151522169Y-111718704D01*
X151527077Y-111714285D01*
X151527080Y-111714283D01*
X151571538Y-111674253D01*
X151576554Y-111669969D01*
X151589409Y-111659559D01*
X151589412Y-111659556D01*
X151591986Y-111657472D01*
X151606031Y-111643427D01*
X151610816Y-111638886D01*
X151660185Y-111594434D01*
X151668071Y-111583580D01*
X151680911Y-111568547D01*
X152068545Y-111180912D01*
X152083581Y-111168070D01*
X152094434Y-111160185D01*
X152138895Y-111110806D01*
X152143436Y-111106021D01*
X152157472Y-111091985D01*
X152169966Y-111076557D01*
X152174246Y-111071547D01*
X152214284Y-111027079D01*
X152214288Y-111027074D01*
X152218704Y-111022169D01*
X152225410Y-111010554D01*
X152236610Y-110994258D01*
X152240894Y-110988967D01*
X152245047Y-110983839D01*
X152275213Y-110924637D01*
X152278346Y-110918867D01*
X152308260Y-110867055D01*
X152308262Y-110867050D01*
X152311564Y-110861331D01*
X152313605Y-110855051D01*
X152313608Y-110855043D01*
X152315708Y-110848579D01*
X152323272Y-110830317D01*
X152326363Y-110824251D01*
X152326366Y-110824242D01*
X152329362Y-110818363D01*
X152346556Y-110754196D01*
X152348422Y-110747894D01*
X152368954Y-110684702D01*
X152370355Y-110671372D01*
X152373958Y-110651929D01*
X152377430Y-110638971D01*
X152380907Y-110572628D01*
X152381424Y-110566059D01*
X152383156Y-110549577D01*
X152383500Y-110546306D01*
X152383500Y-110526445D01*
X152383673Y-110519850D01*
X152386805Y-110460098D01*
X152386805Y-110460094D01*
X152387150Y-110453507D01*
X152385051Y-110440253D01*
X152383500Y-110420544D01*
X152383500Y-103418148D01*
X152403502Y-103350027D01*
X152420405Y-103329053D01*
X153687052Y-102062405D01*
X153749364Y-102028380D01*
X153776147Y-102025500D01*
X157663357Y-102025500D01*
X157731478Y-102045502D01*
X157758589Y-102068998D01*
X157799250Y-102115938D01*
X157939772Y-102232601D01*
X157949938Y-102241041D01*
X157971126Y-102258632D01*
X158041595Y-102299811D01*
X158044445Y-102301476D01*
X158093169Y-102353114D01*
X158106240Y-102422897D01*
X158079509Y-102488669D01*
X158039055Y-102522027D01*
X158026607Y-102528507D01*
X158022474Y-102531610D01*
X158022471Y-102531612D01*
X157852100Y-102659530D01*
X157847965Y-102662635D01*
X157693629Y-102824138D01*
X157690715Y-102828410D01*
X157690714Y-102828411D01*
X157629094Y-102918743D01*
X157567743Y-103008680D01*
X157550191Y-103046493D01*
X157513390Y-103125775D01*
X157473688Y-103211305D01*
X157413989Y-103426570D01*
X157390251Y-103648695D01*
X157390548Y-103653848D01*
X157390548Y-103653851D01*
X157396150Y-103751012D01*
X157403110Y-103871715D01*
X157404247Y-103876761D01*
X157404248Y-103876767D01*
X157427054Y-103977962D01*
X157452222Y-104089639D01*
X157536266Y-104296616D01*
X157573085Y-104356700D01*
X157640558Y-104466805D01*
X157652987Y-104487088D01*
X157799250Y-104655938D01*
X157946610Y-104778279D01*
X157949938Y-104781041D01*
X157971126Y-104798632D01*
X158041595Y-104839811D01*
X158044445Y-104841476D01*
X158093169Y-104893114D01*
X158106240Y-104962897D01*
X158079509Y-105028669D01*
X158039055Y-105062027D01*
X158026607Y-105068507D01*
X158022474Y-105071610D01*
X158022471Y-105071612D01*
X157961089Y-105117699D01*
X157847965Y-105202635D01*
X157693629Y-105364138D01*
X157567743Y-105548680D01*
X157552003Y-105582590D01*
X157513390Y-105665775D01*
X157473688Y-105751305D01*
X157413989Y-105966570D01*
X157390251Y-106188695D01*
X157390548Y-106193848D01*
X157390548Y-106193851D01*
X157396011Y-106288590D01*
X157403110Y-106411715D01*
X157404247Y-106416761D01*
X157404248Y-106416767D01*
X157424119Y-106504939D01*
X157452222Y-106629639D01*
X157536266Y-106836616D01*
X157538965Y-106841020D01*
X157614511Y-106964300D01*
X157652987Y-107027088D01*
X157799250Y-107195938D01*
X157803230Y-107199242D01*
X157807981Y-107203187D01*
X157847616Y-107262090D01*
X157849113Y-107333071D01*
X157811997Y-107393593D01*
X157771725Y-107418112D01*
X157675751Y-107454091D01*
X157656295Y-107461385D01*
X157539739Y-107548739D01*
X157452385Y-107665295D01*
X157401255Y-107801684D01*
X157394500Y-107863866D01*
X157394500Y-109660134D01*
X157401255Y-109722316D01*
X157452385Y-109858705D01*
X157539739Y-109975261D01*
X157656295Y-110062615D01*
X157792684Y-110113745D01*
X157854866Y-110120500D01*
X159651134Y-110120500D01*
X159713316Y-110113745D01*
X159849705Y-110062615D01*
X159966261Y-109975261D01*
X160053615Y-109858705D01*
X160104745Y-109722316D01*
X160111500Y-109660134D01*
X160111500Y-107863866D01*
X160104745Y-107801684D01*
X160053615Y-107665295D01*
X159966261Y-107548739D01*
X159849705Y-107461385D01*
X159837132Y-107456672D01*
X159731203Y-107416960D01*
X159674439Y-107374318D01*
X159649739Y-107307756D01*
X159664947Y-107238408D01*
X159686493Y-107209727D01*
X159767144Y-107129357D01*
X159791096Y-107105489D01*
X159850594Y-107022689D01*
X159918435Y-106928277D01*
X159921453Y-106924077D01*
X159996732Y-106771762D01*
X160018136Y-106728453D01*
X160018137Y-106728451D01*
X160020430Y-106723811D01*
X160085370Y-106510069D01*
X160114529Y-106288590D01*
X160116156Y-106222000D01*
X160097852Y-105999361D01*
X160043431Y-105782702D01*
X159954354Y-105577840D01*
X159833014Y-105390277D01*
X159682670Y-105225051D01*
X159678619Y-105221852D01*
X159678615Y-105221848D01*
X159511414Y-105089800D01*
X159511410Y-105089798D01*
X159507359Y-105086598D01*
X159466053Y-105063796D01*
X159416084Y-105013364D01*
X159401312Y-104943921D01*
X159426428Y-104877516D01*
X159453780Y-104850909D01*
X159505126Y-104814284D01*
X159632860Y-104723173D01*
X159754208Y-104602249D01*
X159816579Y-104568333D01*
X159843147Y-104565500D01*
X171238543Y-104565500D01*
X171258255Y-104567051D01*
X171271507Y-104569150D01*
X171278094Y-104568805D01*
X171278098Y-104568805D01*
X171337850Y-104565673D01*
X171344445Y-104565500D01*
X171364306Y-104565500D01*
X171384069Y-104563423D01*
X171390628Y-104562907D01*
X171406427Y-104562079D01*
X171450377Y-104559776D01*
X171450381Y-104559775D01*
X171456971Y-104559430D01*
X171469929Y-104555958D01*
X171489372Y-104552355D01*
X171489795Y-104552311D01*
X171502702Y-104550954D01*
X171565894Y-104530422D01*
X171572196Y-104528556D01*
X171629985Y-104513071D01*
X171636363Y-104511362D01*
X171642242Y-104508366D01*
X171642251Y-104508363D01*
X171648317Y-104505272D01*
X171666579Y-104497708D01*
X171673043Y-104495608D01*
X171673051Y-104495605D01*
X171679331Y-104493564D01*
X171685050Y-104490262D01*
X171685055Y-104490260D01*
X171736867Y-104460346D01*
X171742637Y-104457213D01*
X171801839Y-104427047D01*
X171812259Y-104418609D01*
X171828552Y-104407411D01*
X171830367Y-104406363D01*
X171840169Y-104400704D01*
X171845075Y-104396287D01*
X171845080Y-104396283D01*
X171889538Y-104356253D01*
X171894554Y-104351969D01*
X171907409Y-104341559D01*
X171907412Y-104341556D01*
X171909986Y-104339472D01*
X171924031Y-104325427D01*
X171928816Y-104320886D01*
X171973276Y-104280854D01*
X171978185Y-104276434D01*
X171982066Y-104271093D01*
X171982070Y-104271088D01*
X171986075Y-104265576D01*
X171998915Y-104250543D01*
X172068544Y-104180914D01*
X172083577Y-104168074D01*
X172089089Y-104164069D01*
X172089092Y-104164066D01*
X172094434Y-104160185D01*
X172138894Y-104110807D01*
X172143435Y-104106022D01*
X172157472Y-104091985D01*
X172169966Y-104076557D01*
X172174246Y-104071547D01*
X172214284Y-104027079D01*
X172214288Y-104027074D01*
X172218704Y-104022169D01*
X172225410Y-104010554D01*
X172236610Y-103994258D01*
X172240894Y-103988967D01*
X172245047Y-103983839D01*
X172275213Y-103924637D01*
X172278346Y-103918867D01*
X172308260Y-103867055D01*
X172308262Y-103867050D01*
X172311564Y-103861331D01*
X172313605Y-103855051D01*
X172313608Y-103855043D01*
X172315708Y-103848579D01*
X172323272Y-103830317D01*
X172326363Y-103824251D01*
X172326366Y-103824242D01*
X172329362Y-103818363D01*
X172346556Y-103754196D01*
X172348422Y-103747894D01*
X172368954Y-103684702D01*
X172370355Y-103671372D01*
X172373958Y-103651929D01*
X172377430Y-103638971D01*
X172380907Y-103572628D01*
X172381424Y-103566059D01*
X172383156Y-103549577D01*
X172383500Y-103546306D01*
X172383500Y-103526445D01*
X172383673Y-103519850D01*
X172386805Y-103460098D01*
X172386805Y-103460094D01*
X172387150Y-103453507D01*
X172385051Y-103440253D01*
X172383500Y-103420544D01*
X172383500Y-83418147D01*
X172403502Y-83350026D01*
X172420405Y-83329052D01*
X172568542Y-83180915D01*
X172583577Y-83168074D01*
X172589084Y-83164073D01*
X172589090Y-83164068D01*
X172594434Y-83160185D01*
X172638895Y-83110806D01*
X172643436Y-83106021D01*
X172657472Y-83091985D01*
X172669966Y-83076557D01*
X172674246Y-83071547D01*
X172714284Y-83027079D01*
X172714288Y-83027074D01*
X172718704Y-83022169D01*
X172725410Y-83010554D01*
X172736610Y-82994258D01*
X172740894Y-82988967D01*
X172745047Y-82983839D01*
X172775213Y-82924637D01*
X172778346Y-82918867D01*
X172808260Y-82867055D01*
X172808262Y-82867050D01*
X172811564Y-82861331D01*
X172813605Y-82855051D01*
X172813608Y-82855043D01*
X172815708Y-82848579D01*
X172823272Y-82830317D01*
X172826363Y-82824251D01*
X172826366Y-82824242D01*
X172829362Y-82818363D01*
X172846556Y-82754196D01*
X172848422Y-82747894D01*
X172868954Y-82684702D01*
X172870355Y-82671372D01*
X172873958Y-82651929D01*
X172877430Y-82638971D01*
X172878238Y-82623570D01*
X172880907Y-82572633D01*
X172881424Y-82566059D01*
X172883156Y-82549577D01*
X172883500Y-82546306D01*
X172883500Y-82526445D01*
X172883673Y-82519850D01*
X172886805Y-82460098D01*
X172886805Y-82460094D01*
X172887150Y-82453507D01*
X172885051Y-82440253D01*
X172883500Y-82420544D01*
X172883500Y-59407140D01*
X172875194Y-59368062D01*
X172873131Y-59355037D01*
X172869644Y-59321860D01*
X172869643Y-59321857D01*
X172868954Y-59315298D01*
X172856606Y-59277296D01*
X172853193Y-59264557D01*
X172846259Y-59231933D01*
X172846258Y-59231930D01*
X172844887Y-59225479D01*
X172828636Y-59188978D01*
X172823911Y-59176668D01*
X172813606Y-59144953D01*
X172813605Y-59144952D01*
X172811564Y-59138669D01*
X172808260Y-59132946D01*
X172791584Y-59104061D01*
X172785598Y-59092314D01*
X172772032Y-59061846D01*
X172769348Y-59055817D01*
X172745864Y-59023495D01*
X172738683Y-59012436D01*
X172731161Y-58999408D01*
X172718704Y-58977831D01*
X172691971Y-58948141D01*
X172683671Y-58937892D01*
X172664064Y-58910905D01*
X172660185Y-58905566D01*
X172655274Y-58901144D01*
X172630492Y-58878829D01*
X172621171Y-58869508D01*
X172598850Y-58844719D01*
X172598848Y-58844718D01*
X172594434Y-58839815D01*
X172562107Y-58816328D01*
X172551858Y-58808028D01*
X172527077Y-58785715D01*
X172527076Y-58785714D01*
X172522169Y-58781296D01*
X172487567Y-58761318D01*
X172476507Y-58754136D01*
X172449526Y-58734533D01*
X172449525Y-58734532D01*
X172444184Y-58730652D01*
X172438158Y-58727969D01*
X172438151Y-58727965D01*
X172407682Y-58714400D01*
X172395940Y-58708418D01*
X172361331Y-58688436D01*
X172323320Y-58676086D01*
X172311024Y-58671365D01*
X172298326Y-58665712D01*
X172280550Y-58657797D01*
X172280547Y-58657796D01*
X172274521Y-58655113D01*
X172235444Y-58646807D01*
X172222704Y-58643394D01*
X172184702Y-58631046D01*
X172178143Y-58630357D01*
X172178140Y-58630356D01*
X172144963Y-58626869D01*
X172131938Y-58624806D01*
X172123160Y-58622940D01*
X172092860Y-58616500D01*
X144526445Y-58616500D01*
X144519850Y-58616327D01*
X144460098Y-58613195D01*
X144460094Y-58613195D01*
X144453507Y-58612850D01*
X144446992Y-58613882D01*
X144446990Y-58613882D01*
X144387887Y-58623243D01*
X144381347Y-58624104D01*
X144342040Y-58628235D01*
X144315298Y-58631046D01*
X144309015Y-58633088D01*
X144309013Y-58633088D01*
X144302546Y-58635189D01*
X144283315Y-58639806D01*
X144270074Y-58641903D01*
X144221172Y-58660675D01*
X144208050Y-58665712D01*
X144201837Y-58667912D01*
X144182949Y-58674049D01*
X144144950Y-58686395D01*
X144144948Y-58686396D01*
X144138669Y-58688436D01*
X144132950Y-58691738D01*
X144132947Y-58691739D01*
X144127049Y-58695144D01*
X144109214Y-58703651D01*
X144096690Y-58708459D01*
X144091152Y-58712056D01*
X144091149Y-58712057D01*
X144040981Y-58744637D01*
X144035356Y-58748084D01*
X143977831Y-58781296D01*
X143972923Y-58785715D01*
X143972922Y-58785716D01*
X143967865Y-58790269D01*
X143952186Y-58802300D01*
X143946477Y-58806008D01*
X143946473Y-58806011D01*
X143940933Y-58809609D01*
X143893969Y-58856573D01*
X143889184Y-58861114D01*
X143839815Y-58905566D01*
X143831925Y-58916426D01*
X143819088Y-58931454D01*
X143809609Y-58940933D01*
X143806014Y-58946469D01*
X143806013Y-58946470D01*
X143773430Y-58996644D01*
X143769694Y-59002080D01*
X143730652Y-59055816D01*
X143725194Y-59068075D01*
X143715768Y-59085435D01*
X143708459Y-59096690D01*
X143705630Y-59104061D01*
X143684659Y-59158691D01*
X143682135Y-59164784D01*
X143657797Y-59219449D01*
X143657796Y-59219453D01*
X143655113Y-59225479D01*
X143653742Y-59231930D01*
X143652323Y-59238605D01*
X143646710Y-59257553D01*
X143641904Y-59270074D01*
X143640760Y-59277299D01*
X143631514Y-59335668D01*
X143630313Y-59342150D01*
X143624806Y-59368062D01*
X143616500Y-59407140D01*
X143616500Y-59420543D01*
X143614949Y-59440255D01*
X143612850Y-59453507D01*
X143613195Y-59460094D01*
X143613195Y-59460098D01*
X143616327Y-59519850D01*
X143616500Y-59526445D01*
X143616500Y-59592860D01*
X143617872Y-59599315D01*
X143617873Y-59599324D01*
X143619288Y-59605981D01*
X143621868Y-59625578D01*
X143622570Y-59638971D01*
X143624279Y-59645349D01*
X143639763Y-59703139D01*
X143641301Y-59709543D01*
X143642745Y-59716334D01*
X143645500Y-59742540D01*
X143645500Y-61354576D01*
X143625498Y-61422697D01*
X143610594Y-61441626D01*
X143567537Y-61486684D01*
X143531350Y-61524551D01*
X143469826Y-61559981D01*
X143440256Y-61563500D01*
X107632450Y-61563500D01*
X107612739Y-61561949D01*
X107606009Y-61560883D01*
X107599493Y-61559851D01*
X107592906Y-61560196D01*
X107592902Y-61560196D01*
X107533169Y-61563327D01*
X107526574Y-61563500D01*
X107506694Y-61563500D01*
X107486912Y-61565579D01*
X107480353Y-61566095D01*
X107453429Y-61567506D01*
X107420627Y-61569225D01*
X107420625Y-61569225D01*
X107414029Y-61569571D01*
X107401074Y-61573042D01*
X107381645Y-61576642D01*
X107374874Y-61577354D01*
X107374867Y-61577356D01*
X107368298Y-61578046D01*
X107305112Y-61598576D01*
X107298817Y-61600441D01*
X107234637Y-61617638D01*
X107228755Y-61620635D01*
X107222683Y-61623728D01*
X107204421Y-61631292D01*
X107197957Y-61633392D01*
X107197949Y-61633395D01*
X107191669Y-61635436D01*
X107185950Y-61638738D01*
X107185945Y-61638740D01*
X107134133Y-61668654D01*
X107128363Y-61671787D01*
X107069161Y-61701953D01*
X107064029Y-61706109D01*
X107058741Y-61710391D01*
X107042448Y-61721589D01*
X107030831Y-61728296D01*
X107025925Y-61732713D01*
X107025920Y-61732717D01*
X106981462Y-61772747D01*
X106976446Y-61777031D01*
X106963591Y-61787441D01*
X106961014Y-61789528D01*
X106946979Y-61803563D01*
X106942193Y-61808106D01*
X106917773Y-61830093D01*
X106914006Y-61833144D01*
X106910910Y-61835932D01*
X106905566Y-61839815D01*
X106901143Y-61844727D01*
X106899346Y-61846346D01*
X106897727Y-61848143D01*
X106892815Y-61852566D01*
X106888932Y-61857910D01*
X106886144Y-61861006D01*
X106883093Y-61864773D01*
X106861106Y-61889193D01*
X106856563Y-61893979D01*
X106842528Y-61908014D01*
X106840444Y-61910588D01*
X106840441Y-61910591D01*
X106830031Y-61923446D01*
X106825747Y-61928462D01*
X106785717Y-61972920D01*
X106785713Y-61972925D01*
X106781296Y-61977831D01*
X106774791Y-61989097D01*
X106774589Y-61989448D01*
X106763391Y-62005741D01*
X106754953Y-62016161D01*
X106724787Y-62075363D01*
X106721654Y-62081133D01*
X106691740Y-62132945D01*
X106691738Y-62132950D01*
X106688436Y-62138669D01*
X106686395Y-62144949D01*
X106686392Y-62144957D01*
X106684292Y-62151421D01*
X106676728Y-62169683D01*
X106673637Y-62175749D01*
X106673634Y-62175758D01*
X106670638Y-62181637D01*
X106668929Y-62188015D01*
X106653444Y-62245804D01*
X106651578Y-62252106D01*
X106631046Y-62315298D01*
X106630356Y-62321866D01*
X106629645Y-62328628D01*
X106626042Y-62348071D01*
X106622570Y-62361029D01*
X106619810Y-62413695D01*
X106619093Y-62427367D01*
X106618577Y-62433931D01*
X106616500Y-62453694D01*
X106616500Y-62473555D01*
X106616327Y-62480150D01*
X106612850Y-62546493D01*
X106613882Y-62553007D01*
X106614949Y-62559744D01*
X106616500Y-62579456D01*
X106616500Y-84759210D01*
X106610333Y-84798146D01*
X106606458Y-84810072D01*
X106586496Y-85000000D01*
X84836500Y-85000000D01*
X84836500Y-55919500D01*
X84856502Y-55851379D01*
X84910158Y-55804886D01*
X84962500Y-55793500D01*
X176784500Y-55793500D01*
X176852621Y-55813502D01*
G37*
%TD.AperFunction*%
%TA.AperFunction,Conductor*%
G36*
X160149973Y-87903502D02*
G01*
X160170947Y-87920405D01*
X164579595Y-92329052D01*
X164613621Y-92391364D01*
X164616500Y-92418147D01*
X164616500Y-95052500D01*
X164596498Y-95120621D01*
X164542842Y-95167114D01*
X164490500Y-95178500D01*
X159841605Y-95178500D01*
X159773484Y-95158498D01*
X159748412Y-95137300D01*
X159686148Y-95068873D01*
X159686146Y-95068872D01*
X159682670Y-95065051D01*
X159678619Y-95061852D01*
X159678615Y-95061848D01*
X159511414Y-94929800D01*
X159511410Y-94929798D01*
X159507359Y-94926598D01*
X159466053Y-94903796D01*
X159416084Y-94853364D01*
X159401312Y-94783921D01*
X159426428Y-94717516D01*
X159453780Y-94690909D01*
X159516036Y-94646502D01*
X159632860Y-94563173D01*
X159642135Y-94553931D01*
X159767531Y-94428972D01*
X159791096Y-94405489D01*
X159921453Y-94224077D01*
X159975699Y-94114319D01*
X160018136Y-94028453D01*
X160018137Y-94028451D01*
X160020430Y-94023811D01*
X160085370Y-93810069D01*
X160114529Y-93588590D01*
X160116156Y-93522000D01*
X160097852Y-93299361D01*
X160043431Y-93082702D01*
X159954354Y-92877840D01*
X159880223Y-92763251D01*
X159835822Y-92694617D01*
X159835820Y-92694614D01*
X159833014Y-92690277D01*
X159682670Y-92525051D01*
X159678619Y-92521852D01*
X159678615Y-92521848D01*
X159511414Y-92389800D01*
X159511410Y-92389798D01*
X159507359Y-92386598D01*
X159465569Y-92363529D01*
X159415598Y-92313097D01*
X159400826Y-92243654D01*
X159425942Y-92177248D01*
X159453294Y-92150641D01*
X159628328Y-92025792D01*
X159636200Y-92019139D01*
X159787052Y-91868812D01*
X159793730Y-91860965D01*
X159918003Y-91688020D01*
X159923313Y-91679183D01*
X160017670Y-91488267D01*
X160021469Y-91478672D01*
X160083377Y-91274910D01*
X160085555Y-91264837D01*
X160086986Y-91253962D01*
X160084775Y-91239778D01*
X160071617Y-91236000D01*
X157436225Y-91236000D01*
X157422694Y-91239973D01*
X157421257Y-91249966D01*
X157451565Y-91384446D01*
X157454645Y-91394275D01*
X157534770Y-91591603D01*
X157539413Y-91600794D01*
X157650694Y-91782388D01*
X157656777Y-91790699D01*
X157796213Y-91951667D01*
X157803580Y-91958883D01*
X157967434Y-92094916D01*
X157975881Y-92100831D01*
X158044969Y-92141203D01*
X158093693Y-92192842D01*
X158106764Y-92262625D01*
X158080033Y-92328396D01*
X158039584Y-92361752D01*
X158026607Y-92368507D01*
X158022474Y-92371610D01*
X158022471Y-92371612D01*
X157852100Y-92499530D01*
X157847965Y-92502635D01*
X157773832Y-92580211D01*
X157755350Y-92599551D01*
X157693826Y-92634981D01*
X157664256Y-92638500D01*
X150057457Y-92638500D01*
X150037745Y-92636949D01*
X150031008Y-92635882D01*
X150031009Y-92635882D01*
X150024493Y-92634850D01*
X150017906Y-92635195D01*
X150017902Y-92635195D01*
X149958150Y-92638327D01*
X149951555Y-92638500D01*
X149931694Y-92638500D01*
X149911931Y-92640577D01*
X149905372Y-92641093D01*
X149863733Y-92643275D01*
X149845629Y-92644224D01*
X149845628Y-92644224D01*
X149839029Y-92644570D01*
X149832645Y-92646281D01*
X149832643Y-92646281D01*
X149826074Y-92648041D01*
X149806639Y-92651643D01*
X149799869Y-92652355D01*
X149799865Y-92652356D01*
X149793298Y-92653046D01*
X149730092Y-92673582D01*
X149723845Y-92675433D01*
X149659638Y-92692638D01*
X149653763Y-92695631D01*
X149653756Y-92695634D01*
X149647686Y-92698727D01*
X149629431Y-92706288D01*
X149622955Y-92708393D01*
X149622951Y-92708395D01*
X149616669Y-92710436D01*
X149610954Y-92713735D01*
X149610944Y-92713740D01*
X149559139Y-92743651D01*
X149553367Y-92746786D01*
X149494161Y-92776952D01*
X149489027Y-92781109D01*
X149489026Y-92781110D01*
X149483737Y-92785393D01*
X149467449Y-92796588D01*
X149455831Y-92803296D01*
X149450925Y-92807713D01*
X149450920Y-92807717D01*
X149406462Y-92847747D01*
X149401447Y-92852031D01*
X149393369Y-92858573D01*
X149386015Y-92864528D01*
X149371979Y-92878564D01*
X149367194Y-92883105D01*
X149317815Y-92927566D01*
X149313935Y-92932906D01*
X149313928Y-92932914D01*
X149309927Y-92938422D01*
X149297086Y-92953457D01*
X142130947Y-100119595D01*
X142068635Y-100153621D01*
X142041852Y-100156500D01*
X141519188Y-100156500D01*
X141451067Y-100136498D01*
X141430093Y-100119595D01*
X141344300Y-100033802D01*
X141339792Y-100030645D01*
X141339789Y-100030643D01*
X141200860Y-99933364D01*
X141156749Y-99902477D01*
X141151767Y-99900154D01*
X141151762Y-99900151D01*
X141117543Y-99884195D01*
X141064258Y-99837278D01*
X141044797Y-99769001D01*
X141065339Y-99701041D01*
X141117543Y-99655805D01*
X141151762Y-99639849D01*
X141151767Y-99639846D01*
X141156749Y-99637523D01*
X141262206Y-99563681D01*
X141339789Y-99509357D01*
X141339792Y-99509355D01*
X141344300Y-99506198D01*
X141430093Y-99420405D01*
X141492405Y-99386379D01*
X141519188Y-99383500D01*
X141920543Y-99383500D01*
X141940255Y-99385051D01*
X141953507Y-99387150D01*
X141960094Y-99386805D01*
X141960098Y-99386805D01*
X142019850Y-99383673D01*
X142026445Y-99383500D01*
X142046306Y-99383500D01*
X142066069Y-99381423D01*
X142072628Y-99380907D01*
X142088427Y-99380079D01*
X142132377Y-99377776D01*
X142132381Y-99377775D01*
X142138971Y-99377430D01*
X142151929Y-99373958D01*
X142171372Y-99370355D01*
X142171795Y-99370311D01*
X142184702Y-99368954D01*
X142247894Y-99348422D01*
X142254196Y-99346556D01*
X142311985Y-99331071D01*
X142318363Y-99329362D01*
X142324242Y-99326366D01*
X142324251Y-99326363D01*
X142330317Y-99323272D01*
X142348579Y-99315708D01*
X142355043Y-99313608D01*
X142355051Y-99313605D01*
X142361331Y-99311564D01*
X142367050Y-99308262D01*
X142367055Y-99308260D01*
X142418867Y-99278346D01*
X142424637Y-99275213D01*
X142483839Y-99245047D01*
X142494259Y-99236609D01*
X142510552Y-99225411D01*
X142510903Y-99225209D01*
X142522169Y-99218704D01*
X142527075Y-99214287D01*
X142527080Y-99214283D01*
X142571538Y-99174253D01*
X142576554Y-99169969D01*
X142589409Y-99159559D01*
X142589412Y-99159556D01*
X142591986Y-99157472D01*
X142606031Y-99143427D01*
X142610816Y-99138886D01*
X142655274Y-99098856D01*
X142655275Y-99098855D01*
X142660185Y-99094434D01*
X142668075Y-99083574D01*
X142680912Y-99068546D01*
X151033275Y-90716183D01*
X157417389Y-90716183D01*
X157418912Y-90724607D01*
X157431292Y-90728000D01*
X158480885Y-90728000D01*
X158496124Y-90723525D01*
X158497329Y-90722135D01*
X158499000Y-90714452D01*
X158499000Y-90709885D01*
X159007000Y-90709885D01*
X159011475Y-90725124D01*
X159012865Y-90726329D01*
X159020548Y-90728000D01*
X160071344Y-90728000D01*
X160084875Y-90724027D01*
X160086180Y-90714947D01*
X160044214Y-90547875D01*
X160040894Y-90538124D01*
X159955972Y-90342814D01*
X159951105Y-90333739D01*
X159835426Y-90154926D01*
X159829136Y-90146757D01*
X159685806Y-89989240D01*
X159678273Y-89982215D01*
X159511139Y-89850222D01*
X159502552Y-89844517D01*
X159316117Y-89741599D01*
X159306705Y-89737369D01*
X159105959Y-89666280D01*
X159095988Y-89663646D01*
X159024837Y-89650972D01*
X159011540Y-89652432D01*
X159007000Y-89666989D01*
X159007000Y-90709885D01*
X158499000Y-90709885D01*
X158499000Y-89665102D01*
X158495082Y-89651758D01*
X158480806Y-89649771D01*
X158442324Y-89655660D01*
X158432288Y-89658051D01*
X158229868Y-89724212D01*
X158220359Y-89728209D01*
X158031463Y-89826542D01*
X158022738Y-89832036D01*
X157852433Y-89959905D01*
X157844726Y-89966748D01*
X157697590Y-90120717D01*
X157691104Y-90128727D01*
X157571098Y-90304649D01*
X157566000Y-90313623D01*
X157476338Y-90506783D01*
X157472775Y-90516470D01*
X157417389Y-90716183D01*
X151033275Y-90716183D01*
X153829053Y-87920405D01*
X153891365Y-87886379D01*
X153918148Y-87883500D01*
X160081852Y-87883500D01*
X160149973Y-87903502D01*
G37*
%TD.AperFunction*%
%TD*%
M02*
