M48
; DRILL file {KiCad (6.0.8)} date Fri Jan  6 11:49:26 2023
; FORMAT={-:-/ absolute / metric / decimal}
; #@! TF.CreationDate,2023-01-06T11:49:26+01:00
; #@! TF.GenerationSoftware,Kicad,Pcbnew,(6.0.8)
; #@! TF.FileFunction,Plated,1,2,PTH
FMAT,2
METRIC
; #@! TA.AperFunction,Plated,PTH,ViaDrill
T1C0.400
; #@! TA.AperFunction,Plated,PTH,ComponentDrill
T2C0.800
; #@! TA.AperFunction,Plated,PTH,ComponentDrill
T3C1.000
%
G90
G05
T1
X107.5Y-85.0
X108.5Y-94.5
X113.261Y-80.438
X127.5Y-84.0
X128.0Y-91.0
X147.5Y-78.0
X152.0Y-67.0
X154.5Y-67.0
X154.5Y-74.5
X156.0Y-91.0
X158.5Y-80.0
T2
X121.694Y-94.339
X121.694Y-99.339
X132.88Y-75.64
X132.88Y-78.18
X132.88Y-80.72
X132.88Y-83.26
X132.88Y-85.8
X132.88Y-88.34
X132.88Y-90.88
X132.88Y-93.42
X132.88Y-95.96
X132.88Y-98.5
X132.88Y-101.04
X132.88Y-103.58
X132.88Y-106.12
X132.88Y-108.66
X140.5Y-75.64
X140.5Y-78.18
X140.5Y-80.72
X140.5Y-83.26
X140.5Y-85.8
X140.5Y-88.34
X140.5Y-90.88
X140.5Y-93.42
X140.5Y-95.96
X140.5Y-98.5
X140.5Y-101.04
X140.5Y-103.58
X140.5Y-106.12
X140.5Y-108.66
T3
X144.529Y-62.447
X147.069Y-62.447
X149.609Y-62.447
X152.149Y-62.447
X154.689Y-62.447
X157.229Y-62.447
X158.753Y-90.982
X158.753Y-93.522
X158.753Y-96.062
X158.753Y-98.602
X158.753Y-101.142
X158.753Y-103.682
X158.753Y-106.222
X158.753Y-108.762
X164.645Y-65.099
X164.645Y-67.639
X164.645Y-70.179
X164.645Y-72.719
X164.645Y-75.259
X164.645Y-77.799
X164.645Y-80.339
X164.645Y-82.879
X164.645Y-85.419
T0
M30
